SplineFontDB: 3.0
FontName: Umpush-LightOblique
FullName: Umpush Light Oblique
FamilyName: Umpush
Weight: Light
Copyright: Copyright (c) 2003 NECTEC. All rights reserved.\nCopyright (c) 2007 Widhaya Trisarnwadhana. All rights reserved.\nModified under GNU General Public License by TLWG.
Version: 0.9.15: 2014-02-20
ItalicAngle: -10
UnderlinePosition: -85
UnderlineWidth: 10
Ascent: 1638
Descent: 410
LayerCount: 2
Layer: 0 0 "Back"  1
Layer: 1 0 "Fore"  0
FSType: 0
OS2Version: 0
OS2_WeightWidthSlopeOnly: 0
OS2_UseTypoMetrics: 0
CreationTime: 1176605901
ModificationTime: 1392816761
PfmFamily: 33
TTFWeight: 300
TTFWidth: 5
LineGap: 0
VLineGap: 0
Panose: 2 11 3 4 2 2 2 2 2 4
OS2TypoAscent: 0
OS2TypoAOffset: 1
OS2TypoDescent: 0
OS2TypoDOffset: 1
OS2TypoLinegap: 0
OS2WinAscent: 0
OS2WinAOffset: 1
OS2WinDescent: 0
OS2WinDOffset: 1
HheadAscent: 0
HheadAOffset: 1
HheadDescent: 0
HheadDOffset: 1
OS2Vendor: 'PfEd'
Lookup: 4 0 1 "'liga' Standard Ligatures lookup 0"  {"'liga' Standard Ligatures lookup 0"  } ['liga' ('latn' <'dflt' > ) ]
Lookup: 6 0 0 "'ccmp' Thai Conditional Descender Removal"  {"'ccmp' Thai Conditional Descender Removal"  } ['ccmp' ('DFLT' <'dflt' > 'thai' <'KUY ' 'THA ' 'dflt' > ) ]
Lookup: 1 0 0 "'ccmp' Pali-Sanskrit Descender Removal"  {"'ccmp' Pali-Sanskrit Descender Removal" ("descless" ) } ['ccmp' ('thai' <'PAL ' 'SAN ' > ) ]
Lookup: 6 0 0 "'ccmp' Thai General Composition"  {"'ccmp' Thai Below Vowel Tone Reordering"  "'ccmp' Thai General Composition"  } ['ccmp' ('DFLT' <'dflt' > 'thai' <'KUY ' 'PAL ' 'SAN ' 'THA ' 'dflt' > ) ]
Lookup: 1 0 0 "Thai Descender Removal Single Substitution"  {"Thai Descender Removal Single Substitution" ("descless" ) } []
Lookup: 2 0 0 "Thai Sara Am Decomposition"  {"Thai Sara Am Decomposition"  } []
Lookup: 2 0 0 "Thai Tone Nikhahit Attachment"  {"Thai Tone Nikhahit Attachment"  } []
Lookup: 1 0 0 "Thai Sara Am Lakkhang"  {"Thai Sara Am Lakkhang"  } []

StartChar: .notdef
Encoding: 65536 -1 0
Width: 1533
VWidth: 2045
Flags: W
HStem: 0 32<293 1253> 1248 32<507 1467>
DStem2: 256 0 287.358 0 0.173648 0.984808<37.9388 1272.63> 1247.36 0 1278 0 0.173648 0.984808<32.4937 1267.18>
LayerCount: 2
Fore
SplineSet
256 0 m 1
 482 1280 l 1
 1504 1280 l 1
 1278 0 l 1
 256 0 l 1
293 32 m 1
 1253 32 l 1
 1467 1248 l 1
 507 1248 l 1
 293 32 l 1
EndSplineSet
EndChar

StartChar: uni0E4D.high
Encoding: 63262 63262 2
Width: 0
VWidth: 2558
Flags: W
HStem: 2026 72<83.4149 215.128> 2254 74<97.3427 231.646>
VStem: 5 71<2105.61 2231.63> 238 71<2122.54 2246.11>
AnchorPoint: "AboveMark" 217 2512 basemark 0
AnchorPoint: "AboveMark" 134 2040 mark 0
LayerCount: 2
Fore
SplineSet
5 2147 m 0
 5 2242 93 2328 184 2328 c 0
 256 2328 309 2277 309 2203 c 0
 309 2107 219 2026 131 2026 c 0
 60 2026 5 2075 5 2147 c 0
171 2254 m 0
 110 2254 76 2201 76 2161 c 0
 76 2127 102 2098 144 2098 c 0
 182 2098 238 2135 238 2190 c 0
 238 2230 209 2254 171 2254 c 0
EndSplineSet
EndChar

StartChar: exclam
Encoding: 33 33 5
Width: 681
VWidth: 2045
Flags: W
HStem: 0 193<242 368> 1430 20G<467.46 617>
VStem: 315 75<366 427.635>
DStem2: 208 0 368 0 0.173648 0.984808<27.7837 195.972 734.399 1473.64>
LayerCount: 2
Fore
SplineSet
391 998 m 1
 471 1450 l 1
 617 1450 l 1
 537 998 l 1
 390 366 l 1
 315 366 l 1
 391 998 l 1
242 193 m 1
 402 193 l 1
 368 0 l 1
 208 0 l 1
 242 193 l 1
EndSplineSet
EndChar

StartChar: quotedbl
Encoding: 34 34 6
Width: 568
VWidth: 2045
Flags: W
HStem: 946 504<347 370 610 632>
VStem: 284 460
LayerCount: 2
Fore
SplineSet
284 946 m 1
 306 1217 l 1
 347 1450 l 1
 481 1450 l 1
 440 1217 l 1
 370 946 l 1
 284 946 l 1
547 946 m 1
 569 1217 l 1
 610 1450 l 1
 744 1450 l 1
 703 1217 l 1
 632 946 l 1
 547 946 l 1
EndSplineSet
EndChar

StartChar: numbersign
Encoding: 35 35 7
Width: 1137
VWidth: 2045
Flags: W
HStem: -9 21G<85 219.677 597 731.677> 387 124<111 237 412 749 924 1181> 951 124<211 455 630 967 1142 1281> 1450 20G<646.354 781 1158.35 1293>
DStem2: 85 -9 212 -9 0.359064 0.933313<45.6011 424.17 602.737 1028.83 1207.4 1584.68> 597 -9 724 -9 0.359064 0.933313<45.6011 424.17 602.737 1028.83 1207.4 1584.68>
LayerCount: 2
Fore
SplineSet
212 -9 m 1
 85 -9 l 1
 237 387 l 1
 89 387 l 1
 111 511 l 1
 285 511 l 1
 455 951 l 1
 189 951 l 1
 211 1075 l 1
 503 1075 l 1
 654 1470 l 1
 781 1470 l 1
 630 1075 l 1
 1015 1075 l 1
 1166 1470 l 1
 1293 1470 l 1
 1142 1075 l 1
 1303 1075 l 1
 1281 951 l 1
 1094 951 l 1
 924 511 l 1
 1203 511 l 1
 1181 387 l 1
 876 387 l 1
 724 -9 l 1
 597 -9 l 1
 749 387 l 1
 364 387 l 1
 212 -9 l 1
967 951 m 1
 582 951 l 1
 412 511 l 1
 797 511 l 1
 967 951 l 1
EndSplineSet
EndChar

StartChar: dollar
Encoding: 36 36 8
Width: 1137
VWidth: 2045
Flags: W
HStem: -16 138<396.645 481 651 789.378> 634 142<767 856.394> 1268 138<573.274 708 878 977.334>
VStem: 141 150<223.202 417> 283 153<903.207 1145.42> 967 149<282.18 542.285> 1049 147<1050 1198.4>
DStem2: 463 -118 609 -118 0.173648 0.984808<25.3526 103.576 267.03 789.023 947.478 1407.49 1571.93 1630.74>
LayerCount: 2
Fore
SplineSet
609 -118 m 1xe4
 463 -118 l 1
 481 -16 l 1
 289 5 141 112 141 324 c 3
 141 353 144 384 150 417 c 1
 296 417 l 1
 293 398 291 380 291 363 c 3xf4
 291 232 382 146 506 122 c 1
 602 671 l 1
 436 719 283 789 283 966 c 3
 283 1232 517 1380 732 1406 c 1
 746 1488 l 1
 892 1488 l 1
 878 1405 l 1
 1052 1382 1196 1279 1196 1108 c 3
 1196 1089 1195 1070 1191 1050 c 1
 1045 1050 l 1
 1047 1064 1049 1077 1049 1090 c 3xea
 1049 1199 960 1253 854 1269 c 1
 767 776 l 1
 921 735 1116 666 1116 462 c 3
 1116 159 856 7 627 -16 c 1
 609 -118 l 1xe4
651 120 m 1
 800 142 967 241 967 433 c 3
 967 554 862 600 742 634 c 1
 651 120 l 1
708 1268 m 1
 572 1246 436 1168 436 1017 c 3xe8
 436 909 521 852 628 815 c 1
 708 1268 l 1
EndSplineSet
EndChar

StartChar: percent
Encoding: 37 37 9
Width: 1818
VWidth: 2045
Flags: W
HStem: -48 136<1308.58 1492.03> -9 21G<476 635.662> 588 136<1383.97 1567.42> 718 136<496.577 680.026> 1354 136<571.974 755.423>
VStem: 306 148<897.063 1215.17> 798 148<992.83 1310.94> 1118 148<131.064 449.17> 1610 148<226.83 544.937>
DStem2: 476 -9 622 -9 0.564072 0.825726<82.3545 1815.37>
LayerCount: 2
Fore
SplineSet
1758 422 m 3xaf80
 1758 159 1559 -48 1370 -48 c 259
 1221 -48 1118 79 1118 254 c 3
 1118 517 1317 724 1506 724 c 259
 1655 724 1758 597 1758 422 c 3xaf80
1482 588 m 259
 1397 588 1266 465 1266 268 c 3
 1266 145 1333 88 1394 88 c 259
 1479 88 1610 211 1610 408 c 3
 1610 531 1543 588 1482 588 c 259
946 1188 m 3
 946 925 747 718 558 718 c 259x1f80
 409 718 306 845 306 1020 c 3
 306 1283 505 1490 694 1490 c 259
 843 1490 946 1363 946 1188 c 3
670 1354 m 259
 585 1354 454 1231 454 1034 c 3
 454 911 521 854 582 854 c 259
 667 854 798 977 798 1174 c 3
 798 1297 731 1354 670 1354 c 259
1500 1490 m 1
 1646 1490 l 1
 622 -9 l 1
 476 -9 l 1x4f80
 1500 1490 l 1
EndSplineSet
EndChar

StartChar: ampersand
Encoding: 38 38 10
Width: 1364
VWidth: 2045
Flags: W
HStem: -12 136<415.907 761.175> 1344 136<716.446 994.457>
VStem: 152 153<235.102 530.99> 462 151<1019.73 1251.06> 1046 148<1090.42 1289.42>
DStem2: 729 907 571 844 0.539995 -0.841668<-256.526 -32.2941 128.287 593.093>
LayerCount: 2
Fore
SplineSet
1210 -17 m 1
 1125 35 1058 99 1010 173 c 1
 879 50 726 -12 550 -12 c 3
 233 -12 152 215 152 345 c 3
 152 562 317 759 571 844 c 1
 482 973 462 1053 462 1108 c 3
 462 1305 662 1480 898 1480 c 3
 1083 1480 1194 1359 1194 1217 c 3
 1194 1042 1044 909 792 795 c 1
 1048 407 l 1
 1119 506 1168 606 1204 719 c 1
 1348 675 l 1
 1299 542 1227 416 1128 290 c 1
 1176 217 1251 146 1345 77 c 1
 1210 -17 l 1
864 1344 m 3
 733 1344 613 1250 613 1140 c 3
 613 1084 647 1030 729 907 c 1
 911 989 1046 1088 1046 1194 c 3
 1046 1260 986 1344 864 1344 c 3
305 386 m 3
 305 281 364 124 577 124 c 3
 706 124 855 203 929 286 c 1
 652 730 l 1
 354 639 305 470 305 386 c 3
EndSplineSet
EndChar

StartChar: quotesingle
Encoding: 39 39 11
Width: 454
VWidth: 2045
Flags: W
HStem: 946 519<394 429>
VStem: 333 221
LayerCount: 2
Fore
SplineSet
333 946 m 1
 351 1220 l 1
 394 1465 l 1
 554 1465 l 1
 511 1220 l 1
 429 946 l 1
 333 946 l 1
EndSplineSet
EndChar

StartChar: parenleft
Encoding: 40 40 12
Width: 681
VWidth: 2045
Flags: W
HStem: -430 21G<322.5 479>
VStem: 197 141<-52.3037 603.886>
LayerCount: 2
Fore
SplineSet
818 1489 m 1
 617 1249 338 788 338 230 c 3
 338 30 375 -189 479 -430 c 1
 403 -430 l 1
 242 -169 197 82 197 285 c 3
 197 784 470 1226 742 1489 c 1
 818 1489 l 1
EndSplineSet
EndChar

StartChar: parenright
Encoding: 41 41 13
Width: 681
VWidth: 2045
Flags: W
HStem: -430 21G<50 349>
VStem: 531 142<449.781 1126.6>
LayerCount: 2
Fore
SplineSet
389 1489 m 1
 465 1489 l 1
 584 1314 673 1073 673 787 c 3
 673 462 572 31 126 -430 c 1
 50 -430 l 1
 408 27 531 452 531 839 c 3
 531 1121 460 1342 389 1489 c 1
EndSplineSet
EndChar

StartChar: asterisk
Encoding: 42 42 14
Width: 795
VWidth: 2045
Flags: W
HStem: 1210 116<784.77 918.977>
VStem: 598 116<1302.11 1489>
LayerCount: 2
Fore
SplineSet
283 1208 m 1
 339 1325 l 1
 567 1223 l 1
 580 1334 589 1423 598 1489 c 1
 714 1489 l 1
 700 1426 679 1339 650 1228 c 1
 729 1263 819 1296 917 1326 c 1
 933 1210 l 1
 831 1181 741 1158 659 1143 c 1
 696 1109 743 1042 802 942 c 1
 692 873 l 1
 644 956 607 1031 582 1097 c 1
 528 1025 468 952 400 878 c 1
 322 941 l 1
 405 1032 472 1099 527 1142 c 1
 283 1208 l 1
EndSplineSet
EndChar

StartChar: plus
Encoding: 43 43 15
Width: 1350
VWidth: 2045
Flags: W
HStem: 655 136<328 715 885 1272>
DStem2: 642 237 788 237 0.173648 0.984808<25.3526 424.326 587.78 982.814>
LayerCount: 2
Fore
SplineSet
642 237 m 1
 715 655 l 1
 304 655 l 1
 328 791 l 1
 739 791 l 1
 812 1205 l 1
 958 1205 l 1
 885 791 l 1
 1296 791 l 1
 1272 655 l 1
 861 655 l 1
 788 237 l 1
 642 237 l 1
EndSplineSet
EndChar

StartChar: comma
Encoding: 44 44 16
Width: 568
VWidth: 2045
Flags: W
HStem: -290 495
VStem: 148 275
LayerCount: 2
Fore
SplineSet
204 0 m 1
 240 205 l 1
 423 205 l 1
 387 0 l 2
 370 -99 327 -228 169 -290 c 1
 148 -213 l 1
 224 -181 273 -125 299 0 c 1
 204 0 l 1
EndSplineSet
EndChar

StartChar: hyphen
Encoding: 45 45 17
Width: 681
VWidth: 2045
Flags: W
HStem: 462 136<169 698>
VStem: 145 577
LayerCount: 2
Fore
SplineSet
145 462 m 1
 169 598 l 1
 722 598 l 1
 698 462 l 1
 145 462 l 1
EndSplineSet
EndChar

StartChar: period
Encoding: 46 46 18
Width: 568
VWidth: 2045
Flags: W
HStem: 0 196<221 369>
VStem: 186 218
LayerCount: 2
Fore
SplineSet
186 0 m 1
 221 196 l 1
 404 196 l 1
 369 0 l 1
 186 0 l 1
EndSplineSet
EndChar

StartChar: slash
Encoding: 47 47 19
Width: 568
VWidth: 2045
Flags: W
HStem: -9 21G<-83 58.4557> 1448 20G<753.517 893>
DStem2: -83 -9 47 -9 0.497908 0.86723<64.7281 1703.12>
LayerCount: 2
Fore
SplineSet
-83 -9 m 1
 765 1468 l 1
 893 1468 l 1
 47 -9 l 1
 -83 -9 l 1
EndSplineSet
EndChar

StartChar: zero
Encoding: 48 48 20
Width: 1137
VWidth: 2045
Flags: W
HStem: -12 136<443.613 725.293> 1344 136<641.287 935.217>
VStem: 185 150<245.941 839.463> 1043 149<646.577 1223.69>
LayerCount: 2
Fore
SplineSet
1043 992 m 3
 1043 1179 989 1344 797 1344 c 3
 460 1344 335 798 335 479 c 3
 335 292 390 124 582 124 c 3
 901 124 1043 655 1043 992 c 3
558 -12 m 3
 268 -12 185 196 185 444 c 3
 185 894 353 1480 821 1480 c 3
 1111 1480 1192 1274 1192 1026 c 3
 1192 576 1026 -12 558 -12 c 3
EndSplineSet
EndChar

StartChar: one
Encoding: 49 49 21
Width: 1137
VWidth: 2045
Flags: W
HStem: 0 21G<617 766.521> 1451 20G<803.5 1022>
VStem: 399 623
DStem2: 617 0 763 0 0.173648 0.984808<25.3526 1320.02>
LayerCount: 2
Fore
SplineSet
417 1103 m 1
 649 1211 785 1385 822 1471 c 1
 1022 1471 l 1
 763 0 l 1
 617 0 l 1
 846 1300 l 1
 700 1136 603 1060 399 997 c 1
 417 1103 l 1
EndSplineSet
EndChar

StartChar: two
Encoding: 50 50 22
Width: 1137
VWidth: 2045
Flags: W
HStem: 0 136<283 1031> 1344 136<616.892 966.388>
VStem: 279 146<1039 1155.03> 1074 150<952.821 1244.03>
DStem2: 254 326 424 292 0.811615 0.584193<-85.9257 971.08>
LayerCount: 2
Fore
SplineSet
833 1480 m 3
 1094 1480 1224 1341 1224 1154 c 3
 1224 986 1154 850 1056 766 c 0
 877 612 674 472 424 292 c 16
 337 229 291 180 283 136 c 1
 1055 136 l 1
 1031 0 l 1
 61 0 l 1
 84 131 145 243 254 326 c 0
 560 561 622 581 908 809 c 0
 1008 889 1074 996 1074 1114 c 3
 1074 1230 980 1344 804 1344 c 3
 593 1344 454 1205 425 1039 c 1
 279 1039 l 1
 325 1300 546 1480 833 1480 c 3
EndSplineSet
EndChar

StartChar: three
Encoding: 51 51 23
Width: 1137
VWidth: 2045
Flags: W
HStem: -9 136<423.602 758.223> 708 136<590 844.247> 1069 21G<292 450.5> 1344 136<612.545 954.67>
VStem: 155 148<249.161 426> 292 146<1069 1176.37> 981 149<325.747 616.55> 1027 145<996.105 1275.76>
LayerCount: 2
Fore
SplineSet
1172 1164 m 3xf5
 1172 982 1026 830 911 794 c 1
 958 784 1130 737 1130 528 c 3
 1130 192 826 -9 550 -9 c 3
 282 -9 155 175 155 362 c 3
 155 383 157 405 160 426 c 1
 306 426 l 1
 304 416 303 405 303 394 c 3
 303 292 375 127 574 127 c 3
 741 127 981 247 981 494 c 3xfa
 981 663 816 708 687 708 c 3
 645 708 603 706 563 693 c 1
 590 844 l 1
 914 844 1027 984 1027 1157 c 3
 1027 1293 913 1344 780 1344 c 3
 602 1344 463 1213 438 1069 c 9
 292 1069 l 1
 325 1256 520 1480 811 1480 c 3
 1002 1480 1172 1365 1172 1164 c 3xf5
EndSplineSet
EndChar

StartChar: four
Encoding: 52 52 24
Width: 1137
VWidth: 2045
Flags: W
HStem: 0 21G<696 845.516> 347 136<244 757 927 1101> 1451 20G<915.269 1101>
DStem2: 113 492 244 483 0.641647 0.767<77.1528 1125.02> 696 0 842 0 0.173648 0.984808<25.3526 352.321 515.775 1301.77>
LayerCount: 2
Fore
SplineSet
696 0 m 1
 757 347 l 1
 87 347 l 1
 113 492 l 1
 932 1471 l 1
 1101 1471 l 1
 927 483 l 1
 1125 483 l 1
 1101 347 l 1
 903 347 l 1
 842 0 l 1
 696 0 l 1
781 483 m 1
 922 1282 l 1
 244 483 l 1
 781 483 l 1
EndSplineSet
EndChar

StartChar: five
Encoding: 53 53 25
Width: 1137
VWidth: 2045
Flags: W
HStem: -12 136<398.276 755.963> 847 136<538.111 885.382> 1314 136<609 1220>
VStem: 152 151<220.453 411> 1006 148<387.87 736.04>
DStem2: 240 704 447 877 0.34588 0.938279<28.3735 117.712 233.919 699.98>
LayerCount: 2
Fore
SplineSet
1006 587 m 3
 1006 753 887 847 701 847 c 3
 571 847 463 789 379 683 c 1
 240 704 l 1
 515 1450 l 1
 1244 1450 l 1
 1220 1314 l 1
 609 1314 l 1
 447 877 l 1
 479 912 575 983 774 983 c 3
 980 983 1154 854 1154 610 c 3
 1154 276 883 -12 543 -12 c 3
 249 -12 152 179 152 348 c 3
 152 370 154 391 157 411 c 1
 303 411 l 1
 303 403 303 395 303 387 c 3
 303 246 349 124 590 124 c 3
 791 124 1006 316 1006 587 c 3
EndSplineSet
EndChar

StartChar: six
Encoding: 54 54 26
Width: 1137
VWidth: 2045
Flags: W
HStem: -12 136<445.453 775.254> 840 136<551.718 879.18> 1344 136<650.03 979.144>
VStem: 176 155<240.697 610.788> 989 150<364.005 730.059> 1066 151<1103 1252.28>
LayerCount: 2
Fore
SplineSet
575 -12 m 3xf8
 294 -12 176 190 176 466 c 3
 176 753 312 1480 863 1480 c 3
 1065 1480 1217 1361 1217 1167 c 3
 1217 1147 1216 1125 1212 1103 c 1
 1066 1103 l 1xf4
 1066 1172 1044 1344 829 1344 c 3
 528 1344 408 1052 351 766 c 1
 362 788 481 976 776 976 c 3
 958 976 1139 843 1139 593 c 3
 1139 304 926 -12 575 -12 c 3xf8
724 840 m 3
 509 840 331 664 331 406 c 3
 331 240 430 124 604 124 c 3
 877 124 989 387 989 562 c 3xf8
 989 718 903 840 724 840 c 3
EndSplineSet
EndChar

StartChar: seven
Encoding: 55 55 27
Width: 1137
VWidth: 2045
Flags: W
HStem: 0 21G<364 521> 1314 136<354 1121>
VStem: 364 146<0 187.312>
LayerCount: 2
Fore
SplineSet
364 0 m 1
 395 168 503 682 1121 1314 c 1
 330 1314 l 1
 354 1450 l 1
 1302 1450 l 1
 1278 1314 l 1
 644 703 532 126 510 0 c 1
 364 0 l 1
EndSplineSet
EndChar

StartChar: eight
Encoding: 56 56 28
Width: 1137
VWidth: 2045
Flags: W
HStem: -12 136<420.753 767.921> 727 136<573.723 859.032> 1344 136<637.744 946.838>
VStem: 150 148<239.519 527.426> 331 149<950.426 1202.14> 982 150<315.548 608.571> 1040 149<1010.8 1258.04>
LayerCount: 2
Fore
SplineSet
717 863 m 259xfa
 571 863 480 967 480 1074 c 3
 480 1236 664 1344 802 1344 c 259
 925 1344 1040 1260 1040 1141 c 3
 1040 997 884 863 717 863 c 259xfa
587 124 m 259
 432 124 298 224 298 376 c 3
 298 571 494 727 693 727 c 259
 865 727 982 609 982 468 c 3xfc
 982 258 763 124 587 124 c 259
150 351 m 3
 150 163 280 -12 563 -12 c 3
 908 -12 1132 235 1132 512 c 3xfc
 1132 639 1078 759 913 804 c 1
 1084 863 1189 981 1189 1178 c 3xfa
 1189 1360 1053 1480 826 1480 c 0
 559 1480 331 1309 331 1040 c 3
 331 928 389 849 503 804 c 1
 264 744 150 556 150 351 c 3
EndSplineSet
EndChar

StartChar: nine
Encoding: 57 57 29
Width: 1137
VWidth: 2045
Flags: W
HStem: -12 136<450.081 766.779> 495 136<548.449 851.701> 1344 136<657.165 963.108>
VStem: 202 148<223.835 369> 277 150<754.773 1102.41> 1086 152<756.141 1219.77>
LayerCount: 2
Fore
SplineSet
810 1344 m 259xec
 638 1344 427 1161 427 920 c 3
 427 749 546 631 684 631 c 259
 883 631 1086 815 1086 1054 c 3
 1086 1211 986 1344 810 1344 c 259xec
571 -12 m 3
 339 -12 202 133 202 327 c 3
 202 341 203 355 204 369 c 9
 350 369 l 1xf4
 350 237 440 124 595 124 c 3
 871 124 1001 382 1059 713 c 1
 972 578 869 495 660 495 c 3
 433 495 277 645 277 878 c 3
 277 1243 553 1480 834 1480 c 3
 1080 1480 1238 1351 1238 1017 c 3
 1238 514 1029 -12 571 -12 c 3
EndSplineSet
EndChar

StartChar: colon
Encoding: 58 58 30
Width: 568
VWidth: 2045
Flags: W
HStem: 0 205<274 390> 856 204<425 541>
VStem: 238 339
DStem2: 238 0 390 0 0.173648 0.984808<26.3945 208.137 895.611 1076.37>
LayerCount: 2
Fore
SplineSet
389 856 m 1
 425 1060 l 1
 577 1060 l 1
 541 856 l 1
 389 856 l 1
238 0 m 1
 274 205 l 1
 426 205 l 1
 390 0 l 1
 238 0 l 1
EndSplineSet
EndChar

StartChar: semicolon
Encoding: 59 59 31
Width: 568
VWidth: 2045
Flags: W
HStem: 856 204<407 539>
VStem: 138 437
DStem2: 168.865 -290 336.865 -290 0.173648 0.984808<294.474 502.611 1192.86 1370.84>
LayerCount: 2
Fore
SplineSet
371 856 m 1
 407 1060 l 1
 575 1060 l 1
 539 856 l 1
 371 856 l 1
220 0 m 1
 256 205 l 1
 424 205 l 1
 388 0 l 2
 360 -159 280 -244 169 -290 c 1
 138 -221 l 1
 252 -173 282 -49 291 0 c 1
 220 0 l 1
EndSplineSet
EndChar

StartChar: less
Encoding: 60 60 32
Width: 1350
VWidth: 2045
Flags: W
DStem2: 447 723 291 663 0.898614 -0.438741<0 843.964> 312 785 447 723 0.924404 0.381416<101.147 1058.56>
LayerCount: 2
Fore
SplineSet
291 663 m 1
 312 785 l 1
 1359 1217 l 1
 1335 1081 l 1
 447 723 l 1
 1207 356 l 1
 1184 227 l 1
 291 663 l 1
EndSplineSet
EndChar

StartChar: equal
Encoding: 61 61 33
Width: 1350
VWidth: 2045
Flags: W
HStem: 437 136<290 1234> 877 136<368 1312>
LayerCount: 2
Fore
SplineSet
1312 877 m 1
 344 877 l 1
 368 1013 l 1
 1336 1013 l 1
 1312 877 l 1
1234 437 m 1
 266 437 l 1
 290 573 l 1
 1258 573 l 1
 1234 437 l 1
EndSplineSet
EndChar

StartChar: greater
Encoding: 62 62 34
Width: 1350
VWidth: 2045
Flags: W
DStem2: 251 356 229 227 0.923155 0.384428<0 959.924> 404 1217 379 1081 0.900198 -0.435482<36.7206 875.873>
LayerCount: 2
Fore
SplineSet
1276 663 m 1
 1297 785 l 1
 404 1217 l 1
 379 1081 l 1
 1138 723 l 1
 251 356 l 1
 229 227 l 1
 1276 663 l 1
EndSplineSet
EndChar

StartChar: question
Encoding: 63 63 35
Width: 1022
VWidth: 2045
Flags: W
HStem: 0 205<466 589> 1368 136<567.756 912.622>
VStem: 221 146<1045 1159.88> 1031 149<984.186 1254.66>
DStem2: 430 0 589 0 0.173648 0.984808<27.6101 208.137 393.024 578.512>
LayerCount: 2
Fore
SplineSet
776 1504 m 3
 1014 1504 1180 1369 1180 1160 c 3
 1180 720 723 798 646 361 c 9
 500 361 l 17
 582 824 1031 825 1031 1121 c 3
 1031 1230 943 1368 755 1368 c 3
 526 1368 396 1202 367 1045 c 1
 221 1045 l 1
 278 1299 492 1504 776 1504 c 3
430 0 m 1
 466 205 l 1
 625 205 l 1
 589 0 l 1
 430 0 l 1
EndSplineSet
EndChar

StartChar: at
Encoding: 64 64 36
Width: 1635
VWidth: 2045
Flags: W
HStem: -430 124<549.137 1205.65> -12 124<584.759 837.16 1132.18 1373.15> 961 124<829.132 1161.49> 1040 20G<1360.64 1509> 1369 124<874.044 1378.4>
VStem: -24 131<67.5983 601.998> 372 129<200.949 572.207> 1764 133<608.858 1032.56>
LayerCount: 2
Fore
SplineSet
372 336 m 3xdf
 372 743 730 1085 999 1085 c 3xef
 1134 1085 1257 1041 1318 938 c 1
 1369 1060 l 1
 1509 1060 l 1
 1204 257 l 2
 1187 213 1176 190 1176 167 c 3
 1176 137 1206 112 1243 112 c 3
 1555 112 1764 607 1764 825 c 3
 1764 1199 1413 1369 1137 1369 c 3
 677 1369 107 975 107 306 c 3
 107 -177 529 -306 879 -306 c 3
 1360 -306 1551 -102 1658 18 c 1
 1808 18 l 1
 1741 -83 1462 -430 853 -430 c 3
 422 -430 -24 -263 -24 268 c 3
 -24 1037 595 1493 1177 1493 c 3
 1541 1493 1897 1295 1897 872 c 3
 1897 536 1626 -12 1152 -12 c 3
 1087 -12 1008 0 1008 145 c 1
 891 46 771 -12 654 -12 c 3
 526 -12 372 89 372 336 c 3xdf
992 961 m 3
 739 961 501 636 501 361 c 3
 501 171 620 112 706 112 c 3
 999 112 1224 513 1224 763 c 3
 1224 882 1168 961 992 961 c 3
EndSplineSet
EndChar

StartChar: A
Encoding: 65 65 37
Width: 1364
VWidth: 2045
Flags: W
HStem: 0 21G<-3 170.563 1198.95 1366> 467 136<508 1051> 1430 20G<826.4 1005.05>
DStem2: -3 0 159 0 0.501718 0.865031<81.2783 620.712 777.992 1531.64> 1000 1450 886 1255 0.244738 -0.969589<161.17 833.724 974.154 1455.83>
LayerCount: 2
Fore
SplineSet
1051 603 m 1
 886 1255 l 1
 508 603 l 1
 1051 603 l 1
1086 467 m 1
 429 467 l 1
 159 0 l 1
 -3 0 l 1
 838 1450 l 1
 1000 1450 l 1
 1366 0 l 1
 1204 0 l 1
 1086 467 l 1
EndSplineSet
EndChar

StartChar: B
Encoding: 66 66 38
Width: 1364
VWidth: 2045
Flags: W
HStem: 0 136<335 1001.25> 687 136<456 1073.23> 1314 136<543 1151.63>
VStem: 1188 149<310.283 589.636> 1230 150<959.539 1243.63>
DStem2: 165 0 311.02 0 0.173648 0.984808<163.454 722.927 861.028 1359.68>
LayerCount: 2
Fore
SplineSet
753 0 m 2xf0
 165 0 l 1
 421 1450 l 1
 954 1450 l 2
 1317 1450 1380 1267 1380 1143 c 3xe8
 1380 1008 1324 865 1116 772 c 1
 1274 722 1337 607 1337 489 c 3
 1337 296 1194 0 753 0 c 2xf0
874 823 m 2
 1022 823 1230 884 1230 1118 c 3
 1230 1238 1156 1314 936 1314 c 2
 543 1314 l 1
 456 823 l 1
 874 823 l 2
1188 467 m 3xf0
 1188 624 1031 687 871 687 c 2
 432 687 l 1
 335 136 l 1
 802 136 l 2
 1097 136 1188 348 1188 467 c 3xf0
EndSplineSet
EndChar

StartChar: C
Encoding: 67 67 39
Width: 1477
VWidth: 2045
Flags: W
HStem: -12 136<591.608 1045.02> 1344 136<801.618 1228.51>
VStem: 215 150<352.605 862.037> 1411 146<1050 1173.91>
LayerCount: 2
Fore
SplineSet
809 124 m 3
 1084 124 1247 248 1335 480 c 1
 1481 480 l 1
 1378 206 1118 -12 815 -12 c 3
 401 -12 215 220 215 555 c 3
 215 1107 599 1480 1054 1480 c 3
 1361 1480 1528 1305 1557 1050 c 1
 1411 1050 l 1
 1377 1283 1174 1344 1027 1344 c 3
 652 1344 365 1034 365 582 c 3
 365 307 509 124 809 124 c 3
EndSplineSet
EndChar

StartChar: D
Encoding: 68 68 40
Width: 1477
VWidth: 2045
Flags: W
HStem: 0 136<338 962.708> 1314 136<546 1169.16>
VStem: 1379 150<611.696 1125.27>
DStem2: 168 0 314.02 0 0.173648 0.984808<163.454 1359.68>
LayerCount: 2
Fore
SplineSet
928 1450 m 2
 1385 1450 1529 1252 1529 957 c 3
 1529 441 1267 0 695 0 c 2
 168 0 l 1
 424 1450 l 1
 928 1450 l 2
338 136 m 1
 713 136 l 2
 1187 136 1379 526 1379 915 c 3
 1379 1146 1271 1314 917 1314 c 2
 546 1314 l 1
 338 136 l 1
EndSplineSet
EndChar

StartChar: E
Encoding: 69 69 41
Width: 1209
VWidth: 2045
Flags: W
HStem: 0 136<261 1151> 668 136<379 1068> 1314 136<469 1383>
DStem2: 91 0 237.02 0 0.173648 0.984808<163.454 703.695 841.796 1359.68>
LayerCount: 2
Fore
SplineSet
91 0 m 1
 347 1450 l 1
 1407 1450 l 1
 1383 1314 l 1
 469 1314 l 1
 379 804 l 1
 1092 804 l 1
 1068 668 l 1
 355 668 l 1
 261 136 l 1
 1175 136 l 1
 1151 0 l 1
 91 0 l 1
EndSplineSet
EndChar

StartChar: F
Encoding: 70 70 42
Width: 1137
VWidth: 2045
Flags: W
HStem: 0 21G<91 240.529> 663 136<378 1049> 1314 136<469 1311>
DStem2: 91 0 237 0 0.173648 0.984808<25.3526 698.597 836.698 1359.68>
LayerCount: 2
Fore
SplineSet
91 0 m 1
 347 1450 l 1
 1335 1450 l 1
 1311 1314 l 1
 469 1314 l 1
 378 799 l 1
 1073 799 l 1
 1049 663 l 1
 354 663 l 1
 237 0 l 1
 91 0 l 1
EndSplineSet
EndChar

StartChar: G
Encoding: 71 71 43
Width: 1590
VWidth: 2045
Flags: W
HStem: -12 136<632.462 1078.55> 1344 136<834.563 1281.73>
VStem: 262 149<359.506 852.971> 1457 146<1050 1184>
LayerCount: 2
Fore
SplineSet
411 587 m 3
 411 1027 688 1344 1064 1344 c 3
 1392 1344 1450 1135 1457 1050 c 1
 1603 1050 l 1
 1575 1304 1408 1480 1100 1480 c 3
 649 1480 262 1112 262 560 c 3
 262 205 470 -12 833 -12 c 3
 1205 -12 1478 191 1543 539 c 1
 1567 677 l 1
 1069 677 l 1
 1045 541 l 1
 1397 541 l 1
 1375 414 1245 124 837 124 c 3
 580 124 411 289 411 587 c 3
EndSplineSet
EndChar

StartChar: H
Encoding: 72 72 44
Width: 1477
VWidth: 2045
Flags: W
HStem: 0 21G<165 314.512 1167 1316.53> 689 136<456 1288> 1430 20G<417.469 567 1419.45 1569>
DStem2: 165 0 311 0 0.173648 0.984808<25.3526 724.897 862.998 1472.43> 1167 0 1313 0 0.173648 0.984808<25.3526 699.544 837.645 1472.43>
LayerCount: 2
Fore
SplineSet
165 0 m 1
 421 1450 l 1
 567 1450 l 1
 456 825 l 1
 1312 825 l 1
 1423 1450 l 1
 1569 1450 l 1
 1313 0 l 1
 1167 0 l 1
 1288 689 l 1
 432 689 l 1
 311 0 l 1
 165 0 l 1
EndSplineSet
EndChar

StartChar: I
Encoding: 73 73 45
Width: 568
VWidth: 2045
Flags: W
HStem: 0 21G<223 372.531> 1430 20G<475.469 625>
VStem: 223 402
DStem2: 223 0 369 0 0.173648 0.984808<25.3526 1472.43>
LayerCount: 2
Fore
SplineSet
223 0 m 1
 479 1450 l 1
 625 1450 l 1
 369 0 l 1
 223 0 l 1
EndSplineSet
EndChar

StartChar: J
Encoding: 74 74 46
Width: 1022
VWidth: 2045
Flags: W
HStem: -12 136<345.616 651.784> 1430 20G<970.459 1120>
VStem: 132 148<192.842 452>
DStem2: 715.472 -12 862.008 -12 0.173648 0.984808<233.432 1484.68>
LayerCount: 2
Fore
SplineSet
974 1450 m 17
 1120 1450 l 1
 944 453 l 2
 898 190 776 -12 461 -12 c 3
 181 -12 132 186 132 327 c 3
 132 383 140 429 144 452 c 1
 290 452 l 17
 284 416 280 381 280 349 c 3
 280 212 342 124 482 124 c 3
 665 124 758 230 789 405 c 10
 974 1450 l 17
EndSplineSet
EndChar

StartChar: K
Encoding: 75 75 47
Width: 1364
VWidth: 2045
Flags: W
HStem: 0 21G<149 298.521 1150.31 1345> 1430 20G<401.469 551 1354.38 1570>
DStem2: 149 0 295 0 0.173648 0.984808<25.3526 602.088 767.648 1472.43> 424 731 395 568 0.799755 0.600327<0 163.354 303.954 1197> 735 823 623 738 0.595461 -0.803384<1.59603 917.233>
LayerCount: 2
Fore
SplineSet
149 0 m 1
 405 1450 l 1
 551 1450 l 1
 424 731 l 1
 1381 1450 l 1
 1570 1450 l 1
 735 823 l 1
 1345 0 l 1
 1165 0 l 1
 623 738 l 1
 395 568 l 1
 295 0 l 1
 149 0 l 1
EndSplineSet
EndChar

StartChar: L
Encoding: 76 76 48
Width: 1137
VWidth: 2045
Flags: W
HStem: 0 136<319 1058> 1430 20G<401.469 551>
DStem2: 149 0 295.02 0 0.173648 0.984808<163.454 1472.43>
LayerCount: 2
Fore
SplineSet
149 0 m 1
 405 1450 l 1
 551 1450 l 1
 319 136 l 1
 1082 136 l 1
 1058 0 l 1
 149 0 l 1
EndSplineSet
EndChar

StartChar: M
Encoding: 77 77 49
Width: 1702
VWidth: 2045
Flags: W
HStem: 0 21G<152 301.528 790.83 915.262 1403 1552.53> 1430 20G<404.469 559.023 1646.94 1805>
DStem2: 152 0 298 0 0.173648 0.984808<25.3526 1188.03> 554 1450 500 1145 0.243594 -0.969877<282.659 1334.19> 879 156 903 0 0.516247 0.85644<0 1221.81> 1403 0 1549 0 0.173648 0.984808<25.3526 1162.68>
LayerCount: 2
Fore
SplineSet
152 0 m 1
 408 1450 l 1
 554 1450 l 1
 879 156 l 1
 1659 1450 l 1
 1805 1450 l 1
 1549 0 l 1
 1403 0 l 1
 1605 1145 l 1
 903 0 l 1
 796 0 l 1
 500 1145 l 1
 298 0 l 1
 152 0 l 1
EndSplineSet
EndChar

StartChar: N
Encoding: 78 78 50
Width: 1477
VWidth: 2045
Flags: W
HStem: 0 21G<156 305.527 1152.66 1312.53> 1430 20G<408.469 568.338 1415.47 1565>
DStem2: 156 0 302 0 0.173648 0.984808<25.3526 1286.51> 558 1450 521 1242 0.459189 -0.888338<167.784 1398.12> 1163.32 0 1309 0 0.173648 0.984808<211.209 1472.37>
LayerCount: 2
Fore
SplineSet
156 0 m 1
 412 1450 l 1
 558 1450 l 1
 1200 208 l 1
 1419 1450 l 1
 1565 1450 l 1
 1309 0 l 1
 1163 0 l 1
 521 1242 l 1
 302 0 l 1
 156 0 l 1
EndSplineSet
EndChar

StartChar: O
Encoding: 79 79 51
Width: 1590
VWidth: 2045
Flags: W
HStem: -12 136<622.285 1025.43> 1344 136<831.473 1234.58>
VStem: 213 150<394.683 856.482> 1493 150<612.418 1073.96>
LayerCount: 2
Fore
SplineSet
1060 1480 m 259
 1415 1480 1643 1258 1643 901 c 3
 1643 350 1239 -12 797 -12 c 259
 442 -12 213 211 213 568 c 3
 213 1119 618 1480 1060 1480 c 259
1036 1344 m 259
 717 1344 363 1038 363 614 c 3
 363 324 560 124 821 124 c 259
 1140 124 1493 431 1493 855 c 3
 1493 1144 1297 1344 1036 1344 c 259
EndSplineSet
EndChar

StartChar: P
Encoding: 80 80 52
Width: 1248
VWidth: 2045
Flags: W
HStem: 0 21G<88 237.517> 580 136<360 1022.84> 1314 136<466 1126.16>
VStem: 1248 150<917.822 1211.47>
DStem2: 88 0 234 0 0.173648 0.984808<25.3526 614.253 752.355 1359.68>
LayerCount: 2
Fore
SplineSet
88 0 m 1
 344 1450 l 1
 928 1450 l 2
 1085 1450 1398 1440 1398 1128 c 3
 1398 803 1183 580 761 580 c 2
 336 580 l 1
 234 0 l 1
 88 0 l 1
788 716 m 2
 1148 716 1248 933 1248 1089 c 3
 1248 1193 1184 1314 891 1314 c 2
 466 1314 l 1
 360 716 l 1
 788 716 l 2
EndSplineSet
EndChar

StartChar: Q
Encoding: 81 81 53
Width: 1590
VWidth: 2045
Flags: W
HStem: -12 136<604.81 1017.51 1308.38 1556.82> 341 136<706.992 1027.09> 1344 136<813.473 1216.58>
VStem: 195 150<394.81 856.482> 1475 150<607.617 1073.96>
LayerCount: 2
Fore
SplineSet
1414 124 m 3
 1485 124 1551 156 1586 194 c 1
 1648 79 l 1
 1582 18 1495 -12 1385 -12 c 3
 1268 -12 1215 34 1177 92 c 1
 1058 25 923 -12 779 -12 c 3
 424 -12 195 211 195 568 c 3
 195 1119 600 1480 1042 1480 c 3
 1397 1480 1625 1258 1625 901 c 3
 1625 577 1484 331 1301 177 c 1
 1326 145 1360 124 1414 124 c 3
1018 1344 m 3
 699 1344 345 1038 345 614 c 3
 345 465 398 340 484 253 c 1
 563 364 718 477 865 477 c 3
 1092 477 1176 391 1228 303 c 1
 1366 430 1475 613 1475 855 c 3
 1475 1144 1279 1344 1018 1344 c 3
1109 214 m 1
 1065 283 999 341 841 341 c 3
 741 341 635 258 580 180 c 1
 646 144 721 124 803 124 c 3
 908 124 1013 157 1109 214 c 1
EndSplineSet
EndChar

StartChar: R
Encoding: 82 82 54
Width: 1364
VWidth: 2045
Flags: W
HStem: 0 21G<98 247.517 1155.83 1325> 580 136<370 815> 1314 136<476 1132.93>
VStem: 1253 153<906.51 1213.28>
DStem2: 98 0 244 0 0.173648 0.984808<25.3526 614.253 752.355 1359.68> 968 595 815 580 0.514496 -0.857493<0 613.107>
LayerCount: 2
Fore
SplineSet
968 595 m 1
 1325 0 l 1
 1168 0 l 1
 815 580 l 1
 346 580 l 1
 244 0 l 1
 98 0 l 1
 354 1450 l 1
 939 1450 l 2
 1311 1450 1406 1295 1406 1129 c 3
 1406 812 1192 642 968 595 c 1
826 716 m 2
 1102 716 1253 846 1253 1075 c 3
 1253 1186 1189 1314 927 1314 c 2
 476 1314 l 1
 370 716 l 1
 826 716 l 2
EndSplineSet
EndChar

StartChar: S
Encoding: 83 83 55
Width: 1248
VWidth: 2045
Flags: W
HStem: -12 136<437.414 934.93> 1344 136<618.638 1054.21>
VStem: 125 148<265.684 501> 285 150<951.905 1187.4> 1142 150<301.617 545.736> 1203 149<1018 1207.14>
LayerCount: 2
Fore
SplineSet
862 1344 m 3xf8
 1061 1344 1203 1242 1203 1048 c 3
 1203 1038 1203 1028 1202 1018 c 9
 1348 1018 l 1
 1351 1040 1352 1062 1352 1083 c 3xf4
 1352 1341 1150 1480 867 1480 c 3
 491 1480 285 1229 285 1013 c 3
 285 823 483 731 713 689 c 0
 1052 627 1142 542 1142 445 c 3
 1142 320 1034 124 684 124 c 3
 348 124 273 285 273 425 c 3
 273 452 276 477 280 501 c 9
 134 501 l 17
 128 469 125 434 125 399 c 3
 125 208 230 -12 687 -12 c 3
 1120 -12 1292 294 1292 473 c 3
 1292 600 1193 759 764 835 c 0
 600 864 435 923 435 1050 c 3
 435 1179 539 1344 862 1344 c 3xf8
EndSplineSet
EndChar

StartChar: T
Encoding: 84 84 56
Width: 1137
VWidth: 2045
Flags: W
HStem: 0 21G<494 643.531> 1314 136<274 726 872 1351>
DStem2: 494 0 640 0 0.173648 0.984808<25.3526 1334.32>
LayerCount: 2
Fore
SplineSet
494 0 m 1
 726 1314 l 1
 250 1314 l 1
 274 1450 l 1
 1375 1450 l 1
 1351 1314 l 1
 872 1314 l 1
 640 0 l 1
 494 0 l 1
EndSplineSet
EndChar

StartChar: U
Encoding: 85 85 57
Width: 1477
VWidth: 2045
Flags: W
HStem: -12 136<546.012 989.512> 1430 20G<414.471 564 1419.46 1569>
VStem: 246 150<266.106 718.766>
DStem2: 160.083 -12 305.73 -12 0.173648 0.984808<491.75 1484.58> 1164.73 -12 1311.08 -12 0.173648 0.984808<345.74 1484.64>
LayerCount: 2
Fore
SplineSet
760 124 m 3
 984 124 1205 218 1267 568 c 2
 1423 1450 l 1
 1569 1450 l 1
 1413 566 l 2
 1331 103 1042 -12 736 -12 c 3
 470 -12 246 75 246 402 c 3
 246 451 251 506 262 566 c 2
 418 1450 l 1
 564 1450 l 1
 408 568 l 2
 400 522 396 481 396 444 c 3
 396 195 565 124 760 124 c 3
EndSplineSet
EndChar

StartChar: V
Encoding: 86 86 58
Width: 1248
VWidth: 2045
Flags: W
HStem: 0 21G<556.917 694.228> 1430 20G<265 424.88 1342.73 1497>
DStem2: 421 1450 265 1450 0.200013 -0.979793<0 1254.91> 660 218 683 0 0.489519 0.871993<0 1414.02>
LayerCount: 2
Fore
SplineSet
561 0 m 1
 265 1450 l 1
 421 1450 l 1
 660 218 l 1
 1354 1450 l 1
 1497 1450 l 1
 683 0 l 1
 561 0 l 1
EndSplineSet
EndChar

StartChar: W
Encoding: 87 87 59
Width: 1818
VWidth: 2045
Flags: W
HStem: 0 21G<433.848 582.194 1259.98 1408.99> 1430 20G<280 429.023 1103.83 1254.06 1897.39 2052>
DStem2: 427 1450 280 1450 0.106969 -0.994262<0 1232.23> 551 224 573 0 0.417698 0.908586<0 1158.32> 1252 1450 1138 1229 0.100385 -0.994949<208.44 1232.46> 1378 224 1400 0 0.410103 0.912039<0 1334.69>
LayerCount: 2
Fore
SplineSet
436 0 m 1
 280 1450 l 1
 427 1450 l 1
 551 224 l 1
 1113 1450 l 1
 1252 1450 l 1
 1378 224 l 1
 1906 1450 l 1
 2052 1450 l 1
 1400 0 l 1
 1262 0 l 1
 1138 1229 l 1
 573 0 l 1
 436 0 l 1
EndSplineSet
EndChar

StartChar: X
Encoding: 88 88 60
Width: 1248
VWidth: 2045
Flags: W
HStem: 0 21G<9 203.445 1058.59 1244> 1430 20G<332 518.057 1266.96 1460>
DStem2: 9 0 186 0 0.660336 0.75097<116.879 958.16 1150.63 1930.84> 509 1450 332 1450 0.446336 -0.894865<0 651.614 874.477 1547.5>
LayerCount: 2
Fore
SplineSet
9 0 m 1
 670 740 l 1
 332 1450 l 1
 509 1450 l 1
 778 856 l 1
 1284 1450 l 1
 1460 1450 l 1
 843 740 l 1
 1244 0 l 1
 1069 0 l 1
 739 634 l 1
 186 0 l 1
 9 0 l 1
EndSplineSet
EndChar

StartChar: Y
Encoding: 89 89 61
Width: 1248
VWidth: 2045
Flags: W
HStem: 0 21G<542 691.51> 1430 20G<262 448.206 1305.72 1497>
DStem2: 439 1450 262 1450 0.424798 -0.905288<0 762.875> 542 0 688 0 0.173648 0.984808<25.3526 630.493> 758 757 797 621 0.645157 0.76405<0 893.355>
LayerCount: 2
Fore
SplineSet
542 0 m 1
 651 621 l 1
 262 1450 l 1
 439 1450 l 1
 758 757 l 1
 1322 1450 l 1
 1497 1450 l 1
 797 621 l 1
 688 0 l 1
 542 0 l 1
EndSplineSet
EndChar

StartChar: Z
Encoding: 90 90 62
Width: 1248
VWidth: 2045
Flags: W
HStem: 0 136<257 1198> 1314 136<302 1267>
LayerCount: 2
Fore
SplineSet
41 0 m 1
 66 144 l 1
 1267 1314 l 1
 278 1314 l 1
 302 1450 l 1
 1468 1450 l 1
 1444 1314 l 1
 257 136 l 1
 1222 136 l 1
 1198 0 l 1
 41 0 l 1
EndSplineSet
EndChar

StartChar: bracketleft
Encoding: 91 91 63
Width: 681
VWidth: 2045
Flags: W
HStem: -408 136<237 463> 1329 136<519 769>
DStem2: 67 -408 213.02 -408 0.173648 0.984808<163.454 1789.1>
LayerCount: 2
Fore
SplineSet
67 -408 m 1
 397 1465 l 1
 793 1465 l 1
 769 1329 l 1
 519 1329 l 1
 237 -272 l 1
 487 -272 l 1
 463 -408 l 1
 67 -408 l 1
EndSplineSet
EndChar

StartChar: backslash
Encoding: 92 92 64
Width: 568
VWidth: 2045
Flags: W
VStem: 263 264
DStem2: 370 1489 263 1489 0.103213 -0.994659<0 1510.08>
LayerCount: 2
Fore
SplineSet
420 -24 m 1
 263 1489 l 1
 370 1489 l 1
 527 -24 l 1
 420 -24 l 1
EndSplineSet
EndChar

StartChar: bracketright
Encoding: 93 93 65
Width: 681
VWidth: 2045
Flags: W
HStem: -408 136<98 348> 1329 136<404 630>
DStem2: 324.02 -408 470 -408 0.173648 0.984808<138.098 1763.74>
LayerCount: 2
Fore
SplineSet
470 -408 m 1
 74 -408 l 1
 98 -272 l 1
 348 -272 l 1
 630 1329 l 1
 380 1329 l 1
 404 1465 l 1
 800 1465 l 1
 470 -408 l 1
EndSplineSet
EndChar

StartChar: asciicircum
Encoding: 94 94 66
Width: 1350
VWidth: 2045
Flags: W
DStem2: 359 689 496 689 0.523385 0.852096<71.7037 857.659>
LayerCount: 2
Fore
SplineSet
496 689 m 1
 359 689 l 1
 851 1490 l 1
 998 1490 l 1
 1210 689 l 1
 1066 689 l 1
 902 1362 l 1
 496 689 l 1
EndSplineSet
EndChar

StartChar: underscore
Encoding: 95 95 67
Width: 1022
VWidth: 2045
Flags: W
HStem: -408 94<-85 983>
LayerCount: 2
Fore
SplineSet
-102 -408 m 1
 -85 -314 l 1
 1000 -314 l 1
 983 -408 l 1
 -102 -408 l 1
EndSplineSet
EndChar

StartChar: grave
Encoding: 96 96 68
Width: 681
VWidth: 2045
Flags: W
HStem: 1193 281<576 597>
VStem: 394 289
LayerCount: 2
Fore
SplineSet
683 1193 m 1
 576 1193 l 1
 394 1474 l 1
 597 1474 l 1
 683 1193 l 1
EndSplineSet
EndChar

StartChar: a
Encoding: 97 97 69
Width: 1137
VWidth: 2045
Flags: W
HStem: -12 124<311.947 704.949> 961 124<523.553 928.527>
VStem: 121 129<168.723 375.078> 888 139<1.56889 260.912> 1003 130<596.046 895.069>
DStem2: 865.363 -12 991.419 -12 0.173648 0.984808<281.648 586.868 664.815 815.177>
LayerCount: 2
Fore
SplineSet
362 739 m 1xe8
 424 875 532 961 724 961 c 3
 905 961 1003 899 1003 792 c 3xe8
 1003 781 1002 769 1000 757 c 2
 986 675 l 2
 982 652 875 633 656 609 c 0
 306 571 121 464 121 230 c 3
 121 73 243 -12 434 -12 c 3
 623 -12 794 52 890 131 c 1
 889 118 888 106 888 94 c 3
 888 58 893 27 902 0 c 1
 1052 0 l 1
 1035 40 1027 72 1027 120 c 3xf0
 1027 183 1041 273 1072 445 c 2
 1115 687 l 2
 1125 741 1133 795 1133 845 c 3
 1133 981 1068 1085 773 1085 c 3
 494 1085 329 986 239 759 c 1
 362 739 l 1xe8
502 112 m 3
 390 112 250 147 250 260 c 3
 250 436 475 489 642 504 c 0
 741 513 850 533 967 566 c 1
 950 468 l 2
 905 214 728 112 502 112 c 3
EndSplineSet
EndChar

StartChar: b
Encoding: 98 98 70
Width: 1248
VWidth: 2045
Flags: W
HStem: -12 124<492.708 813.421> 961 124<632.521 953.425> 1444 20G<425.48 556>
VStem: 1070 130<412.588 839.75>
DStem2: 169.237 -12 296.237 -12 0.173648 0.984808<32.2076 178.361 461.185 819.881 966.362 1498.68>
LayerCount: 2
Fore
SplineSet
648 112 m 259
 875 112 1070 342 1070 647 c 3
 1070 796 1012 961 797 961 c 256
 631 961 445 832 393 538 c 256
 386 496 382 455 382 417 c 0
 382 241 462 112 648 112 c 259
618 -12 m 3
 412 -12 328 129 323 142 c 1
 298 -2 l 1
 171 -2 l 1
 429 1464 l 1
 556 1464 l 1
 460 918 l 1
 558 1027 682 1085 833 1085 c 3
 1086 1085 1200 905 1200 677 c 3
 1200 272 937 -12 618 -12 c 3
EndSplineSet
EndChar

StartChar: c
Encoding: 99 99 71
Width: 1137
VWidth: 2045
Flags: W
HStem: -12 124<426.49 795.392> 961 124<567.828 925.06>
VStem: 177 128<235.827 668.987> 962 127<285.07 402> 1014 133<695 872.698>
LayerCount: 2
Fore
SplineSet
1089 402 m 1xf0
 1052 190 868 -12 592 -12 c 3
 349 -12 177 137 177 403 c 3
 177 823 453 1085 770 1085 c 3
 1067 1085 1147 916 1147 770 c 3
 1147 744 1144 718 1140 695 c 1
 1014 695 l 1xe8
 1014 839 967 961 754 961 c 3
 497 961 305 750 305 417 c 3
 305 211 424 112 596 112 c 3
 836 112 919 234 962 402 c 1
 1089 402 l 1xf0
EndSplineSet
EndChar

StartChar: d
Encoding: 100 100 72
Width: 1248
VWidth: 2045
Flags: W
HStem: -12 124<486.969 807.107> 961 124<618.117 940.374>
VStem: 238 130<242.084 662.518>
DStem2: 943.884 -12 1070.88 -12 0.173648 0.984808<34.2384 158.339 303.941 677.869 946.339 1499.73>
LayerCount: 2
Fore
SplineSet
636 112 m 259
 464 112 368 243 368 430 c 3
 368 649 499 961 785 961 c 259
 947 961 1052 859 1052 659 c 3
 1052 622 1049 581 1041 537 c 256
 980 192 771 112 636 112 c 259
238 393 m 3
 238 143 369 -12 631 -12 c 3
 838 -12 962 131 971 144 c 1
 946 0 l 1
 1073 0 l 1
 1331 1465 l 1
 1204 1465 l 1
 1108 920 l 1
 1050 1029 947 1085 795 1085 c 3
 415 1085 238 708 238 393 c 3
EndSplineSet
EndChar

StartChar: e
Encoding: 101 101 73
Width: 1137
VWidth: 2045
Flags: W
HStem: -12 124<409.005 798.591> 494 124<325 1026.74> 961 124<557.566 919.384>
VStem: 152 138<223.308 485.155> 1027 129<619.839 854.328>
LayerCount: 2
Fore
SplineSet
761 1085 m 3
 1010 1085 1156 951 1156 673 c 3
 1156 619 1150 559 1139 494 c 1
 300 494 l 1
 294 459 290 423 290 389 c 3
 290 239 362 112 602 112 c 3
 720 112 869 148 973 329 c 1
 1104 329 l 1
 977 -6 645 -12 577 -12 c 3
 244 -12 152 176 152 375 c 3
 152 830 450 1085 761 1085 c 3
1024 618 m 1
 1026 640 1027 661 1027 680 c 3
 1027 912 879 961 742 961 c 3
 567 961 372 850 325 618 c 1
 1024 618 l 1
EndSplineSet
EndChar

StartChar: f
Encoding: 102 102 74
Width: 568
VWidth: 2045
Flags: W
HStem: 0 21G<177 307.526> 936 124<205 342 491 700> 1391 124<612.018 884.187>
DStem2: 177 0 304 0 0.173648 0.984808<22.0533 950.432 1098.42 1368.7>
LayerCount: 2
Fore
SplineSet
745 1391 m 3
 696 1391 544 1366 510 1170 c 2
 491 1060 l 1
 722 1060 l 1
 700 936 l 1
 469 936 l 1
 304 0 l 1
 177 0 l 1
 342 936 l 1
 183 936 l 1
 205 1060 l 1
 364 1060 l 1
 384 1175 l 2
 432 1447 620 1515 753 1515 c 3
 804 1515 854 1506 902 1488 c 1
 880 1363 l 1
 830 1382 786 1391 745 1391 c 3
EndSplineSet
EndChar

StartChar: g
Encoding: 103 103 75
Width: 1248
VWidth: 2045
Flags: W
HStem: -435 124<369.363 754.732> -12 124<480.519 799.684> 961 124<615.49 935.323>
VStem: 167 132<-245.643 -74> 232 129<240.451 661.583>
DStem2: 882.73 -435 1008.85 -435 0.173648 0.984808<291.931 631.525 746.951 1090.46 1387.95 1518>
LayerCount: 2
Fore
SplineSet
634 112 m 259xe8
 447 112 361 253 361 431 c 3
 361 706 535 961 783 961 c 259
 954 961 1063 836 1063 642 c 0
 1063 610 1060 576 1054 540 c 256
 994 198 759 112 634 112 c 259xe8
549 -311 m 3
 380 -311 299 -249 299 -107 c 3
 299 -96 299 -86 300 -74 c 9
 173 -74 l 1
 170 -94 167 -116 167 -141 c 3xf0
 167 -266 230 -435 540 -435 c 3
 949 -435 1053 -185 1109 133 c 2
 1273 1060 l 1
 1146 1060 l 1
 1123 932 l 1
 1066 1027 970 1085 807 1085 c 3
 479 1085 232 790 232 406 c 3
 232 171 354 -12 591 -12 c 3
 751 -12 892 55 992 187 c 1
 985 145 l 2
 937 -141 829 -311 549 -311 c 3
EndSplineSet
EndChar

StartChar: h
Encoding: 104 104 76
Width: 1137
VWidth: 2045
Flags: W
HStem: 0 21G<134 264.533 873 1003.52> 961 124<602.391 927.802> 1445 20G<388.478 519>
VStem: 998 128<467.93 892.096>
DStem2: 134 0 261 0 0.173648 0.984808<22.0533 827.24 935.99 1487.54> 873 0 1000 0 0.173648 0.984808<22.0533 760.139>
LayerCount: 2
Fore
SplineSet
990 666 m 2
 995 697 998 726 998 751 c 3
 998 916 889 961 764 961 c 3
 475 961 381 679 373 634 c 2
 261 0 l 1
 134 0 l 1
 392 1465 l 1
 519 1465 l 1
 420 900 l 1
 557 1070 737 1085 790 1085 c 3
 1053 1085 1126 925 1126 767 c 3
 1126 732 1123 698 1117 665 c 2
 1000 0 l 1
 873 0 l 1
 990 666 l 2
EndSplineSet
EndChar

StartChar: i
Encoding: 105 105 77
Width: 454
VWidth: 2045
Flags: W
HStem: 0 21G<159 289.528> 1040 20G<342.472 473> 1258 207<417 508>
VStem: 159 385
DStem2: 159 0 286 0 0.173648 0.984808<22.0533 1076.37 1299.49 1487.54>
LayerCount: 2
Fore
SplineSet
381 1258 m 1
 417 1465 l 1
 544 1465 l 1
 508 1258 l 1
 381 1258 l 1
159 0 m 1
 346 1060 l 1
 473 1060 l 1
 286 0 l 1
 159 0 l 1
EndSplineSet
EndChar

StartChar: j
Encoding: 106 106 78
Width: 454
VWidth: 2045
Flags: W
HStem: -429 124<-150.229 77.5933> 1040 20G<371.463 502> 1258 207<446 537>
DStem2: 111.877 -429 239.406 -429 0.173648 0.984808<183.677 1512.07 1735.19 1923.25>
LayerCount: 2
Fore
SplineSet
410 1258 m 1
 446 1465 l 1
 573 1465 l 1
 537 1258 l 1
 410 1258 l 1
305 -57 m 2
 271 -250 184 -429 -36 -429 c 3
 -77 -429 -120 -423 -167 -411 c 1
 -147 -296 l 1
 -91 -305 -71 -305 -51 -305 c 3
 5 -305 135 -298 178 -54 c 2
 375 1060 l 1
 502 1060 l 1
 305 -57 l 2
EndSplineSet
EndChar

StartChar: k
Encoding: 107 107 79
Width: 1022
VWidth: 2045
Flags: W
HStem: 0 21G<136 266.545 858.547 1015> 1040 20G<984.256 1161> 1445 20G<390.478 521>
DStem2: 136 0 263 0 0.173648 0.984808<22.0533 405.945 563.279 1487.54> 357 533 330 378 0.773003 0.634402<0 189.887 317.167 838.328> 668 654 569 574 0.468694 -0.88336<24.2681 671.925>
LayerCount: 2
Fore
SplineSet
136 0 m 1
 394 1465 l 1
 521 1465 l 1
 357 533 l 1
 1009 1060 l 1
 1161 1060 l 1
 668 654 l 1
 1015 0 l 1
 869 0 l 1
 569 574 l 1
 330 378 l 1
 263 0 l 1
 136 0 l 1
EndSplineSet
EndChar

StartChar: l
Encoding: 108 108 80
Width: 454
VWidth: 2045
Flags: W
HStem: 0 21G<162 292.522> 1445 20G<416.478 547>
VStem: 162 385
DStem2: 162 0 289 0 0.173648 0.984808<22.0533 1487.54>
LayerCount: 2
Fore
SplineSet
162 0 m 1
 420 1465 l 1
 547 1465 l 1
 289 0 l 1
 162 0 l 1
EndSplineSet
EndChar

StartChar: m
Encoding: 109 109 81
Width: 1702
VWidth: 2045
Flags: W
HStem: 961 124<609.953 879.886 1243.26 1528.64>
VStem: 1575 136<652.372 728 782 915.112>
DStem2: 134 0 261 0 0.173648 0.984808<22.0533 830.27 905.404 1078.34> 790 0 917 0 0.173648 0.984808<22.0533 797.214> 1446 0 1573 0 0.173648 0.984808<22.0533 790.946>
LayerCount: 2
Fore
SplineSet
1372 961 m 3
 1514 961 1575 913 1575 782 c 3
 1575 748 1571 708 1563 662 c 2
 1446 0 l 1
 1573 0 l 1
 1701 728 l 2
 1708 766 1711 800 1711 831 c 3
 1711 1014 1599 1085 1434 1085 c 3
 1333 1085 1194 1059 1059 876 c 1
 1045 976 980 1085 807 1085 c 3
 657 1085 546 1033 414 870 c 1
 448 1062 l 1
 321 1062 l 1
 134 0 l 1
 261 0 l 1
 362 574 l 2
 415 875 618 961 744 961 c 3
 848 961 920 926 920 788 c 3
 920 758 917 723 910 683 c 2
 790 0 l 1
 917 0 l 1
 1025 610 l 2
 1075 892 1289 961 1372 961 c 3
EndSplineSet
EndChar

StartChar: n
Encoding: 110 110 82
Width: 1137
VWidth: 2045
Flags: W
HStem: 0 21G<134 264.534 873 1003.52> 961 124<590.665 922.746> 1043 20G<317.482 448>
VStem: 995 132<467.32 889.811>
DStem2: 134 0 261 0 0.173648 0.984808<22.0533 805.009 920.697 1079.32> 873 0 1000 0 0.173648 0.984808<22.0533 746.449>
LayerCount: 2
Fore
SplineSet
985 636 m 2xd0
 991 671 995 705 995 738 c 3
 995 864 940 961 764 961 c 3xd0
 498 961 387 711 355 532 c 2
 261 0 l 1
 134 0 l 1
 321 1063 l 1
 448 1063 l 1xb0
 417 885 l 1
 540 1062 676 1085 790 1085 c 3
 1063 1085 1127 921 1127 772 c 3
 1127 734 1123 698 1117 665 c 2
 1000 0 l 1
 873 0 l 1
 985 636 l 2xd0
EndSplineSet
EndChar

StartChar: o
Encoding: 111 111 83
Width: 1137
VWidth: 2045
Flags: W
HStem: -12 124<413.269 768.93> 961 124<548.481 903.293>
VStem: 148 130<246.121 663.305> 1038 129<411.631 826.445>
LayerCount: 2
Fore
SplineSet
278 430 m 3
 278 242 381 112 584 112 c 259
 847 112 1038 339 1038 641 c 3
 1038 830 936 961 733 961 c 259
 471 961 278 732 278 430 c 3
755 1085 m 3
 1016 1085 1167 934 1167 672 c 3
 1167 242 901 -12 562 -12 c 3
 300 -12 148 129 148 389 c 3
 148 818 418 1085 755 1085 c 3
EndSplineSet
EndChar

StartChar: p
Encoding: 112 112 84
Width: 1248
VWidth: 2045
Flags: W
HStem: -12 124<490.122 814.457> 961 124<615.203 936.906>
VStem: 1058 129<406.565 831.823>
DStem2: 93 -390 220 -390 0.173648 0.984808<22.0533 576.602 848.965 1216.62 1364.43 1487.72>
LayerCount: 2
Fore
SplineSet
788 961 m 259
 653 961 444 881 384 538 c 256
 377 496 373 457 373 421 c 0
 373 223 479 112 639 112 c 259
 941 112 1058 421 1058 651 c 3
 1058 870 923 961 788 961 c 259
629 -12 m 3
 478 -12 376 46 317 156 c 1
 220 -390 l 1
 93 -390 l 1
 352 1075 l 1
 479 1075 l 1
 453 932 l 1
 466 943 577 1085 792 1085 c 3
 1054 1085 1187 931 1187 681 c 3
 1187 299 962 -12 629 -12 c 3
EndSplineSet
EndChar

StartChar: q
Encoding: 113 113 85
Width: 1248
VWidth: 2045
Flags: W
HStem: -12 124<489.015 812.57> 961 124<638.04 949.666>
VStem: 244 131<232.193 663.224>
DStem2: 887 -390 1014 -390 0.173648 0.984808<22.0533 554.549 703.113 1065.85 1342.38 1487.72>
LayerCount: 2
Fore
SplineSet
794 961 m 259
 637 961 375 795 375 428 c 3
 375 280 431 112 645 112 c 259
 834 112 1003 266 1051 538 c 256
 1059 584 1063 626 1063 663 c 0
 1063 900 912 961 794 961 c 259
834 1085 m 3
 1049 1085 1111 943 1120 932 c 1
 1146 1075 l 1
 1273 1075 l 1
 1014 -390 l 1
 887 -390 l 1
 984 156 l 1
 887 46 762 -12 611 -12 c 3
 322 -12 244 202 244 395 c 3
 244 806 496 1085 834 1085 c 3
EndSplineSet
EndChar

StartChar: r
Encoding: 114 114 86
Width: 681
VWidth: 2045
Flags: W
HStem: 0 21G<133 263.525> 952 110<536.883 843.437>
DStem2: 133 0 260 0 0.173648 0.984808<22.0533 854.412 954.238 1078.34>
LayerCount: 2
Fore
SplineSet
422 918 m 1
 545 1054 649 1076 729 1076 c 3
 792 1076 845 1060 890 1027 c 1
 819 906 l 1
 762 937 718 952 686 952 c 3
 514 952 405 820 358 556 c 2
 260 0 l 1
 133 0 l 1
 320 1062 l 1
 447 1062 l 1
 422 918 l 1
EndSplineSet
EndChar

StartChar: s
Encoding: 115 115 87
Width: 1022
VWidth: 2045
Flags: W
HStem: -12 124<341.318 739.028> 492 124<427.293 792.009> 961 124<454.388 848.947>
VStem: 120 131<194.399 358> 224 134<679.203 880.15> 873 133<222.135 425.669> 914 129<764 899.462>
LayerCount: 2
Fore
SplineSet
661 1085 m 3xea
 466 1085 224 965 224 719 c 3xea
 224 545 398 500 608 492 c 256
 769 486 873 428 873 331 c 3
 873 171 670 112 516 112 c 3
 354 112 251 189 251 319 c 3
 251 331 252 345 254 358 c 257
 127 358 l 257
 122 332 120 308 120 286 c 3
 120 50 357 -12 532 -12 c 3
 729 -12 1006 116 1006 378 c 3xf4
 1006 558 820 609 626 616 c 256
 410 624 358 700 358 769 c 3
 358 858 427 961 674 961 c 259
 869 961 914 863 914 792 c 3
 914 782 913 773 912 764 c 257
 1039 764 l 257
 1041 777 1043 794 1043 813 c 3
 1043 916 989 1085 661 1085 c 3xea
EndSplineSet
EndChar

StartChar: t
Encoding: 116 116 88
Width: 568
VWidth: 2045
Flags: W
HStem: -12 124<347.573 552.974> 936 124<205 332 481 662>
VStem: 207 130<123.159 477.75>
DStem2: 165.046 -12 291.694 -12 0.173648 0.984808<246.785 962.589 1110.58 1466.33>
LayerCount: 2
Fore
SplineSet
410 -12 m 3
 269 -12 207 29 207 166 c 3
 207 206 212 254 222 311 c 2
 332 936 l 1
 183 936 l 1
 205 1060 l 1
 354 1060 l 1
 420 1432 l 1
 546 1432 l 1
 481 1060 l 1
 684 1060 l 1
 662 936 l 1
 459 936 l 1
 349 313 l 2
 341 269 337 234 337 207 c 3
 337 124 376 112 468 112 c 3
 495 112 525 118 559 124 c 1
 554 3 l 1
 505 -7 457 -12 410 -12 c 3
EndSplineSet
EndChar

StartChar: u
Encoding: 117 117 89
Width: 1137
VWidth: 2045
Flags: W
HStem: -12 124<391.475 729.711> 1040 20G<287.46 418 1025.48 1156>
VStem: 166 130<204.599 474.809>
DStem2: 101.53 -12 228.472 -12 0.173648 0.984808<380.362 1088.62> 839.884 -12 966.884 -12 0.173648 0.984808<34.2384 134.993 255.246 1088.55>
LayerCount: 2
Fore
SplineSet
863 121 m 1
 736 5 689 -12 535 -12 c 3
 246 -12 166 149 166 307 c 3
 166 338 169 369 174 399 c 2
 291 1060 l 1
 418 1060 l 1
 302 405 l 2
 298 381 296 359 296 339 c 3
 296 161 446 112 554 112 c 3
 755 112 888 259 913 400 c 2
 1029 1060 l 1
 1156 1060 l 1
 969 0 l 1
 842 0 l 1
 863 121 l 1
EndSplineSet
EndChar

StartChar: v
Encoding: 118 118 90
Width: 1022
VWidth: 2045
Flags: W
HStem: 0 21G<446.509 587.509> 1040 20G<213 353.415 1038.78 1186>
DStem2: 349 1060 213 1060 0.219074 -0.975708<0 918.587> 547 163 576 0 0.498778 0.86673<0 1028.34>
LayerCount: 2
Fore
SplineSet
451 0 m 1
 213 1060 l 1
 349 1060 l 1
 547 163 l 1
 1050 1060 l 1
 1186 1060 l 1
 576 0 l 1
 451 0 l 1
EndSplineSet
EndChar

StartChar: w
Encoding: 119 119 91
Width: 1477
VWidth: 2045
Flags: W
HStem: 0 21G<328.396 482.126 971.609 1125.06> 1040 20G<193 328.319 824.014 967.453 1465.1 1596>
DStem2: 326 1060 193 1060 0.129099 -0.991632<0 902.92> 430 163 473 0 0.409815 0.912169<0 825.222> 965 1060 870 870 0.121719 -0.992565<177.024 903.719> 1075 163 1116 0 0.412508 0.910954<0 981.716>
LayerCount: 2
Fore
SplineSet
870 870 m 17
 473 0 l 1
 331 0 l 1
 193 1060 l 1
 326 1060 l 1
 430 163 l 1
 833 1060 l 1
 965 1060 l 1
 1075 163 l 1
 1474 1060 l 1
 1596 1060 l 1
 1116 0 l 1
 974 0 l 9
 870 870 l 17
EndSplineSet
EndChar

StartChar: x
Encoding: 120 120 92
Width: 1022
VWidth: 2045
Flags: W
HStem: 0 21G<15 183.151 845.387 1007> 1040 20G<231 398.949 1001.15 1167>
DStem2: 15 0 165 0 0.68839 0.725341<103.258 103.258 882.403 1461.38> 388 1060 231 1060 0.50851 -0.861056<0 468.309 613.522 1151.21>
LayerCount: 2
Fore
SplineSet
15 0 m 1
 531 553 l 1
 231 1060 l 1
 388 1060 l 1
 613 649 l 1
 1021 1060 l 1
 1167 1060 l 1
 666 562 l 1
 1007 0 l 1
 857 0 l 1
 587 465 l 1
 165 0 l 1
 15 0 l 1
EndSplineSet
EndChar

StartChar: y
Encoding: 121 121 93
Width: 1022
VWidth: 2045
Flags: W
HStem: -435 124<60.293 306.873> 1040 20G<221 364.896 1054.31 1192>
DStem2: 361 1060 221 1060 0.196492 -0.980505<0 983.128> 549 95 575 -95 0.471183 0.882036<0 1094.29>
LayerCount: 2
Fore
SplineSet
53 -420 m 1
 61 -296 l 1
 94 -305 126 -311 158 -311 c 3
 287 -311 435 -214 435 -40 c 3
 435 -17 430 15 422 57 c 2
 221 1060 l 1
 361 1060 l 1
 549 95 l 1
 1065 1060 l 1
 1192 1060 l 1
 575 -95 l 2
 495 -245 367 -435 131 -435 c 3
 105 -435 80 -430 53 -420 c 1
EndSplineSet
EndChar

StartChar: z
Encoding: 122 122 94
Width: 1022
VWidth: 2045
Flags: W
HStem: 0 124<208 979> 936 124<248 956>
DStem2: 62 124 208 124 0.743949 0.668237<108.616 1207.7>
LayerCount: 2
Fore
SplineSet
40 0 m 1
 62 124 l 1
 956 936 l 1
 226 936 l 1
 248 1060 l 1
 1134 1060 l 1
 1112 936 l 1
 208 124 l 1
 1001 124 l 1
 979 0 l 1
 40 0 l 1
EndSplineSet
EndChar

StartChar: braceleft
Encoding: 123 123 95
Width: 681
VWidth: 2045
Flags: W
HStem: -430 124<382.902 558> 449 163<166 261.755> 1366 124<671.152 875>
VStem: 241 127<-289.228 130.094> 299 127<-66.2384 410.734>
LayerCount: 2
Fore
SplineSet
426 274 m 3xe8
 426 154 368 -104 368 -189 c 3
 368 -278 402 -306 498 -306 c 2
 580 -306 l 1
 558 -430 l 1
 503 -430 l 2
 300 -430 241 -359 241 -213 c 3xf0
 241 -94 299 149 299 274 c 3
 299 383 261 446 137 449 c 1
 166 612 l 1
 365 615 400 784 440 997 c 0
 493 1286 523 1490 823 1490 c 2
 897 1490 l 1
 875 1366 l 1
 793 1366 l 2
 637 1366 614 1268 581 1080 c 0
 526 768 500 629 277 530 c 1
 386 480 426 399 426 274 c 3xe8
EndSplineSet
EndChar

StartChar: bar
Encoding: 124 124 96
Width: 454
VWidth: 2045
Flags: W
HStem: -430 21G<85 215.533>
VStem: 85 466
DStem2: 85 -430 212 -430 0.173648 0.984808<22.0533 1948.71>
LayerCount: 2
Fore
SplineSet
85 -430 m 1
 424 1489 l 1
 551 1489 l 1
 212 -430 l 1
 85 -430 l 1
EndSplineSet
EndChar

StartChar: braceright
Encoding: 125 125 97
Width: 681
VWidth: 2045
Flags: W
HStem: -430 124<4 217.609> 449 163<618.597 713> 1366 124<321 495.021>
VStem: 452 128<651.384 1092.56> 512 127<944.813 1347.49>
LayerCount: 2
Fore
SplineSet
639 1272 m 3xe8
 639 1146 580 927 580 790 c 3
 580 684 616 614 742 612 c 1
 713 449 l 1
 517 444 482 295 436 48 c 0
 377 -275 337 -430 37 -430 c 2
 -18 -430 l 1
 4 -306 l 1
 86 -306 l 2
 246 -306 261 -227 315 80 c 0
 357 321 417 458 601 530 c 1
 489 589 452 662 452 777 c 3xf0
 452 879 512 1118 512 1246 c 3
 512 1325 482 1366 381 1366 c 2
 299 1366 l 1
 321 1490 l 1
 395 1490 l 2
 586 1490 639 1407 639 1272 c 3xe8
EndSplineSet
EndChar

StartChar: asciitilde
Encoding: 126 126 98
Width: 1350
VWidth: 2045
Flags: W
HStem: 565 124<896.124 1203.03> 698 124<401.631 723.677>
LayerCount: 2
Fore
SplineSet
554 698 m 3
 450 698 381 653 270 562 c 1
 295 704 l 1
 380 783 479 822 593 822 c 3
 786 822 921 689 1057 689 c 3
 1159 689 1277 771 1337 825 c 1
 1312 680 l 1
 1211 599 1125 565 1016 565 c 3
 815 565 722 698 554 698 c 3
EndSplineSet
EndChar

StartChar: exclamdown
Encoding: 161 161 100
Width: 681
VWidth: 2045
Flags: W
HStem: 0 21G<213 365.54> 1064 20G<435.348 516> 1257 193<462 591>
VStem: 440 76<1022.36 1084>
DStem2: 213 0 362 0 0.173648 0.984808<25.8736 821.464 1303.54 1471.21>
LayerCount: 2
Fore
SplineSet
442 452 m 1
 362 0 l 1
 213 0 l 1
 293 452 l 1
 440 1084 l 1
 516 1084 l 1
 442 452 l 1
591 1257 m 1
 428 1257 l 1
 462 1450 l 1
 625 1450 l 1
 591 1257 l 1
EndSplineSet
EndChar

StartChar: cent
Encoding: 162 162 101
Width: 1178
VWidth: 2045
Flags: W
HStem: -9 126<454.565 544 693 888.266> 976 125<592.998 718 868 1036.94> 1446 20G<800.493 931>
VStem: 196 130<248.398 668.755>
DStem2: 481 -369 608 -369 0.173648 0.984808<22.0533 365.471 512.476 1365.72 1517.82 1863.21>
LayerCount: 2
Fore
SplineSet
608 -369 m 1
 481 -369 l 1
 544 -9 l 1
 317 15 196 173 196 406 c 3
 196 784 445 1065 740 1101 c 1
 804 1466 l 1
 931 1466 l 1
 868 1104 l 1
 978 1100 1056 1082 1155 1024 c 1
 1126 863 l 1
 1116 863 l 1
 1075 931 975 970 846 979 c 1
 693 114 l 1
 821 124 925 164 1005 231 c 1
 1015 231 l 1
 987 71 l 1
 839 7 764 -8 671 -11 c 1
 608 -369 l 1
567 117 m 1
 718 976 l 1
 509 946 326 744 326 434 c 3
 326 257 414 141 567 117 c 1
EndSplineSet
EndChar

StartChar: sterling
Encoding: 163 163 102
Width: 1115
VWidth: 2045
Flags: W
HStem: 0 160<116 205.684> 0 124<250 1031> 620 124<261 431 580 955> 1305 165<1148.9 1230> 1392 124<801.449 1153.08>
DStem2: 321.677 0 449.491 0 0.173648 0.984808<365.648 629.565 777.554 1328.01>
LayerCount: 2
Fore
SplineSet
547 553 m 2x28
 517 371 381 204 252 134 c 1
 250 124 l 1
 1053 124 l 1
 1031 0 l 1
 88 0 l 1x68
 116 160 l 1
 288 209 393 403 431 620 c 1
 239 620 l 1
 261 744 l 1
 453 744 l 1
 511 1071 l 2
 559 1341 726 1516 974 1516 c 3xa8
 1062 1516 1109 1512 1259 1470 c 1
 1230 1305 l 1
 1221 1305 l 1x30
 1158 1352 1075 1392 971 1392 c 3
 873 1392 688 1355 642 1093 c 2
 580 744 l 1
 977 744 l 1
 955 620 l 1
 558 620 l 1
 547 553 l 2x28
EndSplineSet
EndChar

StartChar: currency
Encoding: 164 164 103
Width: 1115
VWidth: 2045
Flags: W
HStem: 326 124<518.572 778.053> 873 124<575.116 834.94>
VStem: 338 128<501.316 763.069> 888 128<561.59 821.711>
DStem2: 112 272 200 163 0.760494 0.649345<0 343.566 1022.53 1363.68> 375 1157 249 1051 0.636318 -0.771427<1.59515 288.131 862.822 1145.95>
LayerCount: 2
Fore
SplineSet
1016 718 m 3
 1016 617 976 547 929 486 c 1
 1103 272 l 1
 979 166 l 1
 801 378 l 1
 746 348 687 326 617 326 c 3
 547 326 498 349 453 379 c 1
 200 163 l 1
 112 272 l 1
 363 486 l 1
 348 522 338 561 338 606 c 3
 338 707 377 773 424 834 c 1
 249 1051 l 1
 375 1157 l 1
 552 942 l 1
 607 972 666 997 736 997 c 3
 806 997 856 976 901 946 c 1
 1151 1157 l 1
 1240 1051 l 1
 991 837 l 1
 1006 801 1016 763 1016 718 c 3
714 873 m 3
 587 873 466 766 466 621 c 3
 466 522 534 450 639 450 c 3
 766 450 888 557 888 702 c 3
 888 801 819 873 714 873 c 3
EndSplineSet
EndChar

StartChar: yen
Encoding: 165 165 104
Width: 1115
VWidth: 2045
Flags: W
HStem: 0 21G<495 625.535> 447 124<226 574 720 1070>
DStem2: 528 1489 350 1489 0.303487 -0.952836<0 665.049> 495 0 622 0 0.173648 0.984808<22.0533 453.927 601.396 667.856> 710 849 738 677 0.562199 0.827002<0 759.783>
LayerCount: 2
Fore
SplineSet
1290 1489 m 1
 738 677 l 1
 720 571 l 1
 1092 571 l 1
 1070 447 l 1
 701 447 l 1
 622 0 l 1
 495 0 l 1
 574 447 l 1
 204 447 l 1
 226 571 l 1
 600 571 l 1
 615 657 l 1
 350 1489 l 1
 528 1489 l 1
 710 849 l 1
 1120 1489 l 1
 1290 1489 l 1
EndSplineSet
EndChar

StartChar: brokenbar
Encoding: 166 166 105
Width: 780
VWidth: 2045
Flags: W
VStem: 259 470
DStem2: 259 -393 386 -393 0.173648 0.984808<22.0533 810.187 1190.82 1978.95>
LayerCount: 2
Fore
SplineSet
589 758 m 1
 462 758 l 1
 602 1556 l 1
 729 1556 l 1
 589 758 l 1
386 -393 m 1
 259 -393 l 1
 399 405 l 1
 526 405 l 1
 386 -393 l 1
EndSplineSet
EndChar

StartChar: section
Encoding: 167 167 106
Width: 1115
VWidth: 2045
Flags: W
HStem: -378 136<240.512 666.728> 1374 136<644.747 1083.62>
VStem: 228 155<411.186 644.901> 366 153<1025.27 1260.15> 798 152<-128.774 106.501> 933 155<486.579 718.46>
DStem2: 546 348 500 206 0.949224 -0.3146<-160.377 215.062> 684 966 595 842 0.953994 -0.299827<-84.4123 289.54>
LayerCount: 2
Fore
SplineSet
595 842 m 1xe4
 507 794 383 692 383 526 c 3
 383 419 456 378 546 348 c 2
 721 290 l 1
 878 389 933 479 933 606 c 3
 933 680 895 747 770 787 c 2
 595 842 l 1xe4
1088 665 m 3
 1088 429 891 322 806 266 c 1
 872 227 950 183 950 57 c 3
 950 -138 808 -378 422 -378 c 3
 307 -378 225 -360 135 -325 c 1
 163 -162 l 1
 311 -240 418 -242 461 -242 c 3
 593 -242 798 -190 798 6 c 3
 798 98 731 137 627 168 c 2
 500 206 l 2
 354 250 228 307 228 467 c 3xe8
 228 614 303 745 512 865 c 1
 450 905 366 953 366 1082 c 3
 366 1275 500 1510 894 1510 c 3
 983 1510 1077 1497 1182 1461 c 1
 1153 1297 l 1
 1063 1345 975 1374 849 1374 c 3
 726 1374 519 1327 519 1129 c 3xd0
 519 1040 576 997 684 966 c 2
 816 928 l 2
 981 880 1088 811 1088 665 c 3
EndSplineSet
EndChar

StartChar: dieresis
Encoding: 168 168 107
Width: 1115
VWidth: 2045
Flags: W
HStem: 1315 171<527 674 939 1086>
VStem: 497 619
LayerCount: 2
Fore
SplineSet
1086 1315 m 1
 909 1315 l 1
 939 1486 l 1
 1116 1486 l 1
 1086 1315 l 1
674 1315 m 1
 497 1315 l 1
 527 1486 l 1
 704 1486 l 1
 674 1315 l 1
EndSplineSet
EndChar

StartChar: copyright
Encoding: 169 169 108
Width: 1898
VWidth: 2045
Flags: W
HStem: -209 111<684.085 1185.5> 180 124<847.265 1219.12> 911 158<1365.14 1434> 1018 124<979.732 1332.28> 1408 111<945.316 1446.67>
VStem: 186 119<283.668 779.091> 635 128<387.347 783.164> 1824 119<531.546 1026.6>
LayerCount: 2
Fore
SplineSet
913 -209 m 3xcf
 479 -209 186 99 186 502 c 3
 186 1078 701 1519 1218 1519 c 3
 1652 1519 1943 1211 1943 809 c 3
 1943 233 1430 -209 913 -209 c 3xcf
1824 794 m 3
 1824 1158 1557 1408 1198 1408 c 3
 769 1408 305 1044 305 516 c 3
 305 152 574 -98 933 -98 c 3
 1362 -98 1824 267 1824 794 c 3
1039 304 m 3
 1169 304 1301 389 1328 411 c 1
 1345 411 l 1
 1318 255 l 1
 1177 200 1121 180 1014 180 c 3
 835 180 635 254 635 532 c 3
 635 903 874 1142 1183 1142 c 3xdf
 1299 1142 1397 1107 1461 1069 c 1
 1434 911 l 1
 1417 911 l 1xef
 1375 957 1273 1018 1165 1018 c 3xdf
 977 1018 763 905 763 546 c 3
 763 339 897 304 1039 304 c 3
EndSplineSet
EndChar

StartChar: ordfeminine
Encoding: 170 170 109
Width: 1007
VWidth: 2045
Flags: W
HStem: 541 124<415.979 739.945> 1395 124<491.247 931.771>
VStem: 255 130<700.124 949.431> 965 126<1184 1358.55>
DStem2: 841.768 541 968.768 541 0.173648 0.984808<46.4236 117.751 212.132 523.829 644.549 738.121>
LayerCount: 2
Fore
SplineSet
750 1519 m 3
 999 1519 1091 1425 1091 1274 c 3
 1091 1249 1088 1221 1083 1193 c 2
 973 565 l 1
 846 565 l 1
 862 657 l 1
 796 613 709 541 497 541 c 3
 358 541 255 631 255 779 c 3
 255 1112 542 1167 955 1184 c 1
 960 1215 965 1244 965 1270 c 3
 965 1345 923 1395 728 1395 c 3
 672 1395 585 1385 439 1333 c 1
 424 1333 l 1
 449 1474 l 1
 449 1474 635 1519 750 1519 c 3
577 665 m 3
 657 665 740 668 887 802 c 1
 932 1057 l 1
 740 1045 l 2
 430 1026 385 937 385 794 c 3
 385 716 427 665 577 665 c 3
EndSplineSet
EndChar

StartChar: guillemotleft
Encoding: 171 171 110
Width: 1170
VWidth: 2045
Flags: W
DStem2: 397 652 211 607 0.695717 -0.718316<0 405.29> 227 698 397 652 0.797548 0.603256<107.833 590.651> 841 652 663 610 0.702002 -0.712175<0 383.262> 678 695 841 652 0.802568 0.596561<105.166 560.368>
LayerCount: 2
Fore
SplineSet
1077 190 m 1
 663 610 l 1
 678 695 l 1
 1239 1112 l 1
 1206 924 l 1
 841 652 l 1
 1110 379 l 1
 1077 190 l 1
642 162 m 1
 211 607 l 1
 227 698 l 1
 814 1142 l 1
 780 946 l 1
 397 652 l 1
 676 358 l 1
 642 162 l 1
EndSplineSet
EndChar

StartChar: logicalnot
Encoding: 172 172 111
Width: 1486
VWidth: 2045
Flags: W
HStem: 625 136<291 1286>
DStem2: 1186 57 1332 57 0.173648 0.984808<25.3526 576.736>
LayerCount: 2
Fore
SplineSet
1332 57 m 1
 1186 57 l 1
 1286 625 l 1
 267 625 l 1
 291 761 l 1
 1456 761 l 1
 1332 57 l 1
EndSplineSet
EndChar

StartChar: registered
Encoding: 174 174 113
Width: 1898
VWidth: 2045
Flags: W
HStem: -209 111<684.085 1193.13> 569 124<898 1092> 1006 124<953 1308.57> 1408 111<945.669 1433.16>
VStem: 186 119<283.214 778.277> 1331 131<769.967 982.055> 1824 119<539.135 1023.31>
DStem2: 612.414 -209 739.414 -209 0.173648 0.984808<451.579 811.952 937.888 1255.68> 1209 615 1092 569 0.566965 -0.823742<0 389.852>
LayerCount: 2
Fore
SplineSet
913 -209 m 3
 479 -209 186 98 186 501 c 3
 186 1078 703 1519 1218 1519 c 3
 1659 1519 1943 1206 1943 808 c 3
 1943 208 1406 -209 913 -209 c 3
1824 792 m 3
 1824 1150 1563 1408 1198 1408 c 3
 769 1408 305 1041 305 516 c 3
 305 152 574 -98 933 -98 c 3
 1364 -98 1824 269 1824 792 c 3
1462 932 m 3
 1462 752 1328 659 1209 615 c 1
 1485 214 l 1
 1314 214 l 1
 1092 569 l 1
 876 569 l 1
 814 214 l 1
 687 214 l 1
 848 1130 l 1
 1158 1130 l 2
 1253 1130 1462 1119 1462 932 c 3
1090 693 m 2
 1256 693 1331 771 1331 901 c 3
 1331 1006 1225 1006 1163 1006 c 2
 953 1006 l 1
 898 693 l 1
 1090 693 l 2
EndSplineSet
EndChar

StartChar: macron
Encoding: 175 175 114
Width: 1115
VWidth: 2045
Flags: W
HStem: 1658 130<300 1425>
LayerCount: 2
Fore
SplineSet
1425 1658 m 1
 277 1658 l 1
 300 1788 l 1
 1448 1788 l 1
 1425 1658 l 1
EndSplineSet
EndChar

StartChar: degree
Encoding: 176 176 115
Width: 961
VWidth: 2045
Flags: W
HStem: 755 124<500.552 789.71> 1389 124<574.373 863.666>
VStem: 295 129<956.621 1240.42> 940 129<1026.89 1312.41>
LayerCount: 2
Fore
SplineSet
749 1513 m 3
 949 1513 1069 1379 1069 1205 c 3
 1069 951 853 755 615 755 c 3
 429 755 295 879 295 1063 c 3
 295 1319 507 1513 749 1513 c 3
637 879 m 3
 802 879 940 1019 940 1180 c 3
 940 1294 864 1389 727 1389 c 3
 552 1389 424 1244 424 1088 c 3
 424 971 506 879 637 879 c 3
EndSplineSet
EndChar

StartChar: plusminus
Encoding: 177 177 116
Width: 1486
VWidth: 2045
Flags: W
HStem: 159 136<214 724 870 1354> 739 136<316 802 972 1456>
DStem2: 700.02 159 846.02 159 0.173648 0.984808<163.451 588.897 752.351 1262.14>
LayerCount: 2
Fore
SplineSet
1354 159 m 1
 190 159 l 1
 214 295 l 1
 724 295 l 1
 802 739 l 1
 292 739 l 1
 316 875 l 1
 826 875 l 1
 919 1402 l 1
 1065 1402 l 1
 972 875 l 1
 1480 875 l 1
 1456 739 l 1
 948 739 l 1
 870 295 l 1
 1378 295 l 1
 1354 159 l 1
EndSplineSet
EndChar

StartChar: uni00B2
Encoding: 178 178 117
Width: 1007
Flags: W
HStem: 566 124<486 919> 1394 124<627.743 876.889>
VStem: 420 127<1210 1314.19> 912 129<1142.93 1357.34>
LayerCount: 2
Fore
SplineSet
762 1394 m 3
 688 1394 573 1358 547 1210 c 1
 420 1210 l 1
 453 1397 595 1518 786 1518 c 3
 935 1518 1041 1438 1041 1292 c 3
 1041 1069 849 966 694 851 c 0
 627 801 539 730 486 690 c 1
 941 690 l 1
 919 566 l 1
 285 566 l 1
 309 702 435 804 596 921 c 0
 757 1039 912 1125 912 1262 c 3
 912 1345 842 1394 762 1394 c 3
EndSplineSet
EndChar

StartChar: uni00B3
Encoding: 179 179 118
Width: 1007
Flags: W
HStem: 559 124<492.859 753.781> 1015 104<602.656 776.862> 1394 124<610.769 848.339>
VStem: 330 129<717.122 863.157> 840 130<767.25 985.774> 867 128<1199.45 1371.04>
LayerCount: 2
Fore
SplineSet
644 1119 m 3xf8
 716 1119 867 1188 867 1291 c 3
 867 1350 825 1394 734 1394 c 3
 623 1394 570 1328 539 1230 c 1
 412 1230 l 1
 441 1395 585 1518 753 1518 c 3
 888 1518 995 1435 995 1308 c 3xf4
 995 1201 930 1125 857 1079 c 1
 930 1049 970 995 970 914 c 3
 970 702 779 559 589 559 c 3
 432 559 330 655 330 802 c 3
 330 822 332 843 336 864 c 1
 463 864 l 1
 460 849 459 835 459 822 c 3
 459 740 507 683 610 683 c 3
 742 683 840 772 840 894 c 3
 840 969 790 1015 684 1015 c 3
 652 1015 612 1007 580 998 c 1
 602 1122 l 1
 616 1121 630 1119 644 1119 c 3xf8
EndSplineSet
EndChar

StartChar: acute
Encoding: 180 180 119
Width: 1115
VWidth: 2045
Flags: W
HStem: 1302 373
VStem: 702 438
LayerCount: 2
Fore
SplineSet
1140 1675 m 1
 804 1302 l 1
 702 1302 l 1
 947 1675 l 1
 1140 1675 l 1
EndSplineSet
EndChar

StartChar: mu
Encoding: 181 181 120
Width: 1160
VWidth: 2045
Flags: W
HStem: -12 124<448.699 759.975> 1040 20G<319.479 450 1081.46 1212>
DStem2: 64 -411 191 -411 0.173648 0.984808<22.0533 556.038 682.19 1493.63> 825.53 -411 952.53 -411 0.173648 0.984808<439.394 522.886 646.682 1493.71>
LayerCount: 2
Fore
SplineSet
596 112 m 3
 686 112 842 183 946 275 c 1
 1085 1060 l 1
 1212 1060 l 1
 1025 0 l 1
 898 0 l 1
 916 104 l 1
 779 -8 644 -12 574 -12 c 3
 477 -12 360 8 283 115 c 1
 191 -411 l 1
 64 -411 l 1
 323 1060 l 1
 450 1060 l 1
 311 275 l 1
 363 199 489 112 596 112 c 3
EndSplineSet
EndChar

StartChar: paragraph
Encoding: 182 182 121
Width: 1115
VWidth: 2045
Flags: W
HStem: 1365 124<895 1094>
DStem2: 462 -362 590 -362 0.173648 0.984808<22.227 968.68> 789 -362 916 -362 0.173648 0.984808<22.0533 1753.73>
LayerCount: 2
Fore
SplineSet
834 1489 m 2
 1243 1489 l 1
 916 -362 l 1
 789 -362 l 1
 1094 1365 l 1
 895 1365 l 1
 590 -362 l 1
 462 -362 l 1
 630 592 l 1
 385 599 234 730 234 951 c 3
 234 1310 493 1489 834 1489 c 2
EndSplineSet
EndChar

StartChar: periodcentered
Encoding: 183 183 122
Width: 722
VWidth: 2045
Flags: W
HStem: 831 285<439 629>
VStem: 389 290
LayerCount: 2
Fore
SplineSet
629 831 m 1
 389 831 l 1
 439 1116 l 1
 679 1116 l 1
 629 831 l 1
EndSplineSet
EndChar

StartChar: cedilla
Encoding: 184 184 123
Width: 1115
VWidth: 2045
Flags: W
HStem: -435 124<239.703 547.076> -411 133<241 381.064>
VStem: 645 124<-190.358 20>
LayerCount: 2
Fore
SplineSet
384 -311 m 3xa0
 523 -311 597 -266 625 -107 c 0
 646 11 632 -56 645 20 c 1
 769 20 l 1
 769 6 759 -66 755 -89 c 0
 708 -356 515 -435 390 -435 c 3xa0
 319 -435 250 -421 218 -411 c 1
 241 -278 l 1
 250 -278 l 1x60
 281 -295 321 -311 384 -311 c 3xa0
EndSplineSet
EndChar

StartChar: uni0E01
Encoding: 3585 3585 124
Width: 1248
VWidth: 2045
Flags: W
HStem: 0 21G<250 366.534 985 1101.53> 764 112<498 611> 1142 112<616.6 973.487>
VStem: 1126 115<561.062 993.029>
DStem2: 250 0 363 0 0.173648 0.984808<19.6222 775.836> 985 0 1098 0 0.173648 0.984808<19.6222 839.92>
LayerCount: 2
Fore
SplineSet
1120 764 m 2
 1124 786 1126 808 1126 829 c 0
 1126 1009 989 1142 805 1142 c 256
 688 1142 503 1086 393 876 c 9
 630 876 l 1
 611 764 l 1
 498 764 l 17
 363 0 l 17
 250 0 l 9
 385 764 l 9
 245 764 l 1
 293 1039 556 1254 825 1254 c 256
 1066 1254 1241 1081 1241 849 c 0
 1241 821 1238 793 1233 764 c 2
 1098 0 l 1
 985 0 l 1
 1120 764 l 2
EndSplineSet
EndChar

StartChar: uni0E02
Encoding: 3586 3586 125
Width: 1173
VWidth: 2045
Flags: W
HStem: 0 112<368 480 593 932> 749 112<385.399 531.201> 1142 112<553.578 729.423>
VStem: 265 114<866.207 1009.52> 551 115<880.634 1025.52> 780 115<836.777 1092.82>
DStem2: 460.251 0 573.251 0 0.173648 0.984808<133.35 699.196> 912.251 0 1025 0 0.173648 0.984808<113.728 1273.28>
LayerCount: 2
Fore
SplineSet
265 911 m 0
 265 1051 417 1254 633 1254 c 0
 790 1254 895 1142 895 997 c 0
 895 752 700 719 661 498 c 2
 593 112 l 17
 932 112 l 25
 1133 1254 l 1
 1246 1254 l 1
 1025 0 l 9
 348 0 l 1
 368 112 l 1
 480 112 l 25
 548 498 l 2
 596 768 780 781 780 980 c 0
 780 1073 712 1142 613 1142 c 0
 592 1142 572 1139 551 1133 c 1
 601 1121 666 1068 666 979 c 0
 666 857 553 749 432 749 c 0
 331 749 265 821 265 911 c 0
451 861 m 0
 501 861 551 907 551 961 c 0
 551 999 524 1030 481 1030 c 0
 430 1030 379 984 379 932 c 0
 379 893 407 861 451 861 c 0
EndSplineSet
EndChar

StartChar: uni0E03
Encoding: 3587 3587 126
Width: 1248
VWidth: 2045
Flags: W
HStem: 0 112<441 554 667 1005> 633 113<389.853 536.669> 914 110<402.556 550.883> 1234 20G<505 590.157 795.096 847 1202.48 1319>
VStem: 240 144<753.129 963.119> 556 115<763.573 908.411> 862 116<846.761 1120.69>
DStem2: 534.251 0 647.251 0 0.173648 0.984808<133.35 702.936> 985.251 0 1098 0 0.173648 0.984808<113.728 1273.28>
LayerCount: 2
Fore
SplineSet
831 1254 m 1
 863 1242 978 1159 978 1012 c 0
 978 757 772 723 735 498 c 1
 667 112 l 1
 1005 112 l 1
 1206 1254 l 25
 1319 1254 l 17
 1098 0 l 1
 421 0 l 1
 441 112 l 1
 554 112 l 1
 622 498 l 2
 672 781 862 771 862 1001 c 0
 862 1084 825 1119 811 1124 c 1
 659 1039 l 1
 525 1130 l 17
 506 1126 411 1076 370 976 c 1
 425 1008 470 1024 506 1024 c 0
 605 1024 671 954 671 862 c 0
 671 738 557 633 437 633 c 0
 353 633 240 676 240 842 c 0
 240 1107 449 1226 561 1254 c 1
 682 1171 l 1
 831 1254 l 1
457 746 m 0
 511 746 556 792 556 845 c 0
 556 886 526 914 486 914 c 0
 435 914 384 869 384 814 c 0
 384 773 417 746 457 746 c 0
EndSplineSet
EndChar

StartChar: uni0E04
Encoding: 3588 3588 127
Width: 1301
VWidth: 2045
Flags: W
HStem: 0 21G<171 294.504 1018 1134.53> 547 115<698.481 847.421> 828 111<713.024 859.271> 1142 112<670.66 1017.79>
VStem: 865 114<681.989 823.767> 1161 114<698.745 999.235>
DStem2: 171 0 283.865 0 0.173648 0.984808<19.6222 102.535 314.073 989.34> 1018 0 1131 0 0.173648 0.984808<19.6222 854.009>
LayerCount: 2
Fore
SplineSet
979 779 m 0
 979 652 863 547 744 547 c 0
 655 547 616 601 607 615 c 9
 284 0 l 9
 171 0 l 17
 308 776 l 2
 355 1044 609 1254 872 1254 c 0
 1107 1254 1275 1087 1275 860 c 0
 1275 833 1273 805 1268 776 c 2
 1131 0 l 1
 1018 0 l 1
 1155 776 l 2
 1159 799 1161 821 1161 843 c 0
 1161 1021 1026 1142 852 1142 c 0
 657 1142 459 990 421 776 c 2
 335 290 l 17
 607 816 l 17
 629 854 703 939 814 939 c 0
 913 939 979 870 979 779 c 0
765 662 m 0
 812 662 865 701 865 759 c 0
 865 797 838 828 794 828 c 0
 740 828 694 779 694 730 c 0
 694 691 722 662 765 662 c 0
EndSplineSet
EndChar

StartChar: uni0E05
Encoding: 3589 3589 128
Width: 1301
VWidth: 2045
Flags: W
HStem: 0 21G<175 298.709 1018 1134.52> 526 111<698.279 843.955> 807 108<712.408 858.082> 1234 20G<587.5 667.417 1071.7 1146>
VStem: 864 115<655.836 801.049> 1185 115<848.364 1092.63>
DStem2: 175 0 287.865 0 0.173648 0.984808<19.6222 99.3367 314.073 1107.07> 640 1254 608 1130 0.810187 -0.586172<27.366 256.221> 847 1103 825 973 0.864475 0.502676<0 246.364> 1018 0 1131 0 0.173648 0.984808<19.6222 984.601>
LayerCount: 2
Fore
SplineSet
979 754 m 0
 979 631 865 526 745 526 c 0
 651 526 620 581 605 592 c 9
 288 0 l 1
 175 0 l 9
 338 927 l 2
 373 1123 535 1226 640 1254 c 9
 847 1103 l 1
 1106 1254 l 17
 1186 1230 1300 1145 1300 989 c 0
 1300 970 1298 949 1294 927 c 2
 1131 0 l 1
 1018 0 l 1
 1181 927 l 2
 1184 943 1185 957 1185 971 c 0
 1185 1064 1126 1113 1095 1130 c 9
 825 973 l 1
 608 1130 l 17
 562 1109 472 1048 451 927 c 2
 339 290 l 17
 606 791 l 18
 627 832 702 915 813 915 c 0
 910 915 979 847 979 754 c 0
764 637 m 0
 819 637 864 686 864 738 c 0
 864 779 834 807 794 807 c 0
 740 807 694 758 694 707 c 0
 694 666 724 637 764 637 c 0
EndSplineSet
EndChar

StartChar: uni0E06
Encoding: 3590 3590 129
Width: 1519
VWidth: 2045
Flags: W
HStem: 0 113<451.979 597.611> 281 110<466.062 614.52> 633 113<436.698 585.013> 914 110<452.78 598.877> 1234 20G<554 638.916 843.855 893.5 1452.48 1569>
VStem: 289 144<753.058 963.939> 332 114<118.808 260.614> 604 115<763.791 908.804> 912 115<843.237 1118.53>
DStem2: 582.23 0 694.988 0 0.173648 0.984808<378.754 703.516> 753 329 733 218 0.917244 -0.398325<25.8692 546.893> 1235.25 0 1348 0 0.173648 0.984808<113.728 1273.28>
LayerCount: 2
Fore
SplineSet
506 746 m 0xfd80
 560 746 604 792 604 845 c 0
 604 883 579 914 535 914 c 0
 474 914 433 859 433 814 c 0
 433 772 465 746 506 746 c 0xfd80
332 161 m 0xfb80
 332 284 445 391 566 391 c 0
 597 391 624 385 648 373 c 9
 670 498 l 2
 720 779 912 773 912 999 c 0
 912 1083 874 1119 860 1124 c 1
 707 1039 l 1
 574 1130 l 17
 555 1126 460 1076 419 976 c 1
 474 1008 519 1024 555 1024 c 0
 651 1024 719 954 719 862 c 0
 719 739 605 633 486 633 c 0
 402 633 289 676 289 842 c 0xfd80
 289 1107 498 1226 610 1254 c 1
 730 1171 l 1
 880 1254 l 1
 907 1244 1027 1162 1027 1012 c 0
 1027 759 822 723 783 498 c 2
 753 329 l 25
 1255 112 l 9
 1456 1254 l 1
 1569 1254 l 1
 1348 0 l 1
 1235 0 l 1
 733 218 l 17
 700 27 552 0 498 0 c 0
 398 0 332 70 332 161 c 0xfb80
517 113 m 0
 576 113 618 166 618 214 c 0
 618 255 587 281 547 281 c 0
 494 281 446 235 446 182 c 0xfb80
 446 142 477 113 517 113 c 0
EndSplineSet
EndChar

StartChar: uni0E07
Encoding: 3591 3591 130
Width: 977
VWidth: 2045
Flags: W
HStem: 861 112<713.132 844.21> 1142 112<725.588 873.616>
VStem: 592 115<978.542 1123.39> 878 114<990.945 1136.47>
DStem2: 290 704 194 625 0.621633 -0.783308<2.20454 692.179> 689.788 0 803 0 0.173648 0.984808<162.468 892.598>
LayerCount: 2
Fore
SplineSet
827 1254 m 0
 700 1254 592 1142 592 1021 c 0
 592 927 663 861 757 861 c 0
 788 861 817 867 845 879 c 1
 718 160 l 9
 290 704 l 1
 194 625 l 1
 690 0 l 17
 803 0 l 1
 989 1057 l 2
 991 1069 992 1081 992 1093 c 0
 992 1188 922 1254 827 1254 c 0
878 1071 m 0
 878 1027 836 973 779 973 c 0
 735 973 707 1005 707 1044 c 0
 707 1100 760 1142 808 1142 c 0
 851 1142 878 1110 878 1071 c 0
EndSplineSet
EndChar

StartChar: uni0E08
Encoding: 3592 3592 131
Width: 1202
VWidth: 2045
Flags: W
HStem: 0 21G<800.502 921.639> 523 111<614.353 762.242> 801 112<628.258 776.79> 1142 112<586.753 940.917>
VStem: 209 113<764 881.58> 497 113<638.517 782.821> 801 113<281 562> 1090 114<642.961 993.7>
DStem2: 909 281 914 0 0.356813 0.934176<0 574.01>
LayerCount: 2
Fore
SplineSet
497 684 m 0
 497 808 612 913 732 913 c 0
 833 913 894 837 896 755 c 2
 909 281 l 25
 1064 686 l 2
 1074 713 1090 772 1090 829 c 0
 1090 1007 957 1142 769 1142 c 256
 559 1142 359 973 322 764 c 9
 209 764 l 17
 254 1020 505 1254 789 1254 c 256
 1043 1254 1204 1067 1204 846 c 0
 1204 777 1189 718 1168 665 c 10
 914 0 l 1
 801 0 l 1
 787 562 l 17
 749 536 707 523 662 523 c 0
 564 523 497 592 497 684 c 0
680 634 m 0
 738 634 781 685 781 733 c 0
 781 771 754 801 711 801 c 0
 655 801 610 754 610 703 c 0
 610 665 637 634 680 634 c 0
EndSplineSet
EndChar

StartChar: uni0E09
Encoding: 3593 3593 132
Width: 1293
VWidth: 2045
Flags: W
HStem: 0 113<999.05 1144.99> 281 103<1017 1056> 396 112<396.42 528.891> 674 112<411.648 557.98> 1142 112<621.065 979.136>
VStem: 276 115<512.906 654.699> 562 115<441.99 668.616> 879 115<118.149 209.313> 1129 114<550.25 994.492> 1164 117<132.392 277.077>
DStem2: 457 0 569.606 0 0.173648 0.984808<148.513 420.387> 592 127 570 0 0.863705 0.503997<0 277.475> 988.29 0 1101.29 0 0.173648 0.984808<397.661 840.809>
LayerCount: 2
Fore
SplineSet
276 558 m 0xff40
 276 680 391 785 511 786 c 0
 618 786 677 709 677 624 c 0
 677 613 676 602 674 591 c 2
 592 127 l 1
 1017 375 l 2
 1029 381 1042 384 1056 384 c 9
 1123 764 l 2
 1127 786 1129 808 1129 830 c 0
 1129 1009 995 1142 806 1142 c 264
 617 1142 453 1007 390 864 c 9
 288 896 l 17
 369 1080 581 1254 826 1254 c 272
 1083 1254 1243 1068 1243 846 c 0xff80
 1243 819 1241 792 1236 764 c 2
 1169 384 l 17
 1195 376 1281 337 1281 233 c 0
 1281 108 1168 0 1046 0 c 0
 941 0 879 76 879 162 c 0
 879 169 879 176 880 184 c 1
 570 0 l 1
 457 0 l 1
 530 414 l 17
 503 402 473 396 442 396 c 0
 343 396 276 467 276 558 c 0xff40
464 508 m 0
 516 508 562 553 562 605 c 0
 562 644 536 674 493 674 c 0
 437 674 391 625 391 575 c 0
 391 534 423 508 464 508 c 0
1064 113 m 0
 1119 113 1164 162 1164 213 c 0xff40
 1164 252 1137 281 1094 281 c 0
 1040 281 994 235 994 182 c 0
 994 141 1024 113 1064 113 c 0
EndSplineSet
EndChar

StartChar: uni0E0A
Encoding: 3594 3594 133
Width: 1192
VWidth: 2045
Flags: W
HStem: 0 112<368 480 593 932> 749 112<385.399 531.201> 1142 112<553.578 728.905>
VStem: 265 114<866.207 1009.52> 551 115<880.634 1025.52> 780 116<856.274 1093.29> 1062 114<606.016 934.762> 1280 112<1314.46 1447>
DStem2: 460.251 0 573.251 0 0.173648 0.984808<133.35 745.169> 912.251 0 1025 0 0.173648 0.984808<113.728 868.676>
LayerCount: 2
Fore
SplineSet
265 911 m 0
 265 1051 417 1254 633 1254 c 0
 790 1254 896 1141 896 998 c 0
 896 768 702 735 677 589 c 2
 593 112 l 1
 932 112 l 1
 1060 837 l 2
 1061 843 1062 849 1062 856 c 0
 1062 907 1024 949 966 949 c 1
 986 1060 l 1
 1122 1132 1248 1268 1280 1447 c 9
 1392 1447 l 17
 1347 1190 1157 1047 1113 1018 c 1
 1128 1003 1176 959 1176 876 c 0
 1176 864 1175 851 1173 837 c 2
 1025 0 l 1
 348 0 l 1
 368 112 l 1
 480 112 l 1
 564 589 l 2
 602 804 780 804 780 981 c 0
 780 1075 709 1142 613 1142 c 0
 592 1142 572 1139 551 1133 c 1
 601 1121 666 1068 666 979 c 0
 666 857 553 749 432 749 c 0
 331 749 265 821 265 911 c 0
451 861 m 0
 501 861 551 907 551 961 c 0
 551 999 524 1030 481 1030 c 0
 430 1030 379 984 379 932 c 0
 379 893 407 861 451 861 c 0
EndSplineSet
EndChar

StartChar: uni0E0B
Encoding: 3595 3595 134
Width: 1192
VWidth: 2045
Flags: W
HStem: 0 112<383 496 609 947> 633 113<331.848 480.912> 914 110<346.518 493.216> 1234 20G<419.5 533.675 737.096 800.5>
VStem: 187 141<751.337 966.702> 498 116<763.248 908.872> 816 112<847.446 1104.32> 1077 114<606.016 935.515> 1295 113<1314.46 1447>
DStem2: 476.251 0 589.251 0 0.173648 0.984808<133.35 712.675> 927.251 0 1040 0 0.173648 0.984808<113.728 868.676>
LayerCount: 2
Fore
SplineSet
614 863 m 0
 614 747 508 633 380 633 c 0
 259 633 187 742 187 868 c 0
 187 1050 334 1214 505 1254 c 1
 624 1171 l 1
 773 1254 l 1
 828 1228 928 1152 928 1006 c 0
 928 742 715 728 686 548 c 1
 609 112 l 1
 947 112 l 1
 1075 837 l 2
 1076 843 1077 849 1077 856 c 0
 1077 907 1039 949 981 949 c 1
 1001 1060 l 1
 1137 1132 1264 1268 1295 1447 c 9
 1408 1447 l 17
 1363 1190 1172 1047 1128 1018 c 1
 1170 975 1191 930 1191 876 c 0
 1191 863 1190 850 1188 837 c 2
 1040 0 l 1
 363 0 l 1
 383 112 l 1
 496 112 l 1
 573 548 l 2
 615 790 816 778 816 986 c 0
 816 1066 771 1109 753 1124 c 1
 601 1039 l 1
 467 1130 l 17
 411 1106 349 1051 322 985 c 1
 361 1011 404 1024 449 1024 c 0
 547 1024 614 955 614 863 c 0
399 746 m 0
 453 746 498 792 498 845 c 0
 498 886 468 914 428 914 c 0
 374 914 328 865 328 814 c 0
 328 775 355 746 399 746 c 0
EndSplineSet
EndChar

StartChar: uni0E0C
Encoding: 3596 3596 135
Width: 1863
VWidth: 2045
Flags: W
HStem: 0 112<400.517 551.566 912.738 1060> 279 112<429.931 563.301 927.489 1057.48> 1142 112<617.285 973.826>
VStem: 282 114<117.871 259.505> 569 116<130.498 274.26> 793 114<116.715 260.326> 1126 114<548.898 992.19>
DStem2: 250.44 0 363.23 0 0.173648 0.984808<398.34 775.759> 985.232 0 1098.46 0 0.173648 0.984808<392.228 839.879> 1160 349 1191 199 0.884242 -0.467029<97.4659 481.769> 1564.14 0 1677 0 0.173648 0.984808<125.913 1273.3>
LayerCount: 2
Fore
SplineSet
1026 391 m 0
 907 391 793 285 793 162 c 0
 793 70 860 0 958 0 c 0
 1064 0 1170 78 1191 199 c 9
 1564 0 l 1
 1677 0 l 9
 1898 1254 l 9
 1785 1254 l 17
 1586 124 l 25
 1160 349 l 9
 1233 764 l 2
 1238 793 1240 820 1240 848 c 0
 1240 1078 1068 1254 825 1254 c 256
 557 1254 293 1040 245 764 c 1
 385 764 l 17
 285 196 l 18
 283 184 282 172 282 161 c 0
 282 67 352 0 448 0 c 0
 579 0 685 116 685 230 c 0
 685 320 619 391 517 391 c 0
 486 391 457 385 429 373 c 9
 498 764 l 9
 611 764 l 1
 630 876 l 1
 393 876 l 17
 507 1087 687 1142 805 1142 c 256
 989 1142 1126 1009 1126 829 c 0
 1126 808 1124 786 1120 764 c 2
 1054 390 l 17
 1046 391 1037 391 1026 391 c 0
1078 210 m 0
 1078 162 1037 112 979 112 c 0
 936 112 907 142 907 181 c 0
 907 235 958 279 1008 279 c 0
 1051 279 1078 248 1078 210 c 0
569 209 m 0
 569 151 515 112 468 112 c 0
 425 112 396 142 396 181 c 0
 396 235 447 279 497 279 c 0
 541 279 569 247 569 209 c 0
EndSplineSet
EndChar

StartChar: uni0E0D
Encoding: 3597 3597 136
Width: 1864
VWidth: 2045
Flags: W
HStem: -548 149<971.191 1230.79> -231 112<984.397 1130> 0 112<402.35 549.889 1118 1585> 279 112<430.954 563.498> 764 112<499 611> 1142 112<622.488 974.375>
VStem: 283 114<116.708 259.505> 569 116<130.833 274.475> 849 116<-394.298 -251.521> 1136 116<-380.609 -235.399 621.062 973.326>
DStem2: 154.813 -548 267.603 -548 0.173648 0.984808<954.794 1332.21> 888.373 -548 1001.62 -548 0.173648 0.984808<689.847 1396.37> 1468.18 -548 1581.18 -548 0.173648 0.984808<280.176 453.896 670.258 1829.81>
LayerCount: 2
Fore
SplineSet
1252 -287 m 0
 1252 -343 1234 -397 1153 -450 c 1
 1317 -438 1512 -301 1547 -101 c 9
 1660 -101 l 17
 1617 -347 1378 -548 1129 -548 c 0
 911 -548 849 -442 849 -357 c 0
 849 -247 946 -119 1085 -119 c 0
 1182 -119 1252 -190 1252 -287 c 0
1036 -399 m 0
 1090 -399 1136 -352 1136 -301 c 0
 1136 -263 1109 -231 1065 -231 c 0
 1009 -231 965 -283 965 -331 c 0
 965 -373 997 -399 1036 -399 c 0
685 229 m 0
 685 108 573 0 448 0 c 0
 347 0 283 71 283 161 c 0
 283 172 284 184 286 196 c 2
 386 764 l 1
 245 764 l 1
 292 1034 553 1254 825 1254 c 256
 1066 1254 1241 1082 1241 849 c 0
 1241 822 1238 793 1233 764 c 2
 1118 112 l 1
 1585 112 l 1
 1786 1254 l 1
 1899 1254 l 1
 1678 0 l 17
 985 0 l 1
 1120 764 l 2
 1124 786 1126 808 1126 829 c 0
 1126 1007 993 1142 805 1142 c 256
 687 1142 508 1087 394 876 c 1
 630 876 l 1
 611 764 l 1
 499 764 l 1
 430 373 l 1
 459 385 488 391 518 391 c 0
 618 391 685 321 685 229 c 0
469 112 m 0
 523 112 569 159 569 210 c 0
 569 252 537 279 498 279 c 0
 448 279 397 235 397 181 c 0
 397 139 428 112 469 112 c 0
EndSplineSet
Substitution2: "'ccmp' Pali-Sanskrit Descender Removal" uni0E0D.descless
Substitution2: "Thai Descender Removal Single Substitution" uni0E0D.descless
EndChar

StartChar: uni0E0E
Encoding: 3598 3598 137
Width: 1373
VWidth: 2045
Flags: W
HStem: -541 112<505.598 655.927> -261 111<522.801 670.008> 0 112<247.984 394.219> 279 112<262.457 408.735> 764 112<492 513 626 739> 1142 112<720.501 1072.49>
VStem: 128 114<118.472 259.922> 387 115<-424.094 -281.1> 1225 115<685.744 991.587>
DStem2: 272.963 -597 386.173 -597 0.173648 0.984808<984.964 1382.01> 978.561 -597 1091.85 -597 0.173648 0.984808<221.363 1446.16>
AnchorPoint: "BelowBase" 1034 -625 basechar 0
LayerCount: 2
Fore
SplineSet
128 161 m 0
 128 284 241 391 362 391 c 0
 393 391 421 385 444 373 c 9
 513 764 l 9
 344 764 l 1
 391 1034 652 1254 924 1254 c 256
 1165 1254 1340 1081 1340 849 c 0
 1340 821 1337 793 1332 764 c 2
 1122 -426 l 17
 919 -597 l 17
 774 -424 l 17
 705 -483 l 2
 658 -522 608 -541 554 -541 c 0
 454 -541 387 -470 387 -379 c 0
 387 -256 501 -150 624 -150 c 0
 678 -150 721 -169 754 -207 c 1
 802 -266 l 9
 895 -187 l 1
 962 -266 l 1
 869 -344 l 25
 947 -438 l 9
 1017 -379 l 9
 1219 764 l 2
 1223 786 1225 808 1225 829 c 0
 1225 1009 1088 1142 904 1142 c 256
 788 1142 599 1085 492 876 c 9
 758 876 l 1
 739 764 l 1
 626 764 l 17
 526 196 l 2
 506 87 404 0 294 0 c 0
 194 0 128 70 128 161 c 0
574 -429 m 0
 630 -429 675 -380 675 -331 c 0
 675 -294 649 -261 604 -261 c 0
 548 -261 502 -311 502 -362 c 0
 502 -403 533 -429 574 -429 c 0
314 112 m 0
 368 112 413 158 413 211 c 0
 413 251 383 279 343 279 c 0
 293 279 242 235 242 181 c 0
 242 139 273 112 314 112 c 0
EndSplineSet
EndChar

StartChar: uni0E0F
Encoding: 3599 3599 138
Width: 1373
VWidth: 2045
Flags: W
HStem: -571 112<260.062 408.711> -292 112<275.293 421.99> 0 112<247.984 394.219> 279 112<262.457 408.735> 764 112<492 513 626 739> 1142 112<720.501 1072.49>
VStem: 140 115<-453.061 -311.031 114.715 266.096> 1225 115<562.305 993.029>
DStem2: 271.729 -604 384.938 -604 0.173648 0.984808<992.072 1389.11> 977.737 -604 1090.67 -604 0.173648 0.984808<220.348 1453.2>
AnchorPoint: "BelowBase" 988 -661 basechar 0
LayerCount: 2
Fore
SplineSet
140 -410 m 0
 140 -286 255 -180 374 -180 c 0
 429 -180 472 -199 504 -237 c 2
 555 -296 l 9
 648 -218 l 1
 713 -296 l 1
 620 -375 l 25
 679 -447 l 1
 835 -314 l 25
 945 -447 l 9
 1016 -387 l 9
 1219 764 l 2
 1223 786 1225 808 1225 829 c 0
 1225 1009 1088 1142 904 1142 c 256
 788 1142 599 1085 492 876 c 9
 758 876 l 1
 739 764 l 1
 626 764 l 17
 526 196 l 2
 506 87 404 0 294 0 c 0
 194 0 128 70 128 161 c 0
 128 284 241 391 362 391 c 0
 393 391 421 385 444 373 c 9
 513 764 l 9
 344 764 l 1
 391 1034 652 1254 924 1254 c 256
 1165 1254 1340 1081 1340 849 c 0
 1340 821 1337 793 1332 764 c 2
 1121 -432 l 17
 917 -604 l 17
 807 -473 l 25
 651 -604 l 1
 527 -455 l 17
 455 -514 l 2
 410 -552 360 -571 305 -571 c 0
 207 -571 140 -502 140 -410 c 0
326 -459 m 0
 379 -459 426 -414 426 -361 c 0
 426 -320 396 -292 356 -292 c 0
 300 -292 255 -342 255 -392 c 0
 255 -433 286 -459 326 -459 c 0
314 112 m 0
 368 112 413 158 413 211 c 0
 413 251 383 279 343 279 c 0
 293 279 242 235 242 181 c 0
 242 139 273 112 314 112 c 0
EndSplineSet
EndChar

StartChar: uni0E10
Encoding: 3600 3600 139
Width: 1192
VWidth: 2045
Flags: W
HStem: -733 112<62.0921 210.744> -453 112<73.5018 224.94 700.245 838.141> -187 112<716.803 865.869> 0 21G<705.225 820.888> 296 112<494.707 645.224> 574 112<509.709 657.925> 764 112<401 940.198> 1142 112<626.711 983.466>
VStem: -55 111<-614.287 -472.052> 377 114<412.13 556.84> 583 115<-350.284 -205.679> 871 115<-334.052 -191.955> 953 116<539.734 751.055>
DStem2: 805 266 813 0 0.366887 0.930266<0 428.199>
LayerCount: 2
Fore
SplineSet
799 -187 m 0xfff0
 750 -187 698 -230 698 -285 c 0
 698 -323 725 -355 769 -355 c 0
 828 -355 871 -301 871 -256 c 0
 871 -218 843 -187 799 -187 c 0xfff0
329 -616 m 0
129 -621 m 0
 181 -621 229 -576 229 -520 c 0
 229 -479 198 -453 158 -453 c 0
 108 -453 56 -496 56 -549 c 0
 56 -588 84 -621 129 -621 c 0
583 -305 m 0
 583 -189 690 -75 821 -75 c 0
 921 -75 986 -146 986 -237 c 0
 986 -248 985 -260 983 -272 c 2
 926 -595 l 1
 722 -766 l 17
 611 -634 l 25
 457 -766 l 1
 330 -616 l 17
 259 -675 l 2
 213 -714 164 -733 110 -733 c 0
 14 -733 -55 -664 -55 -571 c 0
 -55 -457 51 -341 180 -341 c 0
 233 -341 276 -360 308 -399 c 2
 358 -459 l 9
 451 -379 l 1
 517 -459 l 1
 423 -538 l 25
 485 -607 l 1
 640 -476 l 25
 750 -607 l 9
 821 -548 l 1
 839 -449 l 17
 810 -461 781 -467 750 -467 c 0
 650 -467 583 -396 583 -305 c 0
377 457 m 0
 377 574 485 686 612 686 c 0
 686 686 767 646 778 529 c 1
 805 266 l 17
 946 631 l 18
 948 634 953 646 953 669 c 0
 953 723 919 764 859 764 c 2
 252 764 l 1
 297 1019 546 1254 832 1254 c 256
 1031 1254 1162 1143 1217 1006 c 9
 1111 949 l 17
 1042 1122 882 1142 812 1142 c 256
 628 1142 469 1015 401 876 c 1
 878 876 l 2
 986 876 1069 802 1069 693 c 0xffe8
 1069 667 1064 638 1052 606 c 10
 813 0 l 1
 707 0 l 1
 677 338 l 17
 645 310 600 296 543 296 c 0
 444 296 377 367 377 457 c 0
561 408 m 0
 611 408 663 450 663 505 c 0
 663 547 630 574 590 574 c 0
 536 574 491 528 491 474 c 0
 491 435 520 408 561 408 c 0
EndSplineSet
Substitution2: "'ccmp' Pali-Sanskrit Descender Removal" uni0E10.descless
Substitution2: "Thai Descender Removal Single Substitution" uni0E10.descless
EndChar

StartChar: uni0E11
Encoding: 3601 3601 140
Width: 1573
VWidth: 2045
Flags: W
HStem: 0 21G<534 658.375 1287 1403.53> 633 113<389.853 536.669> 914 110<402.556 550.549> 1142 112<1278.72 1454.81>
VStem: 240 144<753.129 963.119> 556 115<763.573 908.588> 862 116<846.391 1120.69> 1470 115<950.183 1128.15>
DStem2: 534.189 0 646.691 0 0.173648 0.984808<332.287 701.876> 701 308 647 0 0.494387 0.869242<0 1037.97> 1287 0 1400 0 0.173648 0.984808<19.6222 1062.59>
LayerCount: 2
Fore
SplineSet
457 746 m 0
 511 746 556 792 556 845 c 0
 556 886 526 914 486 914 c 0
 435 914 384 869 384 814 c 0
 384 773 417 746 457 746 c 0
831 1254 m 1
 863 1242 978 1159 978 1012 c 0
 978 756 772 721 735 498 c 1
 701 308 l 17
 1161 1115 l 2
 1185 1158 1269 1254 1394 1254 c 16
 1508 1254 1585 1172 1585 1068 c 0
 1585 1056 1584 1043 1582 1030 c 2
 1400 0 l 1
 1287 0 l 1
 1468 1027 l 18
 1469 1034 1470 1041 1470 1047 c 0
 1470 1101 1430 1142 1375 1142 c 8
 1311 1142 1271 1096 1255 1069 c 2
 647 0 l 1
 534 0 l 1
 622 498 l 2
 672 781 862 771 862 1001 c 0
 862 1084 825 1119 811 1124 c 1
 659 1039 l 1
 525 1130 l 17
 506 1126 411 1076 370 976 c 1
 425 1008 470 1024 506 1024 c 0
 603 1024 671 955 671 862 c 0
 671 738 557 633 437 633 c 0
 353 633 240 676 240 842 c 0
 240 1107 449 1226 561 1254 c 1
 682 1171 l 1
 831 1254 l 1
EndSplineSet
EndChar

StartChar: uni0E12
Encoding: 3602 3602 141
Width: 1916
VWidth: 2045
Flags: W
HStem: 0 112<950.454 1097.71> 279 112<962.281 1095.77> 820 112<704.849 852.171> 1234 20G<563 643.536 1074.71 1151.5 1835.48 1951>
VStem: 572 115<656.547 801.648> 831 114<116.076 260.229> 858 115<670.686 815.108> 1191 114<851.291 1087.98>
DStem2: 149 0 261.788 0 0.173648 0.984808<182.054 1107.18> 290 160 262 0 0.722541 0.691328<0 559.451> 614 1254 583 1130 0.828186 -0.560453<22.182 269.314> 837 1103 815 973 0.875891 0.482509<0 262.65> 1023.23 0 1136.46 0 0.173648 0.984808<392.552 983.796> 1198 349 1229 199 0.891178 -0.453654<95.6746 495.973> 1618.14 0 1730 0 0.173648 0.984808<125.913 1273.3>
LayerCount: 2
Fore
SplineSet
757 652 m 0xfb
 817 652 858 706 858 750 c 0
 858 788 831 820 787 820 c 0
 741 820 687 780 687 720 c 0
 687 678 718 652 757 652 c 0xfb
572 703 m 0
 572 817 677 932 806 932 c 0
 907 932 973 860 973 770 c 0xfb
 973 710 944 653 887 598 c 2
 262 0 l 17
 149 0 l 9
 312 927 l 2
 347 1123 512 1226 614 1254 c 9
 837 1103 l 1
 1111 1254 l 17
 1192 1230 1305 1146 1305 990 c 0
 1305 971 1304 950 1300 929 c 2
 1198 349 l 17
 1640 124 l 25
 1839 1254 l 9
 1951 1254 l 17
 1730 0 l 17
 1618 0 l 1
 1229 199 l 17
 1208 78 1102 0 996 0 c 0
 897 0 831 70 831 161 c 0xfd
 831 284 944 391 1066 391 c 0
 1074 391 1083 391 1092 390 c 9
 1187 929 l 2
 1190 944 1191 957 1191 970 c 0
 1191 1064 1130 1113 1100 1130 c 9
 815 973 l 1
 583 1130 l 17
 534 1108 447 1049 425 927 c 2
 290 160 l 25
 694 547 l 1
 614 564 572 631 572 703 c 0
1016 112 m 0
 1068 112 1116 157 1116 210 c 0
 1116 249 1088 279 1045 279 c 0
 985 279 945 227 945 180 c 0xfd
 945 141 972 112 1016 112 c 0
EndSplineSet
EndChar

StartChar: uni0E13
Encoding: 3603 3603 142
Width: 1898
VWidth: 2045
Flags: W
HStem: 0 112<401.817 551.252 1527.73 1675.89> 279 112<429.954 563.205> 764 112<498 611> 1142 112<616.867 973.487>
VStem: 282 114<116.708 259.505> 569 115<129.884 273.862> 1126 115<558.68 993.029> 1407 115<118.333 172> 1694 116<129.528 273.518>
DStem2: 250.44 0 363.23 0 0.173648 0.984808<398.34 775.759> 985 0 1097.9 0 0.173648 0.984808<152.626 839.92> 1121 131 1098 0 0.874256 0.485464<0 270.816> 1517.64 0 1630.64 0 0.173648 0.984808<395.254 1273.39>
LayerCount: 2
Fore
SplineSet
1810 230 m 0
 1810 113 1701 0 1574 0 c 0
 1472 0 1407 72 1407 157 c 0
 1407 162 1408 167 1408 172 c 9
 1098 0 l 1
 985 0 l 9
 1120 764 l 2
 1124 786 1126 808 1126 829 c 0
 1126 1009 989 1142 805 1142 c 256
 686 1142 507 1087 393 876 c 9
 630 876 l 1
 611 764 l 1
 498 764 l 17
 429 373 l 17
 458 385 487 391 517 391 c 0
 619 391 684 319 684 229 c 0
 684 114 578 0 448 0 c 0
 347 0 282 71 282 161 c 0
 282 172 283 184 285 196 c 10
 385 764 l 9
 245 764 l 1
 293 1039 556 1254 825 1254 c 256
 1066 1254 1241 1081 1241 849 c 0
 1241 821 1238 793 1233 764 c 2
 1121 131 l 25
 1537 362 l 2
 1552 371 1568 377 1585 382 c 9
 1739 1254 l 9
 1852 1254 l 17
 1698 382 l 17
 1744 369 1810 319 1810 230 c 0
1624 279 m 0
 1565 279 1522 227 1522 181 c 0
 1522 139 1555 112 1595 112 c 0
 1649 112 1694 158 1694 211 c 0
 1694 251 1664 279 1624 279 c 0
468 112 m 0
 515 112 569 151 569 209 c 0
 569 248 540 279 497 279 c 0
 447 279 396 235 396 181 c 0
 396 139 427 112 468 112 c 0
EndSplineSet
EndChar

StartChar: uni0E14
Encoding: 3604 3604 143
Width: 1301
VWidth: 2045
Flags: W
HStem: 0 21G<165 298.334 1012 1128.53> 820 112<704.849 852.171> 1142 112<669.524 1011.01>
VStem: 572 115<656.918 801.254> 858 115<671.358 815.145> 1155 115<699.278 1000.51>
DStem2: 165 0 277.788 0 0.173648 0.984808<182.054 995.012> 306 160 278 0 0.712946 0.701219<0 547.995> 1012 0 1125 0 0.173648 0.984808<19.6222 854.009>
LayerCount: 2
Fore
SplineSet
572 702 m 0
 572 816 677 932 806 932 c 0
 907 932 973 857 973 772 c 0
 973 742 965 675 886 598 c 2
 278 0 l 1
 165 0 l 1
 302 776 l 2
 348 1040 599 1254 865 1254 c 0
 1098 1254 1270 1089 1270 861 c 0
 1270 833 1267 805 1262 776 c 2
 1125 0 l 1
 1012 0 l 1
 1149 776 l 2
 1153 799 1155 821 1155 843 c 0
 1155 1021 1020 1142 846 1142 c 0
 653 1142 451 990 415 776 c 1
 306 160 l 1
 694 547 l 1
 618 564 572 626 572 702 c 0
757 652 m 0
 817 652 858 706 858 750 c 0
 858 788 831 820 787 820 c 0
 741 820 687 780 687 720 c 0
 687 678 718 652 757 652 c 0
EndSplineSet
EndChar

StartChar: uni0E15
Encoding: 3605 3605 144
Width: 1301
VWidth: 2045
Flags: W
HStem: 0 21G<165 298.368 1008 1124.52> 820 112<704.849 852.171> 1234 20G<577.5 657.417 1061.7 1136>
VStem: 572 115<656.547 801.648> 858 115<670.059 815.108> 1175 115<848.364 1092.63>
DStem2: 165 0 277.788 0 0.173648 0.984808<182.054 1107.07> 306 160 278 0 0.713521 0.700633<0 547.991> 630 1254 598 1130 0.810187 -0.586172<27.366 256.221> 837 1103 815 973 0.864475 0.502676<0 246.364> 1008 0 1121 0 0.173648 0.984808<19.6222 984.601>
LayerCount: 2
Fore
SplineSet
572 703 m 0
 572 817 677 932 806 932 c 0
 907 932 973 860 973 770 c 0
 973 735 965 673 887 598 c 1
 278 0 l 17
 165 0 l 9
 328 927 l 2
 363 1123 525 1226 630 1254 c 9
 837 1103 l 1
 1096 1254 l 17
 1176 1230 1290 1145 1290 989 c 0
 1290 970 1288 949 1284 927 c 2
 1121 0 l 1
 1008 0 l 1
 1171 927 l 2
 1174 943 1175 957 1175 971 c 0
 1175 1064 1116 1113 1085 1130 c 9
 815 973 l 1
 598 1130 l 17
 552 1109 462 1048 441 927 c 2
 306 160 l 25
 694 547 l 1
 614 564 572 631 572 703 c 0
757 652 m 0
 817 652 858 706 858 750 c 0
 858 788 831 820 787 820 c 0
 741 820 687 780 687 720 c 0
 687 678 718 652 757 652 c 0
EndSplineSet
EndChar

StartChar: uni0E16
Encoding: 3606 3606 145
Width: 1248
VWidth: 2045
Flags: W
HStem: 0 112<401.817 551.252> 279 112<429.954 563.205> 764 112<498 611> 1142 112<616.6 973.487>
VStem: 282 114<116.708 259.505> 569 115<129.884 273.862> 1126 115<687.408 991.587>
DStem2: 250.44 0 363.23 0 0.173648 0.984808<398.34 775.759> 985 0 1098 0 0.173648 0.984808<19.6222 839.92>
LayerCount: 2
Fore
SplineSet
497 279 m 0
 447 279 396 235 396 181 c 0
 396 139 427 112 468 112 c 0
 515 112 569 151 569 209 c 0
 569 248 540 279 497 279 c 0
684 229 m 0
 684 114 578 0 448 0 c 0
 347 0 282 71 282 161 c 0
 282 172 283 184 285 196 c 10
 385 764 l 9
 245 764 l 1
 293 1039 556 1254 825 1254 c 256
 1066 1254 1241 1081 1241 849 c 0
 1241 821 1238 793 1233 764 c 2
 1098 0 l 1
 985 0 l 1
 1120 764 l 2
 1124 786 1126 808 1126 829 c 0
 1126 1009 989 1142 805 1142 c 256
 688 1142 503 1086 393 876 c 9
 630 876 l 1
 611 764 l 1
 498 764 l 17
 429 373 l 17
 458 385 487 391 517 391 c 0
 619 391 684 319 684 229 c 0
EndSplineSet
EndChar

StartChar: uni0E17
Encoding: 3607 3607 146
Width: 1338
VWidth: 2045
Flags: W
HStem: 861 112<364.119 496.866> 1142 112<379.159 526.079 1069.97 1249.38>
VStem: 245 115<978.744 1122.91> 531 114<907.672 1136.16> 1262 115<950.183 1030 1050 1128.66>
DStem2: 343 0 455.691 0 0.173648 0.984808<332.32 892.561> 510 308 456 0 0.485087 0.874466<0 1028.79> 1079 0 1192 0 0.173648 0.984808<19.6222 1065.46>
LayerCount: 2
Fore
SplineSet
479 1254 m 0
 357 1254 245 1147 245 1022 c 0
 245 928 315 861 411 861 c 0
 442 861 471 867 498 879 c 1
 343 0 l 1
 456 0 l 1
 1049 1069 l 2
 1070 1108 1116 1142 1169 1142 c 16
 1223 1142 1262 1105 1262 1050 c 0
 1262 1042 1261 1035 1260 1027 c 10
 1079 0 l 1
 1192 0 l 1
 1374 1030 l 2
 1376 1043 1377 1056 1377 1069 c 0
 1377 1172 1304 1254 1188 1254 c 8
 1063 1254 976 1155 955 1115 c 2
 510 308 l 1
 642 1057 l 2
 644 1069 645 1081 645 1093 c 0
 645 1188 574 1254 479 1254 c 0
531 1071 m 0
 531 1027 488 973 430 973 c 0
 391 973 360 1001 360 1042 c 0
 360 1096 407 1142 459 1142 c 0
 503 1142 531 1110 531 1071 c 0
EndSplineSet
EndChar

StartChar: uni0E18
Encoding: 3608 3608 147
Width: 1120
VWidth: 2045
Flags: W
HStem: 0 112<224 337 450 840> 764 112<386 452 565 921.981> 1142 112<613.876 967.324>
VStem: 937 114<416.719 751.136>
DStem2: 317.251 0 430.251 0 0.173648 0.984808<133.35 775.792> 820.251 0 933 0 0.173648 0.984808<113.728 682.726>
LayerCount: 2
Fore
SplineSet
935 652 m 2
 936 659 937 666 937 673 c 0
 937 725 900 764 842 764 c 2
 565 764 l 17
 450 112 l 17
 840 112 l 25
 935 652 l 2
237 764 m 1
 284 1034 545 1254 817 1254 c 256
 1013 1254 1146 1143 1202 1009 c 9
 1095 953 l 17
 1051 1055 950 1142 797 1142 c 256
 634 1142 467 1041 386 876 c 9
 861 876 l 2
 978 876 1051 795 1051 691 c 0
 1051 679 1050 665 1048 652 c 2
 933 0 l 9
 204 0 l 1
 224 112 l 1
 337 112 l 25
 452 764 l 25
 237 764 l 1
EndSplineSet
EndChar

StartChar: uni0E19
Encoding: 3609 3609 148
Width: 1338
VWidth: 2045
Flags: W
HStem: 0 112<1017.46 1167.62> 861 112<372.928 505.307> 1142 112<387.145 534.503>
VStem: 253 115<979.028 1122.3> 539 114<907.711 1135.83> 899 114<117.971 194.743> 1185 115<130.663 273.979>
DStem2: 351 0 464.135 0 0.173648 0.984808<145.559 892.561> 486 124 464 0 0.916229 0.400656<0 409.998> 1008.64 0 1121.64 0 0.173648 0.984808<396.675 1273.39>
LayerCount: 2
Fore
SplineSet
1300 231 m 0
 1300 106 1185 0 1064 0 c 16
 969 0 899 67 899 161 c 0
 899 172 900 184 902 196 c 9
 464 0 l 17
 351 0 l 1
 506 879 l 1
 477 867 448 861 417 861 c 0
 319 861 253 930 253 1022 c 0
 253 1146 363 1254 487 1254 c 0
 584 1254 653 1186 653 1092 c 0
 653 1081 652 1069 650 1057 c 2
 486 124 l 9
 1028 362 l 2
 1054 373 1070 380 1076 382 c 9
 1230 1254 l 9
 1343 1254 l 17
 1189 382 l 17
 1237 369 1300 320 1300 231 c 0
1115 279 m 0
 1056 279 1013 227 1013 181 c 0
 1013 139 1046 112 1086 112 c 0
 1140 112 1185 158 1185 211 c 0
 1185 251 1155 279 1115 279 c 0
439 973 m 0
 489 973 539 1019 539 1071 c 0
 539 1110 512 1142 468 1142 c 0
 418 1142 368 1098 368 1043 c 0
 368 1005 395 973 439 973 c 0
EndSplineSet
EndChar

StartChar: uni0E1A
Encoding: 3610 3610 149
Width: 1391
VWidth: 2045
Flags: W
HStem: 0 112<297 410 523 1121> 861 112<410.233 543.639> 1142 112<425.168 571.938>
VStem: 292 114<978.871 1123.02> 578 114<905.874 1136.03>
DStem2: 390.251 0 503.251 0 0.173648 0.984808<133.35 892.518> 1101.25 0 1214 0 0.173648 0.984808<113.728 1273.28>
LayerCount: 2
Fore
SplineSet
292 1022 m 0
 292 1152 409 1254 527 1254 c 0
 624 1254 692 1185 692 1093 c 0
 692 1081 691 1069 689 1057 c 2
 523 112 l 1
 1121 112 l 25
 1322 1254 l 25
 1435 1254 l 25
 1214 0 l 9
 277 0 l 1
 297 112 l 1
 410 112 l 17
 545 879 l 1
 517 867 488 861 457 861 c 0
 362 861 292 928 292 1022 c 0
478 973 m 0
 538 973 578 1027 578 1072 c 0
 578 1111 551 1142 507 1142 c 0
 453 1142 406 1094 406 1042 c 0
 406 1003 435 973 478 973 c 0
EndSplineSet
EndChar

StartChar: uni0E1B
Encoding: 3611 3611 150
Width: 1391
VWidth: 2045
Flags: W
HStem: 0 112<297 410 523 1121> 861 112<410.233 543.639> 1142 112<425.168 571.938>
VStem: 292 114<978.871 1123.02> 578 114<905.874 1136.03>
DStem2: 390.251 0 503.251 0 0.173648 0.984808<133.35 892.518> 1101.25 0 1214 0 0.173648 0.984808<113.728 1860.21>
AnchorPoint: "AboveBase" 1229 1370 basechar 0
LayerCount: 2
Fore
SplineSet
292 1022 m 0
 292 1152 409 1254 527 1254 c 0
 624 1254 692 1185 692 1093 c 0
 692 1081 691 1069 689 1057 c 2
 523 112 l 1
 1121 112 l 25
 1424 1832 l 25
 1537 1832 l 25
 1214 0 l 9
 277 0 l 1
 297 112 l 1
 410 112 l 17
 545 879 l 1
 517 867 488 861 457 861 c 0
 362 861 292 928 292 1022 c 0
478 973 m 0
 538 973 578 1027 578 1072 c 0
 578 1111 551 1142 507 1142 c 0
 453 1142 406 1094 406 1042 c 0
 406 1003 435 973 478 973 c 0
EndSplineSet
EndChar

StartChar: uni0E1C
Encoding: 3612 3612 151
Width: 1290
VWidth: 2045
Flags: W
HStem: 0 21G<162 292.828 1020.2 1148.52> 861 112<466.635 612.352> 1142 112<481.283 626.601>
VStem: 633 115<993.345 1135.36>
DStem2: 162 0 273.672 0 0.173648 0.984808<194.045 913.98> 304 172 274 0 0.685456 0.728114<0 534.04> 770 665 740 495 0.508084 -0.861307<131.18 572.985> 1031.67 0 1145 0 0.173648 0.984808<174.653 1273.38>
LayerCount: 2
Fore
SplineSet
748 1092 m 0
 748 970 635 861 512 861 c 0
 481 861 454 868 429 881 c 1
 304 172 l 25
 770 665 l 1
 1062 172 l 25
 1253 1254 l 9
 1366 1254 l 25
 1145 0 l 9
 1032 0 l 17
 740 495 l 25
 274 0 l 9
 162 0 l 25
 348 1054 l 18
 368 1166 472 1254 581 1254 c 0
 679 1254 748 1185 748 1092 c 0
561 1142 m 0
 510 1142 462 1098 462 1043 c 0
 462 1004 489 973 532 973 c 0
 590 973 633 1027 633 1071 c 0
 633 1110 605 1142 561 1142 c 0
EndSplineSet
EndChar

StartChar: uni0E1D
Encoding: 3613 3613 152
Width: 1290
VWidth: 2045
Flags: W
HStem: 0 21G<162 292.793 1020.29 1148.53> 861 112<466.635 612.352> 1142 112<481.283 626.601>
VStem: 633 115<993.345 1135.36>
DStem2: 162 0 273.906 0 0.173648 0.984808<186.978 913.98> 303 165 274 0 0.680451 0.732794<0 541.325> 771 669 741 497 0.497246 -0.867609<134.311 583.212> 1032.26 0 1145 0 0.173648 0.984808<165.515 1860.21>
AnchorPoint: "AboveBase" 1172 1370 basechar 0
LayerCount: 2
Fore
SplineSet
748 1092 m 0
 748 970 635 861 512 861 c 0
 481 861 454 868 429 881 c 1
 303 165 l 25
 771 669 l 1
 1061 163 l 25
 1355 1832 l 9
 1468 1832 l 25
 1145 0 l 9
 1032 0 l 17
 741 497 l 25
 274 0 l 9
 162 0 l 25
 348 1054 l 18
 368 1166 472 1254 581 1254 c 0
 679 1254 748 1185 748 1092 c 0
561 1142 m 0
 510 1142 462 1098 462 1043 c 0
 462 1004 489 973 532 973 c 0
 590 973 633 1027 633 1071 c 0
 633 1110 605 1142 561 1142 c 0
EndSplineSet
EndChar

StartChar: uni0E1E
Encoding: 3614 3614 153
Width: 1470
VWidth: 2045
Flags: W
HStem: 0 21G<345 468.302 1173.74 1293.52> 861 112<362.713 498.695> 1142 112<376.04 524.203>
VStem: 245 113<979.343 1122.21> 530 117<907.336 1136.6>
DStem2: 345 0 458.286 0 0.173648 0.984808<19.6222 104.513 375.071 894.531> 520 350 458 0 0.457916 0.888995<0 852.818> 1092 1254 1004 1060 0.161076 -0.986942<177.292 915.874> 1177.29 0 1290 0 0.173648 0.984808<355.399 1273.28>
LayerCount: 2
Fore
SplineSet
245 1022 m 0
 245 1148 358 1254 479 1254 c 0
 577 1254 647 1184 647 1089 c 0
 647 1077 646 1066 644 1054 c 2
 520 350 l 25
 985 1254 l 9
 1092 1254 l 17
 1239 350 l 25
 1398 1254 l 9
 1511 1254 l 25
 1290 0 l 9
 1177 0 l 17
 1004 1060 l 25
 458 0 l 9
 345 0 l 25
 500 881 l 1
 471 868 442 861 411 861 c 0
 312 861 245 930 245 1022 c 0
430 973 m 0
 480 973 530 1019 530 1071 c 0
 530 1110 503 1142 459 1142 c 0
 406 1142 358 1094 358 1044 c 0
 358 1005 386 973 430 973 c 0
EndSplineSet
EndChar

StartChar: uni0E1F
Encoding: 3615 3615 154
Width: 1470
VWidth: 2045
Flags: W
HStem: 0 21G<345 468.302 1173.74 1293.53> 861 112<362.713 498.695> 1142 112<376.04 524.203>
VStem: 245 113<979.343 1122.21> 530 117<907.336 1136.6>
DStem2: 345 0 458.286 0 0.173648 0.984808<19.6222 104.513 375.071 894.531> 520 350 458 0 0.457916 0.888995<0 852.818> 1092 1254 1004 1060 0.161076 -0.986942<177.292 915.874> 1177.29 0 1290 0 0.173648 0.984808<355.399 1860.21>
AnchorPoint: "AboveBase" 1277 1370 basechar 0
LayerCount: 2
Fore
SplineSet
245 1022 m 0
 245 1148 358 1254 479 1254 c 0
 577 1254 647 1184 647 1089 c 0
 647 1077 646 1066 644 1054 c 2
 520 350 l 25
 985 1254 l 9
 1092 1254 l 17
 1239 350 l 25
 1500 1832 l 9
 1613 1832 l 25
 1290 0 l 9
 1177 0 l 17
 1004 1060 l 25
 458 0 l 9
 345 0 l 25
 500 881 l 1
 471 868 442 861 411 861 c 0
 312 861 245 930 245 1022 c 0
430 973 m 0
 480 973 530 1019 530 1071 c 0
 530 1110 503 1142 459 1142 c 0
 406 1142 358 1094 358 1044 c 0
 358 1005 386 973 430 973 c 0
EndSplineSet
EndChar

StartChar: uni0E20
Encoding: 3616 3616 155
Width: 1373
VWidth: 2045
Flags: W
HStem: 0 112<245.986 394.415> 279 112<262.457 408.691> 1142 112<715.512 1072.83>
VStem: 128 114<116.715 260.108> 1225 114<686.868 764 829 989.909>
DStem2: 378.23 0 491.44 0 0.173648 0.984808<378.754 775.796> 1084 0 1197 0 0.173648 0.984808<19.6222 839.92>
LayerCount: 2
Fore
SplineSet
413 210 m 0
 413 162 372 112 314 112 c 0
 271 112 242 142 242 181 c 0
 242 235 293 279 343 279 c 0
 386 279 413 248 413 210 c 0
362 391 m 0
 241 391 128 284 128 162 c 0
 128 70 195 0 294 0 c 0
 405 0 507 88 526 196 c 2
 626 764 l 25
 739 764 l 1
 758 876 l 1
 492 876 l 17
 599 1085 788 1142 904 1142 c 256
 1088 1142 1225 1009 1225 829 c 0
 1225 808 1223 786 1219 764 c 2
 1084 0 l 1
 1197 0 l 1
 1332 764 l 2
 1337 793 1339 820 1339 848 c 0
 1339 1078 1167 1254 924 1254 c 256
 656 1254 392 1038 344 764 c 1
 513 764 l 25
 444 373 l 1
 419 385 392 391 362 391 c 0
EndSplineSet
EndChar

StartChar: uni0E21
Encoding: 3617 3617 156
Width: 1355
VWidth: 2045
Flags: W
HStem: 0 113<282.133 432.406> 281 110<296.086 447.007> 862 114<433.968 569.244> 1143 111<449.867 597.977>
VStem: 165 113<118.808 260.832> 317 113<980.645 1124.51> 603 113<905.948 1136.56>
DStem2: 415.23 0 526.988 0 0.173648 0.984808<378.754 894.491> 585 329 565 218 0.917244 -0.398325<25.8692 546.893> 1067.25 0 1180 0 0.173648 0.984808<113.728 1272.3>
LayerCount: 2
Fore
SplineSet
317 1022 m 0
 317 1143 425 1254 551 1254 c 0
 646 1254 716 1187 716 1093 c 0
 716 1081 715 1069 713 1057 c 2
 585 329 l 25
 1087 112 l 9
 1288 1253 l 1
 1401 1253 l 1
 1180 0 l 1
 1067 0 l 1
 565 218 l 17
 562 196 l 1
 542 86 439 0 330 0 c 0
 231 0 165 70 165 161 c 0
 165 285 279 391 398 391 c 0
 429 391 456 385 481 373 c 9
 570 881 l 1
 541 868 512 862 481 862 c 0
 385 862 317 931 317 1022 c 0
501 976 m 0
 558 976 603 1024 603 1073 c 0
 603 1112 574 1143 531 1143 c 0
 481 1143 430 1098 430 1044 c 0
 430 1002 462 976 501 976 c 0
349 113 m 0
 400 113 451 158 451 213 c 0
 451 255 418 281 379 281 c 0
 326 281 278 235 278 182 c 0
 278 142 309 113 349 113 c 0
EndSplineSet
EndChar

StartChar: uni0E22
Encoding: 3618 3618 157
Width: 1248
VWidth: 2045
Flags: W
HStem: 0 112<365 974> 622 112<472.386 791> 861 112<471.949 615.58> 1142 112<484.919 629.804>
VStem: 276 121<784.866 900> 636 115<992.542 1136>
DStem2: 232 0 345.251 0 0.173648 0.984808<133.394 635.776> 954.251 0 1067 0 0.173648 0.984808<113.728 1273.28>
LayerCount: 2
Fore
SplineSet
751 1092 m 0
 751 968 636 861 516 861 c 16
 467 861 427 874 397 900 c 1
 397 894 l 2
 397 850 419 734 586 734 c 10
 810 734 l 17
 791 622 l 1
 567 622 l 18
 502 622 446 570 435 511 c 10
 365 112 l 25
 974 112 l 25
 1175 1254 l 25
 1288 1254 l 25
 1067 0 l 9
 232 0 l 9
 322 511 l 2
 333 570 362 622 410 665 c 1
 350 690 276 755 276 892 c 0
 276 1078 391 1250 585 1254 c 1
 681 1254 751 1187 751 1092 c 0
565 1142 m 0
 512 1142 467 1094 467 1043 c 0
 467 1004 493 973 536 973 c 0
 586 973 636 1019 636 1071 c 0
 636 1110 609 1142 565 1142 c 0
EndSplineSet
EndChar

StartChar: uni0E23
Encoding: 3619 3619 158
Width: 1002
VWidth: 2045
Flags: W
HStem: 0 112<454.684 601.056> 279 112<469.457 615.797> 834 112<378 699.238> 1142 112<539.605 857.864>
VStem: 335 114<118.472 259.922> 714 115<489.695 818.595> 965 112<938.928 1030.82>
DStem2: 585.23 0 698.44 0 0.173648 0.984808<378.754 751.825>
LayerCount: 2
Fore
SplineSet
335 161 m 0
 335 284 448 391 569 391 c 0
 599 391 626 385 651 373 c 1
 712 722 l 18
 713 728 714 735 714 741 c 0
 714 791 676 834 619 834 c 2
 226 834 l 1
 266 1060 483 1254 723 1254 c 0
 934 1254 1063 1110 1077 942 c 9
 965 918 l 17
 956 1003 884 1142 704 1142 c 0
 529 1142 415 1010 378 946 c 9
 639 946 l 1
 754 943 829 865 829 762 c 0
 829 749 827 736 825 722 c 10
 733 196 l 2
 713 87 611 0 500 0 c 0
 401 0 335 70 335 161 c 0
521 112 m 0
 575 112 620 158 620 211 c 0
 620 251 590 279 550 279 c 0
 500 279 449 235 449 181 c 0
 449 139 480 112 521 112 c 0
EndSplineSet
EndChar

StartChar: uni0E24
Encoding: 3620 3620 159
Width: 1248
VWidth: 2045
Flags: W
HStem: 0 112<381.817 531.252> 279 112<409.954 543.205> 764 112<478 591> 1142 112<596.867 953.487>
VStem: 262 114<116.708 259.505> 549 115<129.884 273.862> 1106 115<685.63 991.587>
DStem2: 133.813 -548 246.603 -548 0.173648 0.984808<954.794 1332.21> 868 -548 981 -548 0.173648 0.984808<19.6222 1396.44>
LayerCount: 2
Fore
SplineSet
477 279 m 0
 427 279 376 235 376 181 c 0
 376 139 407 112 448 112 c 0
 495 112 549 151 549 209 c 0
 549 248 520 279 477 279 c 0
664 229 m 0
 664 114 558 0 428 0 c 0
 327 0 262 71 262 161 c 0
 262 172 263 184 265 196 c 10
 365 764 l 9
 225 764 l 1
 273 1039 536 1254 805 1254 c 256
 1046 1254 1221 1081 1221 849 c 0
 1221 821 1218 793 1213 764 c 2
 981 -548 l 1
 868 -548 l 1
 1100 764 l 2
 1104 786 1106 808 1106 829 c 0
 1106 1009 969 1142 785 1142 c 256
 666 1142 487 1087 373 876 c 9
 610 876 l 1
 591 764 l 1
 478 764 l 17
 409 373 l 17
 438 385 467 391 497 391 c 0
 599 391 664 319 664 229 c 0
EndSplineSet
EndChar

StartChar: uni0E25
Encoding: 3621 3621 160
Width: 1263
VWidth: 2045
Flags: W
HStem: 0 112<407.179 556.337> 279 112<435.55 568.756> 752 112<593.08 896.009> 1142 112<615.815 963.487>
VStem: 235 113<764 884.553> 287 114<118.639 336.269> 574 116<130.537 273.932> 1116 115<689.797 993.029>
DStem2: 975 0 1088 0 0.173648 0.984808<19.6222 443.862 696.59 839.92>
LayerCount: 2
Fore
SplineSet
503 279 m 0xf7
 450 279 401 233 401 181 c 0
 401 139 433 112 474 112 c 0
 526 112 574 157 574 210 c 0
 574 249 546 279 503 279 c 0xf7
690 229 m 0
 690 116 585 0 454 0 c 0
 352 0 287 71 287 161 c 0xf7
 287 172 288 184 290 196 c 10
 321 375 l 1
 393 782 610 864 746 864 c 256
 928 864 1041 770 1096 686 c 1
 1110 764 l 2
 1114 786 1116 808 1116 829 c 0
 1116 1009 979 1142 795 1142 c 256
 584 1142 384 971 348 764 c 9
 235 764 l 17xfb
 283 1039 546 1254 815 1254 c 256
 1056 1254 1231 1081 1231 849 c 0
 1231 821 1228 793 1223 764 c 2
 1088 0 l 1
 975 0 l 1
 1041 372 l 2
 1045 395 1047 418 1047 439 c 0
 1047 623 909 752 727 752 c 256
 600 752 510 642 482 566 c 0
 454 490 439 401 434 373 c 17
 463 385 492 391 522 391 c 0
 625 391 690 319 690 229 c 0
EndSplineSet
EndChar

StartChar: uni0E26
Encoding: 3622 3622 161
Width: 1373
VWidth: 2045
Flags: W
HStem: 0 112<245.986 394.415> 279 112<262.457 408.691> 1142 112<715.512 1072.83>
VStem: 128 114<116.715 260.108> 1225 114<685.302 764 829 989.909>
DStem2: 281.603 -548 394.813 -548 0.173648 0.984808<935.208 1332.25> 987 -548 1100 -548 0.173648 0.984808<19.6222 1396.44>
LayerCount: 2
Fore
SplineSet
413 210 m 0
 413 162 372 112 314 112 c 0
 271 112 242 142 242 181 c 0
 242 235 293 279 343 279 c 0
 386 279 413 248 413 210 c 0
362 391 m 0
 241 391 128 284 128 162 c 0
 128 70 195 0 294 0 c 0
 405 0 507 88 526 196 c 2
 626 764 l 25
 739 764 l 1
 758 876 l 1
 492 876 l 17
 599 1085 788 1142 904 1142 c 256
 1088 1142 1225 1009 1225 829 c 0
 1225 808 1223 786 1219 764 c 2
 987 -548 l 1
 1100 -548 l 1
 1332 764 l 2
 1337 793 1339 820 1339 848 c 0
 1339 1078 1167 1254 924 1254 c 256
 656 1254 392 1038 344 764 c 1
 513 764 l 25
 444 373 l 1
 419 385 392 391 362 391 c 0
EndSplineSet
EndChar

StartChar: uni0E27
Encoding: 3623 3623 162
Width: 1122
VWidth: 2045
Flags: W
HStem: 0 112<706.454 852.898> 279 112<721.513 867.844> 1142 112<559.135 881.419>
VStem: 249 113<834 948.994> 587 114<116.076 259.91> 989 114<615.109 1034.9>
DStem2: 837.23 0 950.44 0 0.173648 0.984808<378.754 900.032>
LayerCount: 2
Fore
SplineSet
772 112 m 0
 826 112 872 159 872 210 c 0
 872 252 840 279 801 279 c 0
 746 279 701 230 701 180 c 0
 701 141 728 112 772 112 c 0
587 161 m 0
 587 284 700 391 822 391 c 0
 853 391 880 385 903 373 c 1
 984 832 l 2
 987 851 989 870 989 888 c 0
 989 1038 879 1142 727 1142 c 0
 547 1142 392 1001 362 834 c 9
 249 834 l 17
 290 1066 515 1254 747 1254 c 0
 952 1254 1103 1105 1103 904 c 0
 1103 881 1101 857 1097 832 c 2
 985 196 l 2
 965 87 863 0 752 0 c 0
 653 0 587 70 587 161 c 0
EndSplineSet
EndChar

StartChar: uni0E28
Encoding: 3624 3624 163
Width: 1301
VWidth: 2045
Flags: W
HStem: 0 21G<171 294.504 1018 1134.53> 547 115<698.481 848.628> 828 111<713.257 860.679> 1142 112<670.66 1019.66>
VStem: 865 115<680.683 823.738> 1161 115<569.875 944.896>
DStem2: 171 0 283.865 0 0.173648 0.984808<19.6222 102.01 314.073 989.34> 335 290 284 0 0.464975 0.885324<0 414.203> 1018 0 1131 0 0.173648 0.984808<19.6222 852.085 1136.56 1356.91>
LayerCount: 2
Fore
SplineSet
852 1142 m 0
 657 1142 459 990 421 776 c 2
 335 290 l 1
 607 816 l 1
 629 854 703 939 814 939 c 0
 915 939 1007 971 1092 1036 c 1
 1061 1075 981 1142 852 1142 c 0
980 781 m 0
 980 656 868 547 744 547 c 0
 655 547 616 601 607 615 c 1
 284 0 l 1
 171 0 l 1
 308 776 l 2
 355 1044 609 1254 872 1254 c 0
 1038 1254 1136 1173 1180 1121 c 1
 1232 1183 1264 1253 1278 1332 c 1
 1391 1332 l 1
 1370 1212 1306 1103 1239 1033 c 1
 1255 990 1276 939 1276 863 c 0
 1276 837 1274 808 1268 776 c 2
 1131 0 l 1
 1018 0 l 1
 1155 776 l 2
 1159 798 1161 820 1161 841 c 0
 1161 878 1155 913 1143 947 c 1
 1048 879 981 863 962 855 c 1
 974 833 980 809 980 781 c 0
765 662 m 0
 812 662 865 701 865 759 c 0
 865 797 838 828 794 828 c 0
 740 828 694 779 694 730 c 0
 694 691 722 662 765 662 c 0
EndSplineSet
EndChar

StartChar: uni0E29
Encoding: 3625 3625 164
Width: 1483
VWidth: 2045
Flags: W
HStem: 0 112<297 410 523 1142> 432 150<815.055 1074.35> 749 112<827.377 975.972> 861 112<410.233 543.639> 1142 112<425.168 571.938>
VStem: 292 114<978.871 1123.02> 578 114<905.874 1136.03> 692 116<587.102 730.354> 981 115<601.672 744.658>
DStem2: 390.251 0 503.251 0 0.173648 0.984808<133.35 892.518> 1122.25 0 1235 0 0.173648 0.984808<113.728 499.589 598.823 676.868 912.14 1273.28>
LayerCount: 2
Fore
SplineSet
1096 700 m 0xed80
 1096 685 1096 612 1029 547 c 1
 1101 553 1168 581 1233 630 c 9
 1343 1254 l 9
 1456 1254 l 17
 1390 879 l 9
 1503 879 l 17
 1477 731 1391 632 1338 583 c 9
 1235 0 l 9
 277 0 l 1
 297 112 l 1
 410 112 l 17
 545 879 l 1
 517 867 488 861 457 861 c 0
 362 861 292 928 292 1022 c 0
 292 1152 409 1254 527 1254 c 0
 624 1254 692 1185 692 1093 c 0xde80
 692 1081 691 1069 689 1057 c 2
 523 112 l 1
 1142 112 l 17
 1209 492 l 17
 1133 452 1053 432 972 432 c 0
 756 432 692 538 692 625 c 0
 692 737 792 861 930 861 c 0
 1031 861 1096 790 1096 700 c 0xed80
478 973 m 0
 538 973 578 1027 578 1072 c 0
 578 1111 551 1142 507 1142 c 0
 453 1142 406 1094 406 1042 c 0
 406 1003 435 973 478 973 c 0
881 582 m 0
 934 582 981 629 981 682 c 0
 981 723 950 749 910 749 c 0
 849 749 808 696 808 652 c 0xed80
 808 612 837 582 881 582 c 0
EndSplineSet
EndChar

StartChar: uni0E2A
Encoding: 3626 3626 165
Width: 1263
VWidth: 2045
Flags: W
HStem: 0 112<417.179 566.337> 279 112<445.55 578.756> 752 112<603.946 904.672> 1142 112<625.815 977.448>
VStem: 245 113<764 884.553> 297 114<118.639 336.269> 584 116<130.537 273.932> 1126 115<708.09 881.25> 1286 113<1176.7 1311>
DStem2: 985 0 1098 0 0.173648 0.984808<19.6222 443.862 696.59 844.752>
LayerCount: 2
Fore
SplineSet
513 279 m 0xf780
 460 279 411 233 411 181 c 0
 411 139 443 112 484 112 c 0
 536 112 584 157 584 210 c 0
 584 249 556 279 513 279 c 0xf780
700 229 m 0
 700 116 595 0 464 0 c 0
 362 0 297 71 297 161 c 0xf780
 297 172 298 184 300 196 c 10
 331 375 l 1
 403 782 620 864 756 864 c 0
 862 864 978 899 1087 985 c 1
 1038 1075 939 1142 805 1142 c 256
 594 1142 394 971 358 764 c 9
 245 764 l 17xfb80
 293 1039 556 1254 825 1254 c 256
 986 1254 1110 1176 1175 1072 c 9
 1217 1127 1266 1197 1286 1311 c 9
 1399 1311 l 17
 1374 1167 1302 1056 1223 970 c 1
 1235 932 1241 892 1241 851 c 0
 1241 823 1238 794 1233 764 c 2
 1098 0 l 1
 985 0 l 1
 1051 372 l 2
 1055 395 1057 418 1057 439 c 0
 1057 623 919 752 737 752 c 256
 610 752 520 642 492 566 c 0
 464 490 449 401 444 373 c 17
 473 385 502 391 532 391 c 0
 635 391 700 319 700 229 c 0
1123 882 m 1
 1093 861 1034 823 984 804 c 9
 1015 781 1060 756 1106 686 c 1
 1120 764 l 2
 1124 788 1126 811 1126 834 c 0
 1126 850 1125 866 1123 882 c 1
EndSplineSet
EndChar

StartChar: uni0E2B
Encoding: 3627 3627 166
Width: 1338
VWidth: 2045
Flags: W
HStem: 0 21G<343 470.222 1079 1195.53> 831 142<1100.97 1193.85> 861 112<365.689 496.866> 1142 112<379.509 524.568 1117.31 1261.11>
VStem: 245 115<978.972 1122.74> 531 114<906.719 1135.66> 982 115<977.401 1122.17> 1207 116<640.316 817.958> 1267 115<990.34 1137.87>
DStem2: 343 0 455.561 0 0.173648 0.984808<240.909 892.561> 494 218 456 0 0.579508 0.814967<0 849.828> 1079 0 1192 0 0.173648 0.984808<19.6222 746.723>
LayerCount: 2
Fore
SplineSet
1382 1092 m 0xbe80
 1382 1014 1336 938 1265 896 c 1
 1282 878 1323 839 1323 761 c 0
 1323 748 1322 734 1319 719 c 2
 1192 0 l 1
 1079 0 l 1
 1205 717 l 18
 1206 723 1207 729 1207 736 c 0
 1207 776 1187 831 1114 831 c 8xdf
 1066 831 1037 817 995 758 c 2
 456 0 l 1
 343 0 l 1
 498 879 l 1
 471 867 442 861 411 861 c 0
 312 861 245 930 245 1022 c 0
 245 1148 358 1254 479 1254 c 0
 577 1254 645 1185 645 1093 c 0
 645 1081 644 1069 642 1057 c 2
 494 218 l 1
 900 804 l 2
 940 860 968 889 1021 915 c 1
 996 946 982 980 982 1019 c 0
 982 1148 1097 1254 1217 1254 c 0
 1312 1254 1382 1186 1382 1092 c 0xbe80
1168 973 m 0
 1226 973 1267 1025 1267 1072 c 0xde80
 1267 1111 1240 1142 1197 1142 c 0
 1141 1142 1097 1093 1097 1042 c 0
 1097 1003 1125 973 1168 973 c 0
430 973 m 0xbe
 488 973 531 1027 531 1071 c 0
 531 1110 503 1142 459 1142 c 0
 408 1142 360 1098 360 1043 c 0
 360 1004 387 973 430 973 c 0xbe
EndSplineSet
EndChar

StartChar: uni0E2C
Encoding: 3628 3628 167
Width: 1445
VWidth: 2045
Flags: W
HStem: 0 21G<345 468.302 1173.74 1293.52> 861 112<362.713 498.695> 1142 112<376.04 524.203> 1229 112<1260.28 1396.26> 1509 112<1276.71 1423.24>
VStem: 245 113<979.343 1122.21> 530 117<907.336 1136.6> 1141 115<1345.95 1489.47> 1429 116<1441 1503.53>
DStem2: 345 0 458.286 0 0.173648 0.984808<19.6222 105.419 375.071 894.531> 1092 1254 1004 1060 0.161076 -0.986942<177.292 915.874> 1177.29 0 1290 0 0.173648 0.984808<355.399 1267.19>
AnchorPoint: "AboveBase" 1071 1370 basechar 0
LayerCount: 2
Fore
SplineSet
1328 1341 m 0xdf80
 1377 1341 1429 1384 1429 1439 c 0
 1429 1477 1402 1509 1358 1509 c 0
 1299 1509 1256 1455 1256 1410 c 0
 1256 1372 1284 1341 1328 1341 c 0xdf80
1141 1391 m 0
 1141 1515 1255 1621 1376 1621 c 0
 1480 1621 1545 1543 1545 1456 c 0
 1545 1451 1544 1446 1544 1441 c 9
 1644 1494 l 9
 1684 1397 l 17
 1521 1311 l 25
 1290 0 l 9
 1177 0 l 17
 1004 1060 l 25
 458 0 l 9
 345 0 l 25
 500 881 l 1
 471 868 442 861 411 861 c 0
 312 861 245 930 245 1022 c 0
 245 1148 358 1254 479 1254 c 0
 577 1254 647 1184 647 1089 c 0
 647 1077 646 1066 644 1054 c 2
 520 350 l 25
 985 1254 l 9
 1092 1254 l 17xef80
 1239 350 l 17
 1397 1248 l 1
 1368 1235 1339 1229 1309 1229 c 0
 1208 1229 1141 1300 1141 1391 c 0
430 973 m 0
 480 973 530 1019 530 1071 c 0
 530 1110 503 1142 459 1142 c 0
 406 1142 358 1094 358 1044 c 0
 358 1005 386 973 430 973 c 0
EndSplineSet
EndChar

StartChar: uni0E2D
Encoding: 3629 3629 168
Width: 1230
VWidth: 2045
Flags: W
HStem: 0 112<447 990> 468 112<550.118 695.733> 749 112<566.284 710.411> 1142 112<610.483 960.092>
VStem: 230 113<764 884.94> 716 114<599.572 744.694> 1111 114<549.594 991.128>
DStem2: 314 0 427.251 0 0.173648 0.984808<133.394 515.142> 970.251 0 1083 0 0.173648 0.984808<113.728 839.876>
LayerCount: 2
Fore
SplineSet
830 699 m 0
 830 575 718 468 595 468 c 0
 566 468 538 475 513 488 c 1
 447 112 l 25
 990 112 l 17
 1105 764 l 2
 1109 786 1111 808 1111 829 c 0
 1111 1008 976 1142 789 1142 c 256
 582 1142 377 972 343 764 c 9
 230 764 l 17
 278 1037 539 1254 809 1254 c 256
 1059 1254 1225 1075 1225 847 c 0
 1225 820 1223 792 1218 764 c 2
 1083 0 l 9
 314 0 l 9
 431 662 l 18
 451 776 559 861 666 861 c 0
 763 861 830 792 830 699 c 0
646 749 m 0
 596 749 546 703 546 649 c 0
 546 611 573 580 616 580 c 0
 666 580 716 626 716 679 c 0
 716 718 689 749 646 749 c 0
EndSplineSet
EndChar

StartChar: uni0E2E
Encoding: 3630 3630 169
Width: 1192
VWidth: 2045
Flags: W
HStem: 0 112<319 900> 402 112<409.906 558.823> 680 112<425.031 571.41> 882 103<469.018 886.12> 1142 109<494.5 871.047>
VStem: 334 123<1009.98 1105.85> 576 114<532.265 675.298> 1021 116<560.656 975.305>
DStem2: 186 0 299.251 0 0.173648 0.984808<133.394 446.091> 880.251 0 993 0 0.173648 0.984808<113.728 840.906>
LayerCount: 2
Fore
SplineSet
690 631 m 0
 690 508 578 402 455 402 c 0
 426 402 398 408 373 420 c 1
 319 112 l 1
 900 112 l 1
 1015 764 l 2
 1019 788 1021 810 1021 830 c 0
 1021 922 986 976 986 976 c 1
 866 907 777 882 626 882 c 0
 495 882 334 933 334 1039 c 0
 334 1166 548 1251 712 1251 c 0
 838 1251 919 1227 959 1184 c 0
 995 1144 1020 1124 1031 1124 c 0
 1055 1124 1109 1202 1146 1261 c 1
 1233 1205 l 1
 1161 1137 1086 1050 1086 1043 c 0
 1086 1031 1137 993 1137 866 c 0
 1137 837 1135 803 1128 764 c 2
 993 0 l 9
 186 0 l 1
 291 594 l 2
 311 711 423 792 526 792 c 0
 627 792 690 719 690 631 c 0
692 1142 m 256
 564 1142 457 1106 457 1052 c 0
 457 994 620 985 674 985 c 0
 790 985 852 1006 930 1054 c 1
 882 1102 793 1142 692 1142 c 256
506 680 m 0
 452 680 406 631 406 582 c 0
 406 543 434 514 477 514 c 0
 530 514 576 560 576 612 c 0
 576 654 545 680 506 680 c 0
EndSplineSet
EndChar

StartChar: uni0E2F
Encoding: 3631 3631 170
Width: 1120
VWidth: 2045
Flags: W
HStem: 0 21G<848 964.525> 764 112<542.548 802.994> 1142 112<413.046 559.801>
VStem: 277 117<979.389 1122.76> 566 115<992.721 1136.51>
DStem2: 848 0 961 0 0.173648 0.984808<19.6222 956.515 1090.37 1273.33>
LayerCount: 2
Fore
SplineSet
681 1091 m 0
 681 1037 657 944 539 882 c 1
 563 878 590 876 621 876 c 256
 832 876 1032 1043 1069 1254 c 9
 1182 1254 l 25
 961 0 l 1
 848 0 l 1
 1014 942 l 17
 929 858 784 764 602 764 c 256
 344 764 277 896 277 1008 c 0
 277 1160 401 1254 513 1254 c 0
 615 1254 681 1182 681 1091 c 0
465 973 m 0
 523 973 566 1027 566 1071 c 0
 566 1110 538 1142 494 1142 c 0
 444 1142 394 1098 394 1043 c 0
 394 1005 421 973 465 973 c 0
EndSplineSet
EndChar

StartChar: uni0E30
Encoding: 3632 3632 171
Width: 1120
VWidth: 2045
Flags: W
HStem: 42 148<297.949 557.445> 359 112<309.806 455.965> 683 151<411.136 669.791> 1000 112<423.05 571.606>
VStem: 175 116<195.728 339.076> 288 117<837.923 980.707> 462 115<209.085 354.614> 576 114<852.892 994.764>
LayerCount: 2
Fore
SplineSet
690 947 m 0xf5
 690 881 666 831 592 782 c 1
 757 796 951 931 986 1130 c 9
 1099 1130 l 17
 1056 884 817 683 568 683 c 0
 352 683 288 789 288 875 c 0
 288 985 387 1112 524 1112 c 0
 620 1112 690 1044 690 947 c 0xf5
475 834 m 0
 528 834 576 880 576 932 c 0
 576 974 544 1000 504 1000 c 0
 450 1000 405 954 405 902 c 0
 405 863 432 834 475 834 c 0
577 303 m 0xfa
 577 237 552 188 479 139 c 1
 644 154 838 290 873 489 c 9
 986 489 l 17
 943 246 707 42 455 42 c 0
 238 42 175 148 175 234 c 0
 175 343 272 471 411 471 c 0
 508 471 577 400 577 303 c 0xfa
362 190 m 0
 413 190 462 235 462 290 c 0
 462 332 430 359 391 359 c 0
 341 359 291 315 291 261 c 0
 291 219 322 190 362 190 c 0
EndSplineSet
EndChar

StartChar: uni0E31
Encoding: 3633 3633 172
Width: 0
VWidth: 2045
Flags: W
HStem: 1384 150<-368.141 -107.215> 1701 111<-354.493 -208.432>
VStem: -490 116<1538.68 1682.06> -203 115<1553.22 1696.21> 207 113<1710.35 1831>
AnchorPoint: "AboveMark" 38 2040 basemark 0
AnchorPoint: "AboveBase" 198 1370 mark 0
LayerCount: 2
Fore
SplineSet
-88 1646 m 0
 -88 1580 -113 1531 -187 1482 c 1
 -22 1494 172 1631 207 1831 c 9
 320 1831 l 17
 277 1589 44 1384 -210 1384 c 0
 -429 1384 -490 1491 -490 1577 c 0
 -490 1690 -389 1812 -254 1812 c 0
 -153 1812 -88 1740 -88 1646 c 0
-305 1534 m 0
 -249 1534 -203 1584 -203 1632 c 0
 -203 1670 -231 1701 -275 1701 c 0
 -325 1701 -374 1656 -374 1602 c 0
 -374 1564 -349 1534 -305 1534 c 0
EndSplineSet
EndChar

StartChar: uni0E32
Encoding: 3634 3634 173
Width: 1082
VWidth: 2045
Flags: W
HStem: 0 21G<837 953.534> 1142 112<559.135 881.419>
VStem: 249 113<834 948.994> 989 114<754.042 1034.29>
DStem2: 837 0 950 0 0.173648 0.984808<19.6222 900.072>
LayerCount: 2
Fore
SplineSet
727 1142 m 0
 547 1142 392 1001 362 834 c 9
 249 834 l 17
 290 1066 515 1254 747 1254 c 0
 952 1254 1103 1105 1103 904 c 0
 1103 881 1101 857 1097 832 c 10
 950 0 l 1
 837 0 l 1
 984 832 l 2
 987 851 989 870 989 888 c 0
 989 1038 879 1142 727 1142 c 0
EndSplineSet
EndChar

StartChar: uni0E34
Encoding: 3636 3636 175
Width: 0
VWidth: 2045
Flags: W
HStem: 1767 112<-537.606 -177.343>
DStem2: -674 1621 -867 1527 0.995353 -0.0962907<0 629.768>
AnchorPoint: "AboveMark" 134 2040 basemark 0
AnchorPoint: "AboveBase" 79 1370 mark 0
LayerCount: 2
Fore
SplineSet
-47 1562 m 17
 -117 1743 -267 1767 -350 1767 c 256
 -469 1767 -586 1715 -674 1621 c 1
 -47 1562 l 17
-867 1527 m 1
 -779 1710 -576 1879 -331 1879 c 256
 -74 1879 86 1695 86 1477 c 0
 86 1463 85 1449 84 1435 c 9
 -867 1527 l 1
EndSplineSet
EndChar

StartChar: uni0E35
Encoding: 3637 3637 176
Width: 0
VWidth: 2045
Flags: W
HStem: 1764 112<-537.996 -179.639>
DStem2: -675 1618 -867 1524 0.995353 -0.0962907<0 630.763> -29.432 1432 83.3075 1432 0.173648 0.984808<273.15 510.714>
AnchorPoint: "AboveBase" 83 1370 mark 0
AnchorPoint: "AboveMark" 134 2040 basemark 0
LayerCount: 2
Fore
SplineSet
-331 1876 m 256
 -171 1876 -53 1806 18 1701 c 9
 59 1935 l 1
 172 1935 l 9
 84 1432 l 9
 -867 1524 l 1
 -780 1707 -576 1876 -331 1876 c 256
-47 1559 m 17
 -117 1740 -268 1764 -351 1764 c 256
 -470 1764 -586 1712 -675 1618 c 1
 -47 1559 l 17
EndSplineSet
EndChar

StartChar: uni0E36
Encoding: 3638 3638 177
Width: 0
VWidth: 2045
Flags: W
HStem: 1762 112<-538.403 -236.541> 1966 112<-106.637 40.0038>
VStem: -240 114<1866 1944.42> 46 115<1817.07 1961.46>
DStem2: -675 1616 -868 1522 0.995353 -0.0962907<0 630.763>
AnchorPoint: "AboveBase" 68 1370 mark 0
AnchorPoint: "AboveMark" -12 2040 basemark 0
LayerCount: 2
Fore
SplineSet
161 1916 m 0
 161 1861 135 1761 13 1703 c 1
 53 1651 85 1571 85 1473 c 0
 85 1459 84 1445 83 1430 c 9
 -868 1522 l 1
 -780 1705 -577 1874 -332 1874 c 256
 -299 1874 -268 1871 -240 1866 c 1
 -240 1932 -158 2078 -6 2078 c 0
 94 2078 161 2008 161 1916 c 0
-55 1797 m 0
 3 1797 46 1850 46 1896 c 0
 46 1934 19 1966 -25 1966 c 0
 -83 1966 -126 1913 -126 1867 c 0
 -126 1829 -99 1797 -55 1797 c 0
-47 1557 m 17
 -118 1738 -268 1762 -351 1762 c 256
 -470 1762 -586 1710 -675 1616 c 1
 -47 1557 l 17
EndSplineSet
EndChar

StartChar: uni0E37
Encoding: 3639 3639 178
Width: 0
VWidth: 2045
Flags: W
HStem: 1764 112<-537.996 -180.696>
DStem2: -675 1618 -867 1524 0.995353 -0.0962907<0 630.763> -29.432 1432 83.3075 1432 0.173648 0.984808<273.15 510.714>
AnchorPoint: "AboveMark" 21 2040 basemark 0
AnchorPoint: "AboveBase" 67 1370 mark 0
LayerCount: 2
Fore
SplineSet
-867 1524 m 1
 -780 1707 -576 1876 -331 1876 c 256
 -277 1876 -228 1868 -181 1852 c 9
 -167 1935 l 1
 -54 1935 l 1
 -78 1799 l 17
 -39 1772 -6 1739 18 1701 c 9
 59 1935 l 1
 172 1935 l 9
 84 1432 l 9
 -867 1524 l 1
-47 1559 m 17
 -117 1740 -268 1764 -351 1764 c 256
 -470 1764 -586 1712 -675 1618 c 1
 -47 1559 l 17
EndSplineSet
EndChar

StartChar: uni0E38
Encoding: 3640 3640 179
Width: 0
VWidth: 2045
Flags: W
HStem: -474 112<-489.584 -357.431> -196 112<-476.9 -330.266>
VStem: -610 115<-357.929 -213.838> -324 115<-431.219 -200.607>
DStem2: -394 -671 -281 -671 0.173648 0.984808<19.6222 218.332>
AnchorPoint: "BelowBase" -175 -88 mark 0
LayerCount: 2
Fore
SplineSet
-375 -84 m 0
 -505 -84 -610 -198 -610 -313 c 0
 -610 -404 -543 -474 -444 -474 c 0
 -413 -474 -384 -468 -356 -456 c 1
 -394 -671 l 1
 -281 -671 l 1
 -212 -279 l 2
 -210 -268 -209 -256 -209 -246 c 0
 -209 -153 -279 -84 -375 -84 c 0
-324 -266 m 0
 -324 -320 -375 -362 -425 -362 c 0
 -468 -362 -495 -333 -495 -295 c 0
 -495 -244 -451 -196 -396 -196 c 0
 -352 -196 -324 -227 -324 -266 c 0
EndSplineSet
Substitution2: "Thai Sara U Mai Ek Reordering" uni0E48.low
Substitution2: "Thai Sara U Mai Tho Reordering" uni0E49.low
Substitution2: "Thai Sara U Mai Tri Reordering" uni0E4A.low
Substitution2: "Thai Sara U Mai Chattawa Reordering" uni0E4B.low
Substitution2: "Thai Sara U Thanthakhat Reordering" uni0E4C.low
Substitution2: "Thai Sara U Nikhahit Reordering" uni0E4D
EndChar

StartChar: uni0E39
Encoding: 3641 3641 180
Width: 0
VWidth: 2045
Flags: W
HStem: -474 112<-770.617 -637.256> -196 112<-756.56 -609.058>
VStem: -891 115<-358.036 -215.176> -604 115<-344.351 -202.574>
DStem2: -391.749 -669 -279 -669 0.173648 0.984808<113.728 593.955>
AnchorPoint: "BelowBase" -127 -85 mark 0
LayerCount: 2
Fore
SplineSet
-657 -84 m 0
 -779 -84 -891 -192 -891 -314 c 0
 -891 -403 -826 -474 -724 -474 c 0
 -694 -474 -665 -468 -636 -456 c 1
 -674 -669 l 1
 -279 -669 l 17
 -176 -84 l 1
 -289 -84 l 1
 -372 -557 l 25
 -541 -557 l 1
 -492 -279 l 2
 -490 -268 -489 -257 -489 -246 c 0
 -489 -153 -560 -84 -657 -84 c 0
-604 -266 m 0
 -604 -315 -649 -362 -706 -362 c 0
 -749 -362 -776 -333 -776 -295 c 0
 -776 -244 -732 -196 -677 -196 c 0
 -633 -196 -604 -227 -604 -266 c 0
EndSplineSet
Substitution2: "Thai Sara UU Mai Ek Reordering" uni0E48.low
Substitution2: "Thai Sara UU Mai Tho Reordering" uni0E49.low
Substitution2: "Thai Sara UU Mai Tri Reordering" uni0E4A.low
Substitution2: "Thai Sara UU Mai Chattawa Reordering" uni0E4B.low
Substitution2: "Thai Sara UU Thanthakhat Reordering" uni0E4C.low
Substitution2: "Thai Sara UU Nikhahit Reordering" uni0E4D
EndChar

StartChar: uni0E3A
Encoding: 3642 3642 181
Width: 0
VWidth: 2045
Flags: W
HStem: -359 277<-443.417 -272.037>
VStem: -501 284<-303.207 -138.581>
AnchorPoint: "BelowBase" -200 -86 mark 0
LayerCount: 2
Fore
SplineSet
-217 -196 m 0
 -217 -280 -291 -359 -383 -359 c 0
 -454 -359 -501 -309 -501 -244 c 0
 -501 -156 -419 -82 -334 -82 c 0
 -261 -82 -217 -133 -217 -196 c 0
EndSplineSet
Substitution2: "Thai Phinthu Maitaikhu Reordering" uni0E47
Substitution2: "Thai Phinthu Mai Ek Reordering" uni0E48.low
Substitution2: "Thai Phinthu Mai Tho Reordering" uni0E49.low
Substitution2: "Thai Phinthu Mai Tri Reordering" uni0E4A.low
Substitution2: "Thai Phinthu Mai Chattawa Reordering" uni0E4B.low
Substitution2: "Thai Phinthu Thanthakhat Reordering" uni0E4C.low
Substitution2: "Thai Phinthu Nikhahit Reordering" uni0E4D
EndChar

StartChar: uni0E3F
Encoding: 3647 3647 182
Width: 1364
VWidth: 2045
Flags: W
HStem: 0 136<308 518 678 990.917> 692 127<428 640 798 1058.94> 1314 136<516 750 910 1144.31>
VStem: 1179 150<314.441 590.811> 1232 141<968.794 1238.55>
DStem2: 132.549 -133 260.568 -133 0.173648 0.984808<295.38 859.951 988.842 1491.6> 495 -133 631 -133 0.173648 0.984808<23.6162 134.973 296.691 837.645 990.152 1469.3 1631.01 1754.54>
LayerCount: 2
Fore
SplineSet
1373 1143 m 0xe8
 1373 995 1281 850 1109 772 c 1
 1264 722 1329 609 1329 493 c 0xf0
 1329 394 1262 0 747 0 c 2
 654 0 l 25
 631 -133 l 1
 495 -133 l 1
 518 0 l 25
 156 0 l 1
 412 1450 l 1
 774 1450 l 25
 799 1595 l 9
 935 1595 l 17
 910 1450 l 25
 948 1450 l 2
 1308 1450 1373 1269 1373 1143 c 0xe8
865 819 m 2
 1008 819 1232 878 1232 1116 c 0xe8
 1232 1237 1150 1314 930 1314 c 2
 886 1314 l 17
 798 819 l 25
 865 819 l 2
792 136 m 2
 1098 136 1179 359 1179 466 c 0xf0
 1179 623 1024 692 866 692 c 2
 776 692 l 17
 678 136 l 25
 792 136 l 2
542 136 m 25
 640 692 l 9
 406 692 l 1
 308 136 l 1
 542 136 l 25
662 819 m 25
 750 1314 l 9
 516 1314 l 1
 428 819 l 1
 662 819 l 25
EndSplineSet
EndChar

StartChar: uni0E40
Encoding: 3648 3648 183
Width: 629
VWidth: 2045
Flags: W
HStem: 0 112<316.596 464.534> 279 112<345.22 476.505> 1234 20G<382.484 499>
VStem: 197 114<116.193 253.253> 482 116<130.278 272.726>
DStem2: 165.44 0 278.23 0 0.173648 0.984808<398.34 1273.25>
LayerCount: 2
Fore
SplineSet
410 279 m 0
 355 279 311 230 311 181 c 0
 311 143 336 112 381 112 c 0
 428 112 482 151 482 209 c 0
 482 248 453 279 410 279 c 0
598 230 m 0
 598 115 491 0 362 0 c 0
 263 0 197 70 197 161 c 0
 197 172 198 184 200 196 c 10
 386 1254 l 9
 499 1254 l 17
 344 373 l 17
 373 385 402 391 432 391 c 0
 530 391 598 322 598 230 c 0
EndSplineSet
EndChar

StartChar: uni0E41
Encoding: 3649 3649 184
Width: 1173
VWidth: 2045
Flags: W
HStem: 0 112<316.596 464.534 880.292 1028.53> 279 112<345.22 476.505 909.127 1040.5> 1234 20G<382.484 499 946.484 1063>
VStem: 197 114<116.193 253.253> 482 116<130.278 272.726> 761 114<115.964 253.21> 1046 116<130.278 272.726>
DStem2: 165.44 0 278.23 0 0.173648 0.984808<398.34 1273.25> 729.44 0 842.23 0 0.173648 0.984808<398.34 1273.25>
LayerCount: 2
Fore
SplineSet
974 279 m 0
 923 279 875 235 875 180 c 0
 875 139 904 112 945 112 c 0
 992 112 1046 151 1046 209 c 0
 1046 248 1017 279 974 279 c 0
1162 230 m 0
 1162 115 1055 0 926 0 c 0
 827 0 761 70 761 161 c 0
 761 172 762 184 764 196 c 10
 950 1254 l 9
 1063 1254 l 17
 908 373 l 17
 937 385 966 391 996 391 c 0
 1094 391 1162 322 1162 230 c 0
410 279 m 0
 355 279 311 230 311 181 c 0
 311 143 336 112 381 112 c 0
 428 112 482 151 482 209 c 0
 482 248 453 279 410 279 c 0
598 230 m 0
 598 115 491 0 362 0 c 0
 263 0 197 70 197 161 c 0
 197 172 198 184 200 196 c 10
 386 1254 l 9
 499 1254 l 17
 344 373 l 17
 373 385 402 391 432 391 c 0
 530 391 598 322 598 230 c 0
EndSplineSet
EndChar

StartChar: uni0E42
Encoding: 3650 3650 185
Width: 757
VWidth: 2045
Flags: W
HStem: 0 112<485.984 634.074> 279 112<513.908 645.615> 1619 112<265 586.609> 1927 112<421.349 745.781>
VStem: 366 114<118.472 259.169> 602 114<1279.16 1603.31> 651 116<130.291 274.418> 852 115<1725.01 1818.71>
DStem2: 334.44 0 447.23 0 0.173648 0.984808<398.34 1548.02>
LayerCount: 2
Fore
SplineSet
581 279 m 0xfb
 531 279 480 235 480 181 c 0
 480 139 511 112 552 112 c 0
 606 112 651 158 651 211 c 0
 651 251 621 279 581 279 c 0xfb
767 229 m 0
 767 106 651 0 532 0 c 0
 432 0 366 70 366 161 c 0
 366 172 367 184 369 196 c 2
 600 1507 l 2
 601 1513 602 1519 602 1525 c 0
 602 1576 563 1619 506 1619 c 2
 113 1619 l 1
 154 1851 378 2039 612 2039 c 0
 823 2039 945 1895 967 1728 c 9
 852 1704 l 17
 843 1791 772 1927 592 1927 c 0
 417 1927 304 1799 265 1731 c 9
 526 1731 l 1
 642 1728 716 1650 716 1546 c 0xfd
 716 1533 715 1520 713 1507 c 2
 513 373 l 1
 540 385 569 391 600 391 c 0
 700 391 767 321 767 229 c 0
EndSplineSet
EndChar

StartChar: uni0E43
Encoding: 3651 3651 186
Width: 867
VWidth: 2045
Flags: W
HStem: 0 112<561.984 710.074> 279 112<589.908 721.615> 1501 112<401.04 546.291> 1781 112<469.593 559.277> 1924 112<470.597 685.263>
VStem: 262 134<1617.2 1759.55> 442 114<118.472 338.06> 565 115<1633.52 1775.2> 722 114<125.878 275.198 1713.95 1887>
DStem2: 410.44 0 523.23 0 0.173648 0.984808<398.34 1812.51>
LayerCount: 2
Fore
SplineSet
843 229 m 0
 843 106 727 0 608 0 c 0
 508 0 442 70 442 161 c 0
 442 172 443 184 445 196 c 2
 719 1755 l 2
 721 1766 722 1776 722 1786 c 0
 722 1866 663 1924 580 1924 c 0
 539 1924 502 1912 469 1888 c 1
 484 1891 500 1893 515 1893 c 0
 611 1893 680 1825 680 1732 c 0
 680 1613 572 1501 446 1501 c 0
 373 1501 262 1541 262 1691 c 0
 262 1894 436 2036 600 2036 c 0
 737 2036 836 1939 836 1805 c 0
 836 1789 835 1772 832 1755 c 2
 589 373 l 1
 616 385 645 391 676 391 c 0
 776 391 843 321 843 229 c 0
465 1613 m 0
 515 1613 565 1658 565 1712 c 0
 565 1750 538 1781 495 1781 c 0
 438 1781 396 1730 396 1683 c 0
 396 1644 422 1613 465 1613 c 0
657 279 m 0
 607 279 556 235 556 181 c 0
 556 139 587 112 628 112 c 0
 682 112 727 158 727 211 c 0
 727 251 697 279 657 279 c 0
EndSplineSet
EndChar

StartChar: uni0E44
Encoding: 3652 3652 187
Width: 811
VWidth: 2045
Flags: W
HStem: 0 112<508.292 656.534> 279 112<537.127 668.505>
VStem: 310 114<1774.41 2165.51> 389 114<115.964 345.975> 674 116<130.278 272.726>
DStem2: -46.1933 0 66.8286 0 0.173648 0.984808<1719.45 2064.4> 357.44 0 470.23 0 0.173648 0.984808<398.34 1896.67> 362 1674 344 1521 0.702117 0.712062<0 365.626>
LayerCount: 2
Fore
SplineSet
790 230 m 0xe8
 790 115 683 0 554 0 c 0
 455 0 389 70 389 161 c 0xd8
 389 172 390 184 392 196 c 2
 686 1868 l 17
 344 1521 l 25
 222 1521 l 25
 306 1997 l 2
 308 2010 310 2022 310 2034 c 0
 310 2073 297 2106 273 2136 c 9
 366 2214 l 17
 405 2168 424 2115 424 2054 c 0
 424 2036 422 2017 419 1997 c 2
 362 1674 l 9
 715 2032 l 9
 828 2032 l 25
 536 373 l 1
 565 385 594 391 624 391 c 0
 722 391 790 322 790 230 c 0xe8
602 279 m 0
 551 279 503 235 503 180 c 0
 503 139 532 112 573 112 c 0
 620 112 674 151 674 209 c 0
 674 248 645 279 602 279 c 0
EndSplineSet
EndChar

StartChar: uni0E45
Encoding: 3653 3653 188
Width: 1082
VWidth: 2045
Flags: W
HStem: 1142 112<432.535 746.432>
VStem: 120 113<834 948.641> 859 115<753.181 832 886 1032.04>
DStem2: 610 -548 723 -548 0.173648 0.984808<19.6222 1454.67>
LayerCount: 2
Fore
SplineSet
597 1142 m 0
 751 1142 859 1034 859 886 c 0
 859 869 857 851 854 832 c 10
 610 -548 l 9
 723 -548 l 25
 967 832 l 18
 971 857 974 882 974 906 c 0
 974 1104 828 1254 617 1254 c 0
 381 1254 161 1065 120 834 c 9
 233 834 l 17
 264 1009 428 1142 597 1142 c 0
EndSplineSet
EndChar

StartChar: uni0E46
Encoding: 3654 3654 189
Width: 1173
VWidth: 2045
Flags: W
HStem: 618 113<432.037 581.289> 899 110<446.486 594.438> 1234 20G<574.5 681.157 886.096 945.5>
VStem: 277 151<735.601 947.257> 599 115<748.934 893.215> 1013 114<829.233 1092.07>
DStem2: 749 -548 862 -548 0.173648 0.984808<19.6222 1549.61>
LayerCount: 2
Fore
SplineSet
714 848 m 0
 714 736 609 618 479 618 c 0
 347 618 277 704 277 835 c 0
 277 1088 497 1235 652 1254 c 1
 773 1171 l 1
 922 1254 l 1
 969 1247 1127 1198 1127 992 c 0
 1127 967 1124 939 1119 908 c 2
 862 -548 l 1
 749 -548 l 1
 1006 906 l 2
 1011 933 1013 958 1013 980 c 0
 1013 1056 983 1103 902 1124 c 1
 750 1039 l 1
 617 1130 l 17
 546 1120 437 1067 402 946 c 1
 442 987 491 1009 548 1009 c 0
 653 1009 714 936 714 848 c 0
499 731 m 0
 558 731 599 781 599 829 c 0
 599 867 574 899 529 899 c 0
 473 899 428 850 428 798 c 0
 428 757 459 731 499 731 c 0
EndSplineSet
EndChar

StartChar: uni0E47
Encoding: 3655 3655 190
Width: 0
VWidth: 2045
Flags: W
HStem: 1398 86<-268.819 -96.7747> 1502 110<-517.055 -375.319> 1596 83<-200.259 -92.3924> 1761 101<-565.289 -351 -258 -44.3863>
VStem: -743 113<1507.62 1699.54> -294 88<1511 1590.8> -91 84<1489.85 1594.44>
AnchorPoint: "AboveMark" -293 2040 basemark 0
AnchorPoint: "AboveBase" -39 1370 mark 0
LayerCount: 2
Fore
SplineSet
-630 1584 m 0xde
 -630 1732 -506 1761 -351 1761 c 0
 -314 1761 -296 1759 -258 1759 c 0
 -121 1759 -28 1772 98 1905 c 1
 35 1978 l 1
 -64 1865 -126 1860 -254 1860 c 0
 -297 1860 -341 1862 -363 1862 c 0
 -659 1862 -743 1691 -743 1570 c 0
 -743 1435 -628 1401 -531 1398 c 1
 -531 1423 -517 1502 -453 1502 c 0xde
 -368 1502 -366 1398 -189 1398 c 16
 -69 1398 -7 1493 -7 1564 c 0
 -7 1629 -54 1679 -125 1679 c 0xbe
 -162 1679 -275 1660 -294 1510 c 1
 -354 1516 -380 1612 -464 1612 c 0
 -532 1612 -572 1545 -580 1504 c 1
 -614 1515 -630 1543 -630 1584 c 0xde
-91 1550 m 0
 -91 1518 -119 1484 -158 1484 c 0
 -188 1484 -206 1503 -206 1529 c 0
 -206 1565 -177 1596 -139 1596 c 0xbe
 -110 1596 -91 1576 -91 1550 c 0
EndSplineSet
Substitution2: "Thai Mark High Variant" uni0E47.high
Substitution2: "Thai Phinthu Maitaikhu Reordering" uni0E3A
EndChar

StartChar: uni0E48
Encoding: 3656 3656 191
Width: 0
VWidth: 2045
Flags: W
HStem: 2117 305<145 204>
VStem: 91 167
DStem2: 91 2117 204 2117 0.173648 0.984808<19.6222 309.743>
AnchorPoint: "AboveMark" 217 2512 basemark 0
AnchorPoint: "AboveMark" 134 2040 mark 0
LayerCount: 2
Fore
SplineSet
145 2422 m 25
 258 2422 l 1
 204 2117 l 1
 91 2117 l 1
 145 2422 l 25
EndSplineSet
MultipleSubs2: "Thai Tone Nikhahit Attachment" uni0E4D uni0E48
Substitution2: "Thai Tone Low Variant" uni0E48.low
Substitution2: "Thai Sara U Mai Ek Reordering" uni0E38
Substitution2: "Thai Sara UU Mai Ek Reordering" uni0E39
Substitution2: "Thai Phinthu Mai Ek Reordering" uni0E3A
EndChar

StartChar: uni0E49
Encoding: 3657 3657 192
Width: 0
VWidth: 2045
Flags: W
HStem: 2067 89<74 232.246> 2212 57<24.3848 38> 2359 68<28.081 113.986>
VStem: -45 68<2270.1 2353.17> 115 69<2273.43 2358.64> 432 91<2344.68 2458>
AnchorPoint: "AboveMark" 217 2512 basemark 0
AnchorPoint: "AboveMark" 134 2040 mark 0
LayerCount: 2
Back
SplineSet
-294 2340 m 0
 -294 2425 -219 2507 -126 2507 c 0
 -54 2507 -8 2457 -8 2392 c 0
 -8 2365 -18 2317 -45 2285 c 2
 -145 2168 l 1
 66 2168 266 2338 303 2546 c 265
 417 2546 l 273
 371 2286 123 2057 -164 2057 c 10
 -277 2057 l 1
 -258 2168 l 1
 -190 2238 l 17
 -234 2238 -294 2269 -294 2340 c 0
-161 2310 m 0
 -124 2310 -94 2343 -94 2376 c 0
 -94 2402 -111 2422 -141 2422 c 0
 -175 2422 -209 2393 -209 2357 c 0
 -209 2332 -190 2310 -161 2310 c 0
EndSplineSet
Fore
SplineSet
-45 2293 m 0
 -45 2362 16 2427 90 2427 c 0
 148 2427 184 2387 184 2335 c 0
 184 2309 174 2272 155 2249 c 2
 74 2156 l 1
 243 2156 403 2292 432 2458 c 265
 523 2458 l 273
 487 2250 288 2067 58 2067 c 10
 -32 2067 l 1
 -16 2156 l 1
 38 2212 l 17
 3 2212 -45 2236 -45 2293 c 0
62 2269 m 0
 90 2269 115 2295 115 2322 c 0
 115 2343 102 2359 78 2359 c 0
 48 2359 23 2333 23 2307 c 0
 23 2287 38 2269 62 2269 c 0
EndSplineSet
MultipleSubs2: "Thai Tone Nikhahit Attachment" uni0E4D uni0E49
Substitution2: "Thai Tone Low Variant" uni0E49.low
Substitution2: "Thai Sara U Mai Tho Reordering" uni0E38
Substitution2: "Thai Sara UU Mai Tho Reordering" uni0E39
Substitution2: "Thai Phinthu Mai Tho Reordering" uni0E3A
EndChar

StartChar: uni0E4A
Encoding: 3658 3658 193
Width: 0
VWidth: 2045
Flags: W
HStem: 2067 89<246 328.117> 2067 67<-32.8358 53.0661> 2224 68<-29.3005 56.9294> 2335 90<-30.4886 128.757 190.68 346.786>
VStem: -142 108<2135.1 2273.38> 58 69<2138.28 2223.75> 353 93<2213.15 2329.24> 604 91<2347.05 2458>
AnchorPoint: "AboveMark" 217 2512 basemark 0
AnchorPoint: "AboveMark" 134 2040 mark 0
LayerCount: 2
Back
SplineSet
39 2178 m 1,0,-1
-447 2232 m 0,1,-1
 -447 2405 -310 2514 -176 2514 c 16,4,-1
 -123 2514 -80 2499 -47 2468 c 1,7,-1
 -2 2499 45 2514 98 2514 c 0,10,-1
 215 2514 288 2434 288 2330 c 0,13,-1
 288 2297 280 2263 274 2248 c 1,16,-1
 374 2313 463 2422 487 2556 c 265,19,-1
 601 2556 l 273,20,-1
 551 2272 282 2067 19 2067 c 9,23,-1
 39 2178 l 17,24,-1
 161 2201 174 2278 174 2308 c 0,27,-1
 174 2360 136 2402 79 2402 c 8,30,-1
 39 2402 3 2384 -33 2343 c 1,33,-1
 -106 2343 l 1,34,-1
 -114 2361 -136 2402 -198 2402 c 24,37,-1
 -270 2402 -328 2335 -336 2290 c 1,40,-1
 -312 2329 -273 2348 -219 2348 c 0,43,-1
 -156 2348 -109 2303 -109 2236 c 0,46,-1
 -109 2144 -188 2067 -278 2067 c 0,49,-1
 -357 2067 -447 2105 -447 2232 c 0,1,-1
-263 2151 m 0,52,-1
 -230 2151 -196 2181 -196 2218 c 0,55,-1
 -196 2245 -216 2263 -243 2263 c 0,58,-1
 -277 2263 -311 2233 -311 2197 c 0,61,-1
 -311 2171 -292 2151 -263 2151 c 0,52,-1
EndSplineSet
Fore
SplineSet
246 2156 m 1,0,-1
-142 2200 m 0,1,-1
 -142 2340 -30 2425 75 2425 c 16,4,-1
 117 2425 150 2413 177 2388 c 1,7,-1
 213 2413 252 2425 294 2425 c 0,10,-1
 388 2425 446 2361 446 2278 c 0,13,-1
 446 2254 441 2231 434 2212 c 1,16,-1
 514 2264 586 2351 604 2458 c 265,19,-1
 695 2458 l 273,20,-1
 655 2231 440 2067 230 2067 c 9,23,-1
 246 2156 l 17,24,-1
 344 2173 353 2236 353 2261 c 0,27,-1
 353 2302 323 2335 278 2335 c 8,30,-1
 246 2335 217 2321 188 2288 c 1,33,-1
 130 2288 l 1,34,-1
 124 2302 106 2335 56 2335 c 24,37,-1
 -1 2335 -48 2282 -54 2246 c 1,40,-1
 -35 2277 -4 2292 40 2292 c 0,43,-1
 90 2292 127 2256 127 2202 c 0,46,-1
 127 2129 65 2067 -8 2067 c 0,49,-1
 -71 2067 -142 2098 -142 2200 c 0,1,-1
4 2134 m 0,52,-1
 31 2134 58 2158 58 2188 c 0,55,-1
 58 2210 41 2224 20 2224 c 0,58,-1
 -10 2224 -34 2198 -34 2171 c 0,61,-1
 -34 2150 -19 2134 4 2134 c 0,52,-1
EndSplineSet
MultipleSubs2: "Thai Tone Nikhahit Attachment" uni0E4D uni0E4A
Substitution2: "Thai Tone Low Variant" uni0E4A.low
Substitution2: "Thai Sara U Mai Tri Reordering" uni0E38
Substitution2: "Thai Sara UU Mai Tri Reordering" uni0E39
Substitution2: "Thai Phinthu Mai Tri Reordering" uni0E3A
EndChar

StartChar: uni0E4B
Encoding: 3659 3659 194
Width: 0
VWidth: 2045
Flags: W
HStem: 2220 111<18 107 239 327>
VStem: -2 349
DStem2: 86 2097 198 2097 0.173648 0.984808<19.4486 124.778 257.013 363.501>
AnchorPoint: "AboveMark" 217 2512 basemark 0
AnchorPoint: "AboveMark" 134 2040 mark 0
LayerCount: 2
Back
SplineSet
210 2246 m 1
 61 2246 l 1
 35 2097 l 1
 -78 2097 l 1
 -52 2246 l 1
 -202 2246 l 1
 -182 2358 l 1
 -32 2358 l 1
 -6 2508 l 1
 107 2508 l 1
 81 2358 l 1
 230 2358 l 1
 210 2246 l 1
EndSplineSet
Fore
SplineSet
327 2220 m 1
 219 2220 l 1
 198 2097 l 1
 86 2097 l 1
 107 2220 l 1
 -2 2220 l 1
 18 2331 l 1
 127 2331 l 1
 149 2455 l 1
 261 2455 l 1
 239 2331 l 1
 347 2331 l 1
 327 2220 l 1
EndSplineSet
MultipleSubs2: "Thai Tone Nikhahit Attachment" uni0E4D uni0E4B
Substitution2: "Thai Tone Low Variant" uni0E4B.low
Substitution2: "Thai Sara U Mai Chattawa Reordering" uni0E38
Substitution2: "Thai Sara UU Mai Chattawa Reordering" uni0E39
Substitution2: "Thai Phinthu Mai Chattawa Reordering" uni0E3A
EndChar

StartChar: uni0E4C
Encoding: 3660 3660 195
Width: 0
VWidth: 2045
Flags: W
HStem: 2079 89<-14.5708 111.82> 2302 88<-4.68903 120.72 207 475.777>
VStem: -108 91<2170.72 2292.44> 122 91<2178.21 2300.87>
AnchorPoint: "AboveMark" 217 2512 basemark 0
AnchorPoint: "AboveMark" 134 2040 mark 0
LayerCount: 2
Back
SplineSet
-331 2240 m 0
 -331 2355 -226 2468 -96 2468 c 10
 255 2468 l 2
 310 2468 360 2487 405 2526 c 9
 471 2447 l 17
 400 2387 321 2357 236 2357 c 2
 64 2357 l 17
 69 2341 72 2324 72 2306 c 0
 72 2196 -32 2079 -163 2079 c 0
 -264 2079 -331 2150 -331 2240 c 0
-144 2190 m 0
 -88 2190 -43 2239 -43 2289 c 0
 -43 2327 -70 2357 -114 2357 c 0
 -170 2357 -216 2308 -216 2259 c 0
 -216 2220 -188 2190 -144 2190 c 0
EndSplineSet
Fore
SplineSet
-108 2208 m 0
 -108 2303 -21 2390 79 2390 c 10
 360 2390 l 2
 404 2390 444 2406 481 2437 c 9
 534 2374 l 17
 476 2326 413 2302 345 2302 c 2
 207 2302 l 17
 211 2290 213 2276 213 2262 c 0
 213 2170 129 2079 26 2079 c 0
 -55 2079 -108 2135 -108 2208 c 0
41 2168 m 0
 83 2168 122 2204 122 2246 c 0
 122 2277 100 2302 65 2302 c 0
 22 2302 -17 2267 -17 2224 c 0
 -17 2192 5 2168 41 2168 c 0
EndSplineSet
MultipleSubs2: "Thai Tone Nikhahit Attachment" uni0E4D uni0E4C
Substitution2: "Thai Tone Low Variant" uni0E4C.low
Substitution2: "Thai Sara U Thanthakhat Reordering" uni0E38
Substitution2: "Thai Sara UU Thanthakhat Reordering" uni0E39
Substitution2: "Thai Phinthu Thanthakhat Reordering" uni0E3A
EndChar

StartChar: uni0E4D
Encoding: 3661 3661 196
Width: 0
VWidth: 2045
Flags: W
HStem: 1401 112<-193.066 -44.5885> 1681 112<-177.715 -31.4124>
VStem: -313 114<1519.64 1661.28> -26 116<1531.05 1675.71>
AnchorPoint: "AboveMark" -34 2040 basemark 0
AnchorPoint: "AboveBase" 47 1370 mark 0
LayerCount: 2
Back
SplineSet
-317.812 1555 m 132
 -308.29 1609 -280.816 1655.17 -235.391 1693.5 c 132
 -189.965 1731.83 -139.752 1751 -84.752 1751 c 132
 -29.752 1751 13.7018 1731.83 45.6094 1693.5 c 132
 77.5169 1655.17 88.71 1609 79.1885 1555 c 132
 69.667 1501 42.1933 1454.83 -3.23242 1416.5 c 132
 -48.6589 1378.17 -98.8721 1359 -153.872 1359 c 132
 -208.872 1359 -252.325 1378.17 -284.232 1416.5 c 132
 -316.14 1454.83 -327.333 1501 -317.812 1555 c 132
-204.988 1554 m 132
 -209.102 1530.67 -204.07 1511 -189.892 1495 c 132
 -175.713 1479 -156.956 1471 -133.623 1471 c 132
 -110.29 1471 -88.8792 1479 -69.3916 1495 c 132
 -49.9033 1511 -38.1022 1530.67 -33.9883 1554 c 132
 -29.8737 1577.33 -34.6803 1597.33 -48.4082 1614 c 132
 -62.1361 1630.67 -80.6667 1639 -104 1639 c 132
 -127.333 1639 -148.969 1630.67 -168.908 1614 c 132
 -188.847 1597.33 -200.873 1577.33 -204.988 1554 c 132
EndSplineSet
Fore
SplineSet
90 1630 m 0
 90 1514 -19 1401 -147 1401 c 0
 -248 1401 -313 1472 -313 1562 c 0
 -313 1687 -198 1793 -78 1793 c 0
 25 1793 90 1721 90 1630 c 0
-126 1513 m 0
 -73 1513 -26 1559 -26 1612 c 0
 -26 1652 -57 1681 -97 1681 c 0
 -157 1681 -199 1627 -199 1582 c 0
 -199 1540 -166 1513 -126 1513 c 0
EndSplineSet
Substitution2: "Thai Mark High Variant" uni0E4D.high
Substitution2: "Thai Sara U Nikhahit Reordering" uni0E38
Substitution2: "Thai Sara UU Nikhahit Reordering" uni0E39
Substitution2: "Thai Phinthu Nikhahit Reordering" uni0E3A
EndChar

StartChar: uni0E4E
Encoding: 3662 3662 197
Width: 0
VWidth: 2045
Flags: W
HStem: 1420 112<-285.753 -227> 1756 112<-262.317 -128.402> 1993 112<17.0067 194.815>
VStem: -417 115<1545.97 1717.16> 209 114<1881 1979.53>
AnchorPoint: "AboveMark" 23 2162 basemark 0
AnchorPoint: "AboveBase" 102 1370 mark 0
LayerCount: 2
Fore
SplineSet
-134 1866 m 1
 -96 2056 51 2105 134 2105 c 0
 250 2105 323 2023 323 1920 c 0
 323 1907 322 1894 320 1881 c 1
 207 1881 l 1
 208 1887 209 1893 209 1899 c 0
 209 1951 171 1993 113 1993 c 0
 46 1993 -21 1932 -21 1860 c 0
 -21 1838 -14 1818 1 1802 c 1
 -13 1722 l 1
 -92 1722 l 1
 -111 1745 -136 1756 -166 1756 c 0
 -234 1756 -302 1694 -302 1624 c 0
 -302 1571 -262 1532 -207 1532 c 1
 -227 1420 l 1
 -338 1420 -417 1498 -417 1603 c 0
 -417 1745 -287 1867 -148 1868 c 0
 -143 1868 -139 1867 -134 1866 c 1
EndSplineSet
Substitution2: "Thai Mark High Variant" uni0E4E.high
EndChar

StartChar: uni0E4F
Encoding: 3663 3663 198
Width: 977
VWidth: 2045
Flags: W
HStem: 0 112<350.436 681.197> 225 112<465.528 643.276> 560 112<488.981 668.286> 782 112<451.566 783.764>
VStem: 109 112<239.046 555.017> 338 114<349.515 523.117> 682 114<374.997 547.039> 913 112<337.953 655.154>
LayerCount: 2
Fore
SplineSet
547 337 m 0
 616 337 682 397 682 468 c 0
 682 522 642 560 587 560 c 0
 518 560 452 500 452 429 c 0
 452 375 492 337 547 337 c 0
796 487 m 0
 796 349 670 225 528 225 c 0
 411 225 338 306 338 409 c 0
 338 541 456 672 606 672 c 0
 722 672 796 590 796 487 c 0
508 112 m 0
 719 112 913 297 913 506 c 0
 913 664 795 782 626 782 c 0
 415 782 221 597 221 388 c 0
 221 230 339 112 508 112 c 0
1025 524 m 0
 1025 247 762 0 488 0 c 0
 265 0 109 162 109 370 c 0
 109 642 366 894 646 894 c 0
 870 894 1025 733 1025 524 c 0
EndSplineSet
EndChar

StartChar: uni0E50
Encoding: 3664 3664 199
Width: 1267
VWidth: 2045
Flags: W
HStem: 0 112<462.893 849.528> 782 112<569.318 956.644>
VStem: 195 118<252.06 553.683> 1111 116<342.608 637.571>
LayerCount: 2
Fore
SplineSet
653 112 m 0
 907 112 1111 305 1111 496 c 0
 1111 653 976 782 771 782 c 0
 516 782 313 591 313 397 c 0
 313 238 448 112 653 112 c 0
1227 515 m 0
 1227 252 953 0 632 0 c 0
 371 0 195 171 195 380 c 0
 195 651 482 894 790 894 c 0
 1051 894 1227 726 1227 515 c 0
EndSplineSet
EndChar

StartChar: uni0E51
Encoding: 3665 3665 200
Width: 1318
VWidth: 2045
Flags: W
HStem: 0 102<400.661 601.367> 384 112<632.367 778.792> 782 112<596.284 977.75>
VStem: 189 116<195.472 517.81> 497 115<222.846 364.772> 783 113<239.732 378.267> 1151 114<246.142 613.267>
LayerCount: 2
Fore
SplineSet
497 263 m 0
 497 391 612 496 731 496 c 0
 819 496 896 441 896 328 c 0
 896 139 681 0 520 0 c 0
 301 0 189 137 189 323 c 0
 189 628 495 894 812 894 c 0
 1032 894 1265 756 1265 469 c 0
 1265 226 1114 -26 803 -137 c 1
 784 -50 l 1
 1029 35 1151 250 1151 436 c 0
 1151 635 1011 782 792 782 c 0
 562 782 305 599 305 345 c 0
 305 161 449 102 537 102 c 0
 568 102 591 109 605 121 c 1
 577 124 497 161 497 263 c 0
682 218 m 0
 733 218 783 262 783 315 c 0
 783 353 756 384 712 384 c 0
 663 384 612 340 612 285 c 0
 612 247 639 218 682 218 c 0
EndSplineSet
EndChar

StartChar: uni0E52
Encoding: 3666 3666 201
Width: 1519
VWidth: 2045
Flags: W
HStem: 0 112<319 1217.61> 237 112<629.637 778.574> 517 109<642.737 791.699> 779 115<723.415 982.456 1151.22 1369> 1205 112<304 367.286>
VStem: 379 115<867.812 1191.13> 492 133<355.462 575.125> 798 113<370.599 510.364> 1404 111<358.485 742.515>
DStem2: 184 0 299.251 0 0.173648 0.984808<133.741 1131.64>
LayerCount: 2
Fore
SplineSet
1104 112 m 18xfd80
 1284 112 1404 381 1404 598 c 0
 1404 753 1326 782 1266 782 c 0
 1161 782 1124 719 1109 637 c 2
 1093 547 l 1
 980 547 l 1
 996 637 l 2
 998 650 1000 662 1000 674 c 0
 1000 738 962 779 857 779 c 0
 711 779 610 653 594 553 c 1
 637 601 687 626 744 626 c 0
 849 626 911 557 911 469 c 0
 911 350 806 237 676 237 c 0
 635 237 492 257 492 448 c 0xfb80
 492 716 702 894 890 894 c 0
 974 894 1038 861 1082 794 c 1
 1153 861 1221 894 1286 894 c 16
 1385 894 1515 837 1515 602 c 0
 1515 247 1288 0 1082 0 c 10
 184 0 l 1
 377 1094 l 2
 378 1101 379 1109 379 1115 c 0
 379 1171 337 1205 284 1205 c 9
 304 1317 l 17
 415 1317 494 1239 494 1134 c 0
 494 1121 492 1108 490 1094 c 2
 319 112 l 1
 1104 112 l 18xfd80
696 349 m 0
 747 349 798 394 798 447 c 0
 798 485 769 517 725 517 c 0
 671 517 625 470 625 419 c 0
 625 381 652 349 696 349 c 0
EndSplineSet
EndChar

StartChar: uni0E53
Encoding: 3667 3667 202
Width: 1519
VWidth: 2045
Flags: W
HStem: 0 112<371.877 520.633> 279 112<386.024 532.343> 782 112<494.984 801.966 1060.55 1309.12>
VStem: 179 115<297.471 555.968> 538 116<129.819 274.346> 1359 115<508.214 586 621 732.885>
DStem2: 744 0 857 0 0.173648 0.984808<19.6222 630.403> 1253 0 1366 0 0.173648 0.984808<19.6222 629.464>
LayerCount: 2
Fore
SplineSet
418 0 m 0
 549 0 654 116 654 229 c 0
 654 320 586 391 487 391 c 0
 386 391 323 325 302 296 c 1
 297 310 294 328 294 350 c 0
 294 442 333 782 685 782 c 16
 780 782 850 717 850 622 c 0
 850 610 849 598 847 586 c 2
 744 0 l 1
 857 0 l 1
 960 586 l 2
 981 701 1087 782 1193 782 c 0
 1293 782 1359 712 1359 621 c 0
 1359 610 1358 598 1356 586 c 2
 1253 0 l 1
 1366 0 l 1
 1469 586 l 2
 1472 605 1474 623 1474 640 c 0
 1474 784 1369 894 1213 894 c 0
 1050 894 960 788 937 763 c 1
 918 789 865 894 705 894 c 8
 339 894 179 591 179 309 c 0
 179 78 314 0 418 0 c 0
538 210 m 0
 538 162 497 112 439 112 c 0
 396 112 367 142 367 181 c 0
 367 235 418 279 468 279 c 0
 511 279 538 248 538 210 c 0
EndSplineSet
EndChar

StartChar: uni0E54
Encoding: 3668 3668 203
Width: 1519
VWidth: 2045
Flags: W
HStem: 0 112<425.206 785 911.703 1332> 275 112<820.761 970.568> 553 112<835.101 982.304> 782 112<526.977 1454.44>
VStem: 182 114<233.006 556.58> 665 152<289.586 532.566> 988 115<405.426 548.63> 1558 113<993.742 1091>
LayerCount: 2
Fore
SplineSet
182 371 m 0
 182 637 431 894 722 894 c 2
 1326 894 l 2
 1439 894 1540 984 1558 1091 c 9
 1671 1091 l 17
 1641 921 1480 782 1306 782 c 2
 702 782 l 2
 478 782 296 590 296 386 c 0
 296 223 420 112 581 112 c 2
 785 112 l 17
 700 178 665 283 665 379 c 0
 665 570 812 665 937 665 c 0
 1036 665 1103 594 1103 504 c 0
 1103 380 987 275 868 275 c 0
 847 275 830 276 817 279 c 1
 822 245 847 209 893 170 c 0
 939 131 1016 112 1124 112 c 10
 1352 112 l 1
 1332 0 l 1
 561 0 l 2
 338 0 182 161 182 371 c 0
887 387 m 0
 938 387 988 431 988 484 c 0
 988 522 961 553 917 553 c 0
 868 553 817 510 817 455 c 0
 817 416 844 387 887 387 c 0
EndSplineSet
EndChar

StartChar: uni0E55
Encoding: 3669 3669 204
Width: 1519
VWidth: 2045
Flags: W
HStem: 0 112<425.206 785 911.703 1332> 275 112<820.761 970.568> 553 112<835.101 982.304> 782 135<766.321 914.587> 782 112<995 1454.44> 1084 112<778.708 930.206>
VStem: 182 114<233.006 560.098> 646 116<921.625 1065.33> 665 152<289.586 532.566> 934 114<936.662 1079.3> 988 115<405.426 548.63> 1558 113<993.742 1091>
LayerCount: 2
Fore
SplineSet
646 965 m 0xef10
 646 1080 751 1196 881 1196 c 0
 983 1196 1048 1125 1048 1035 c 0xef50
 1048 979 1025 929 995 894 c 9
 1326 894 l 2
 1439 894 1540 984 1558 1091 c 9
 1671 1091 l 17
 1641 921 1480 782 1306 782 c 2
 702 782 l 2
 478 782 296 590 296 386 c 0
 296 223 420 112 581 112 c 2
 785 112 l 17
 700 178 665 283 665 379 c 0
 665 570 812 665 937 665 c 0
 1036 665 1103 594 1103 504 c 0
 1103 380 987 275 868 275 c 0
 847 275 830 276 817 279 c 1xeeb0
 822 245 847 209 893 170 c 0
 939 131 1016 112 1124 112 c 10
 1352 112 l 1
 1332 0 l 1
 561 0 l 2
 338 0 182 161 182 371 c 0
 182 636 422 865 663 891 c 1
 652 914 646 938 646 965 c 0xef10
833 917 m 0xf750
 891 917 934 970 934 1016 c 0
 934 1057 902 1084 862 1084 c 0
 815 1084 762 1045 762 987 c 0
 762 949 789 917 833 917 c 0xf750
887 387 m 0
 938 387 988 431 988 484 c 0
 988 522 961 553 917 553 c 0
 868 553 817 510 817 455 c 0xe6b0
 817 416 844 387 887 387 c 0
EndSplineSet
EndChar

StartChar: uni0E56
Encoding: 3670 3670 205
Width: 1412
VWidth: 2045
Flags: W
HStem: 0 112<493.891 885.026> 396 112<390.411 538.551> 782 112<535.915 1071.04>
VStem: 243 128<232.601 376.758> 384 115<944.281 1336.32> 544 115<248.286 391.392> 1225 118<385.438 647.025>
DStem2: 175.325 0 287.704 0 0.173648 0.984808<838.964 1221.39>
LayerCount: 2
Fore
SplineSet
667 112 m 0
 1001 112 1225 356 1225 516 c 0
 1225 674 1063 782 880 782 c 0
 525 782 366 678 285 622 c 9
 381 1168 l 2
 383 1180 384 1192 384 1204 c 0
 384 1242 372 1277 347 1307 c 9
 441 1385 l 17
 480 1338 499 1284 499 1223 c 0
 499 1205 497 1187 494 1168 c 2
 430 807 l 1
 519 850 633 894 888 894 c 0
 1110 894 1343 767 1343 537 c 0
 1343 294 1040 0 607 0 c 0
 310 0 243 143 243 248 c 0
 243 400 371 508 492 508 c 0
 594 508 659 437 659 347 c 0
 659 259 599 166 492 127 c 1
 509 115 651 112 667 112 c 0
442 228 m 0
 498 228 544 277 544 327 c 0
 544 366 516 396 472 396 c 0
 416 396 371 347 371 297 c 0
 371 259 398 228 442 228 c 0
EndSplineSet
EndChar

StartChar: uni0E57
Encoding: 3671 3671 206
Width: 1385
VWidth: 2045
Flags: W
HStem: 0 112<327.313 475.059 1029 1135.32> 279 112<339.786 486.845> 782 112<390.76 592.413 780.531 989.504>
VStem: 148 108<301.1 579.726> 492 116<130.073 274.858> 1011 115<564.521 759.723>
DStem2: 500.068 0 613.068 0 0.173648 0.984808<502.965 677.44> 896 0 1009.25 0 0.173648 0.984808<133.394 678.391> 1149.74 0 1262.74 0 0.173648 0.984808<147.554 1202.45>
LayerCount: 2
Fore
SplineSet
608 229 m 0
 608 105 492 0 372 0 c 0
 211 0 148 140 148 309 c 0
 148 476 219 894 518 894 c 0
 597 894 654 865 699 801 c 1
 720 822 795 894 912 894 c 0
 1040 894 1126 804 1126 688 c 0
 1126 673 1125 658 1122 643 c 2
 1029 112 l 17
 1108 112 1181 177 1194 251 c 2
 1332 1033 l 2
 1348 1123 1391 1196 1462 1251 c 9
 1527 1172 l 17
 1481 1135 1455 1089 1445 1033 c 2
 1307 251 l 18
 1283 112 1149 0 1009 0 c 2
 896 0 l 1
 1009 643 l 2
 1011 652 1011 660 1011 669 c 0
 1011 733 965 782 892 782 c 0
 811 782 740 719 726 643 c 2
 697 476 l 1
 584 476 l 1
 613 643 l 2
 615 652 615 660 615 668 c 0
 615 735 566 782 498 782 c 0
 295 782 261 439 256 296 c 1
 277 325 340 391 441 391 c 0
 541 391 608 321 608 229 c 0
394 112 m 0
 448 112 492 158 492 211 c 0
 492 249 466 279 423 279 c 0
 370 279 321 233 321 181 c 0
 321 139 353 112 394 112 c 0
EndSplineSet
EndChar

StartChar: uni0E58
Encoding: 3672 3672 207
Width: 1519
VWidth: 2045
Flags: W
HStem: 0 104<921.93 1010> 308 116<499.919 647.906 1089.57 1240.13> 782 112<478.141 652 1306 1457.92>
VStem: 163 118<207.3 582.285> 962 111<146.98 289.323> 1245 114<160.886 302.497> 1558 113<991.375 1091>
LayerCount: 2
Fore
SplineSet
281 372 m 0
 281 675 492 782 632 782 c 2
 1306 782 l 2
 1477 782 1641 919 1671 1091 c 9
 1558 1091 l 17
 1538 976 1432 894 1326 894 c 2
 652 894 l 2
 421 894 163 691 163 384 c 0
 163 240 216 66 415 0 c 1
 465 222 494 308 569 308 c 0
 604 308 666 257 755 154 c 0
 845 51 946 0 1057 0 c 0
 1232 0 1359 126 1359 258 c 0
 1359 357 1287 420 1193 420 c 0
 1081 420 962 328 962 197 c 0
 962 156 977 125 1010 104 c 1
 1008 104 l 2
 880 104 760 424 585 424 c 0
 428 424 375 253 362 180 c 1
 359 159 l 1
 300 229 281 298 281 372 c 0
1245 239 m 0
 1245 190 1200 142 1144 142 c 0
 1101 142 1073 171 1073 210 c 0
 1073 260 1115 308 1173 308 c 0
 1216 308 1245 278 1245 239 c 0
EndSplineSet
EndChar

StartChar: uni0E59
Encoding: 3673 3673 208
Width: 1519
VWidth: 2045
Flags: W
HStem: 0 151<434.096 677.767> 319 111<551.638 699.335> 782 112<536.163 933.7 1147.21 1406.35>
VStem: 184 114<173.284 545.083> 415 116<155.808 298.141> 704 116<170.14 312.49> 1075 114<329.05 644.807>
DStem2: 997 0 1110 0 0.173648 0.984808<19.6222 487.021> 1319.83 0 1432.92 0 0.173648 0.984808<859.051 1341.54>
LayerCount: 2
Fore
SplineSet
184 326 m 0
 184 642 415 894 763 894 c 0
 870 894 955 885 1055 794 c 1
 1138 861 1218 894 1295 894 c 0
 1378 894 1436 878 1469 846 c 9
 1526 1168 l 2
 1541 1251 1584 1324 1656 1385 c 9
 1721 1307 l 17
 1676 1272 1649 1225 1639 1168 c 2
 1556 698 l 25
 1434 646 l 17
 1434 653 l 2
 1434 741 1377 782 1275 782 c 0
 1224 782 1175 762 1127 723 c 1
 1153 695 1189 606 1189 493 c 0
 1189 464 1186 433 1181 402 c 2
 1110 0 l 1
 997 0 l 1
 1068 402 l 2
 1073 430 1075 456 1075 482 c 0
 1075 664 953 782 743 782 c 0
 481 782 298 609 298 339 c 0
 298 153 406 112 446 106 c 1
 425 130 415 159 415 195 c 0
 415 336 541 430 652 430 c 0
 748 430 820 363 820 269 c 0
 820 224 800 132 703 61 c 0
 647 20 564 0 454 0 c 0
 336 0 184 86 184 326 c 0
603 151 m 0
 654 151 704 195 704 248 c 0
 704 287 676 319 632 319 c 0
 574 319 531 266 531 219 c 0
 531 177 563 151 603 151 c 0
EndSplineSet
EndChar

StartChar: uni0E5A
Encoding: 3674 3674 209
Width: 1276
VWidth: 2045
Flags: W
HStem: 0 21G<825 941.525 1031 1147.52> 764 112<519.557 780.271> 1142 112<389.585 535.804>
VStem: 255 117<979.333 1124.06> 542 115<993.207 1136>
DStem2: 825 0 938 0 0.173648 0.984808<19.6222 956.515 1090.37 1273.33> 1031 0 1144 0 0.173648 0.984808<19.6222 1268.23>
LayerCount: 2
Fore
SplineSet
1251 1249 m 25
 1365 1254 l 25
 1144 0 l 1
 1031 0 l 1
 1251 1249 l 25
657 1092 m 0
 657 1042 634 943 516 882 c 1
 540 878 567 876 598 876 c 256
 809 876 1009 1043 1046 1254 c 9
 1159 1254 l 25
 938 0 l 1
 825 0 l 1
 991 942 l 17
 895 850 754 764 579 764 c 256
 321 764 255 896 255 1008 c 0
 255 1166 385 1254 491 1254 c 0
 587 1254 657 1187 657 1092 c 0
442 973 m 0
 492 973 542 1019 542 1071 c 0
 542 1110 515 1142 471 1142 c 0
 420 1142 372 1098 372 1043 c 0
 372 1004 399 973 442 973 c 0
EndSplineSet
EndChar

StartChar: uni0E5B
Encoding: 3675 3675 210
Width: 2472
VWidth: 2045
Flags: W
HStem: 0 109<447.831 821.473> 345 113<674.399 819.245> 432 112<2293.17 2471> 625 112<687.3 833.374> 944 114<562.991 876.861>
VStem: 166 116<278.73 646.692> 553 115<463.667 606.035> 980 105<603.091 842.609>
DStem2: 1095 394 1178 361 0.486508 0.873676<-207.321 290.99> 1392 737 1316 604 0.164837 -0.986321<118.653 370.062> 1453 372 1483 239 0.45982 0.888012<0 306.26> 1749 737 1671 604 0.164837 -0.986321<118.323 370.062> 1810 372 1838 239 0.461735 0.887018<0 306.446> 2104 737 2028 604 0.164837 -0.986321<118.653 370.062>
LayerCount: 2
Fore
SplineSet
712 944 m 0xdf
 534 944 282 729 282 459 c 0
 282 289 385 109 631 109 c 0
 816 109 1006 233 1095 394 c 10
 1286 737 l 9
 1392 737 l 17
 1453 372 l 25
 1642 737 l 9
 1749 737 l 17
 1810 372 l 25
 1998 737 l 9
 2104 737 l 17
 2165 372 l 17
 2238 487 2306 544 2370 544 c 2
 2491 544 l 1
 2471 432 l 1
 2358 432 l 26xbf
 2319 432 2265 368 2195 239 c 9
 2088 239 l 17
 2028 604 l 25
 1838 239 l 9
 1731 239 l 17
 1671 604 l 25
 1483 239 l 9
 1376 239 l 17
 1316 604 l 25
 1178 361 l 2
 1110 241 909 0 602 0 c 0
 322 0 166 199 166 434 c 0
 166 769 475 1058 744 1058 c 0
 909 1058 1085 963 1085 746 c 0
 1085 491 864 345 741 345 c 0
 614 345 553 417 553 505 c 0
 553 629 665 737 787 737 c 0
 922 737 947 630 945 601 c 1
 964 617 980 660 980 710 c 0
 980 820 900 944 712 944 c 0xdf
738 458 m 0xdf
 790 458 838 505 838 557 c 0
 838 596 810 625 767 625 c 0
 711 625 668 576 668 527 c 0
 668 489 695 458 738 458 c 0xdf
EndSplineSet
EndChar

StartChar: zerowidthjoiner
Encoding: 8205 8205 211
Width: 0
VWidth: 2045
Flags: W
LayerCount: 2
Back
SplineSet
-11.4902 -275 m 1
 -85.4902 -275 l 1
 159.252 1113 l 1
 1.27148 977 l 1
 -38.9121 1027 l 1
 161.887 1196 l 1
 20.1572 1362 l 1
 77.9736 1412 l 1
 218.998 1242 l 1
 419.974 1412 l 1
 460.157 1362 l 1
 259.887 1196 l 1
 401.088 1027 l 1
 343.271 977 l 1
 233.252 1113 l 1
 -11.4902 -275 l 1
EndSplineSet
EndChar

StartChar: afii299
Encoding: 8206 8206 212
Width: 0
VWidth: 2045
Flags: W
LayerCount: 2
Back
SplineSet
641.24 1198 m 1
 386.329 983 l 1
 347.146 1033 l 1
 505.068 1163 l 1
 240.068 1163 l 1
 -13.4902 -275 l 1
 -85.4902 -275 l 1
 180.234 1232 l 1
 517.234 1232 l 1
 405.157 1362 l 1
 461.974 1412 l 1
 641.24 1198 l 1
EndSplineSet
EndChar

StartChar: afii300
Encoding: 8207 8207 213
Width: 0
VWidth: 2045
Flags: W
LayerCount: 2
Back
SplineSet
-13.4902 -275 m 1
 -85.4902 -275 l 1
 168.068 1163 l 1
 -96.9316 1163 l 1
 17.1455 1033 l 1
 -39.6709 983 l 1
 -218.761 1198 l 1
 35.9736 1412 l 1
 75.1572 1362 l 1
 -84.7656 1232 l 1
 252.234 1232 l 1
 -13.4902 -275 l 1
EndSplineSet
EndChar

StartChar: uni2010
Encoding: 8208 8208 214
Width: 971
VWidth: 2045
Flags: W
HStem: 594 136<318 919>
VStem: 294 649
LayerCount: 2
Fore
SplineSet
318 730 m 1
 943 730 l 1
 919 594 l 1
 294 594 l 1
 318 730 l 1
EndSplineSet
EndChar

StartChar: endash
Encoding: 8211 8211 215
Width: 1123
VWidth: 2045
Flags: W
HStem: 594 136<126 1226>
LayerCount: 2
Fore
SplineSet
1226 594 m 1
 102 594 l 1
 126 730 l 1
 1250 730 l 1
 1226 594 l 1
EndSplineSet
EndChar

StartChar: emdash
Encoding: 8212 8212 216
Width: 1882
VWidth: 2045
Flags: W
HStem: 594 136<126 1968>
LayerCount: 2
Fore
SplineSet
1968 594 m 1
 102 594 l 1
 126 730 l 1
 1992 730 l 1
 1968 594 l 1
EndSplineSet
EndChar

StartChar: horizontalbar
Encoding: 8213 8213 217
Width: 1858
VWidth: 2045
Flags: W
HStem: 594 136<239 1855>
LayerCount: 2
Fore
SplineSet
1855 594 m 1
 215 594 l 1
 239 730 l 1
 1879 730 l 1
 1855 594 l 1
EndSplineSet
EndChar

StartChar: underscoredbl
Encoding: 8215 8215 218
Width: 1115
VWidth: 2045
Flags: W
HStem: -423 130<-67 1058> -211 130<-29 1096>
LayerCount: 2
Fore
SplineSet
1096 -211 m 1
 -52 -211 l 1
 -29 -81 l 1
 1119 -81 l 1
 1096 -211 l 1
1058 -423 m 1
 -90 -423 l 1
 -67 -293 l 1
 1081 -293 l 1
 1058 -423 l 1
EndSplineSet
EndChar

StartChar: quoteleft
Encoding: 8216 8216 219
Width: 448
VWidth: 2045
Flags: W
HStem: 997 559<373 451>
VStem: 210 301
LayerCount: 2
Fore
SplineSet
511 997 m 1
 373 997 l 1
 210 1556 l 1
 451 1556 l 1
 511 997 l 1
EndSplineSet
EndChar

StartChar: quoteright
Encoding: 8217 8217 220
Width: 577
VWidth: 2045
Flags: W
HStem: 997 559
VStem: 274 495
LayerCount: 2
Fore
SplineSet
769 1556 m 1
 411 997 l 1
 274 997 l 1
 527 1556 l 1
 769 1556 l 1
EndSplineSet
EndChar

StartChar: quotesinglbase
Encoding: 8218 8218 221
Width: 429
VWidth: 2045
Flags: W
HStem: -275 559
VStem: -60 496
LayerCount: 2
Fore
SplineSet
436 284 m 1
 77 -275 l 1
 -60 -275 l 1
 193 284 l 1
 436 284 l 1
EndSplineSet
EndChar

StartChar: quotereversed
Encoding: 8219 8219 222
Width: 429
VWidth: 2045
Flags: W
HStem: 997 559
VStem: 112 497
LayerCount: 2
Fore
SplineSet
609 1556 m 1
 353 997 l 1
 112 997 l 1
 471 1556 l 1
 609 1556 l 1
EndSplineSet
EndChar

StartChar: quotedblleft
Encoding: 8220 8220 223
Width: 847
VWidth: 2045
Flags: W
HStem: 997 559<373 448 768 841>
LayerCount: 2
Fore
SplineSet
900 997 m 1
 768 997 l 1
 603 1556 l 1
 841 1556 l 1
 900 997 l 1
507 997 m 1
 373 997 l 1
 210 1556 l 1
 448 1556 l 1
 507 997 l 1
EndSplineSet
EndChar

StartChar: quotedblright
Encoding: 8221 8221 224
Width: 998
VWidth: 2045
Flags: W
HStem: 997 559
LayerCount: 2
Fore
SplineSet
1169 1556 m 1
 810 997 l 1
 676 997 l 1
 931 1556 l 1
 1169 1556 l 1
776 1556 m 1
 417 997 l 1
 283 997 l 1
 538 1556 l 1
 776 1556 l 1
EndSplineSet
EndChar

StartChar: quotedblbase
Encoding: 8222 8222 225
Width: 812
VWidth: 2045
Flags: W
HStem: -275 559
LayerCount: 2
Fore
SplineSet
831 284 m 1
 470 -275 l 1
 338 -275 l 1
 593 284 l 1
 831 284 l 1
437 284 m 1
 77 -275 l 1
 -56 -275 l 1
 199 284 l 1
 437 284 l 1
EndSplineSet
EndChar

StartChar: dagger
Encoding: 8224 8224 226
Width: 1115
VWidth: 2045
Flags: W
HStem: 1030 136<340 673 830 1164>
DStem2: 509 136 655 136 0.173648 0.984808<25.3526 914.805 1064.18 1441.84>
LayerCount: 2
Fore
SplineSet
1164 1030 m 1
 808 1036 l 1
 655 136 l 1
 509 136 l 1
 673 1036 l 1
 316 1030 l 1
 340 1166 l 1
 695 1160 l 1
 759 1556 l 1
 905 1556 l 1
 830 1160 l 1
 1188 1166 l 1
 1164 1030 l 1
EndSplineSet
EndChar

StartChar: daggerdbl
Encoding: 8225 8225 227
Width: 1115
VWidth: 2045
Flags: W
HStem: 504 136<247 575 743 1071> 1035 136<341 667 837 1164>
DStem2: 502 124 659 124 0.173648 0.984808<27.2628 390.842 545.086 925.812 1089.27 1454>
LayerCount: 2
Fore
SplineSet
1071 504 m 1
 721 508 l 1
 659 124 l 1
 502 124 l 1
 575 508 l 1
 223 504 l 1
 247 640 l 1
 597 635 l 1
 667 1035 l 1
 316 1031 l 1
 341 1176 l 1
 691 1171 l 1
 754 1556 l 1
 911 1556 l 1
 837 1171 l 1
 1189 1176 l 1
 1164 1031 l 1
 813 1035 l 1
 743 635 l 1
 1095 640 l 1
 1071 504 l 1
EndSplineSet
EndChar

StartChar: bullet
Encoding: 8226 8226 228
Width: 948
VWidth: 2045
Flags: W
HStem: 311 701<466.165 696.203>
VStem: 224 715<553.335 773.282>
LayerCount: 2
Fore
SplineSet
224 598 m 0
 224 817 424 1012 641 1012 c 0
 815 1012 939 890 939 723 c 0
 939 516 747 311 520 311 c 0
 351 311 224 430 224 598 c 0
EndSplineSet
EndChar

StartChar: ellipsis
Encoding: 8230 8230 229
Width: 1648
VWidth: 2045
Flags: W
HStem: 0 224<216 381 774 938 1330 1494>
LayerCount: 2
Fore
SplineSet
1494 0 m 1
 1291 0 l 1
 1330 224 l 1
 1533 224 l 1
 1494 0 l 1
938 0 m 1
 735 0 l 1
 774 224 l 1
 977 224 l 1
 938 0 l 1
381 0 m 1
 177 0 l 1
 216 224 l 1
 420 224 l 1
 381 0 l 1
EndSplineSet
EndChar

StartChar: perthousand
Encoding: 8240 8240 230
Width: 2570
VWidth: 2045
Flags: W
HStem: -48 136<1308.58 1492.03 2060.58 2244.03> -9 21G<476 635.662> 588 136<1383.97 1567.42 2135.97 2319.42> 718 136<496.577 680.026> 1354 136<571.974 755.423>
VStem: 306 148<897.063 1215.17> 798 148<992.83 1310.94> 1118 148<131.064 449.17> 1610 148<226.83 544.937> 1870 148<131.064 449.17> 2362 148<226.83 544.937>
DStem2: 476 -9 622 -9 0.564072 0.825726<82.3545 1815.37>
LayerCount: 2
Back
SplineSet
721 1517 m 1x2fe0
 897 1517 1009 1433 1009 1219 c 0
 1009 1056 946 634 566 634 c 0
 390 634 278 718 278 930 c 0
 278 1107 345 1514 721 1517 c 1x2fe0
1734 1489 m 1
 692 0 l 1
 527 0 l 1x4fe0
 1570 1489 l 1
 1734 1489 l 1
1693 853 m 0x9fe0
 1869 853 1982 767 1982 555 c 0
 1982 374 1908 -29 1538 -29 c 0
 1362 -29 1250 58 1250 271 c 0
 1250 484 1338 853 1693 853 c 0x9fe0
589 767 m 0x2fe0
 811 767 833 1151 833 1221 c 0
 833 1353 779 1384 698 1384 c 0
 480 1384 455 1004 455 924 c 0
 455 793 509 767 589 767 c 0x2fe0
1561 104 m 0x9fe0
 1785 104 1806 501 1806 562 c 0
 1806 692 1751 720 1671 720 c 0
 1451 720 1426 339 1426 264 c 0
 1426 132 1481 104 1561 104 c 0x9fe0
2537 853 m 0
 2757 853 2825 723 2825 557 c 0
 2825 347 2738 -29 2382 -29 c 0
 2205 -29 2093 58 2093 271 c 0
 2093 481 2180 853 2537 853 c 0
2405 104 m 0
 2623 104 2649 480 2649 557 c 0
 2649 688 2594 720 2514 720 c 0
 2292 720 2268 337 2268 265 c 0
 2268 134 2323 104 2405 104 c 0
EndSplineSet
Fore
SplineSet
2510 422 m 3xafe0
 2510 159 2311 -48 2122 -48 c 259
 1973 -48 1870 79 1870 254 c 3
 1870 517 2069 724 2258 724 c 259
 2407 724 2510 597 2510 422 c 3xafe0
2234 588 m 259
 2149 588 2018 465 2018 268 c 3
 2018 145 2085 88 2146 88 c 259
 2231 88 2362 211 2362 408 c 3
 2362 531 2295 588 2234 588 c 259
1758 422 m 3
 1758 159 1559 -48 1370 -48 c 259
 1221 -48 1118 79 1118 254 c 3
 1118 517 1317 724 1506 724 c 259
 1655 724 1758 597 1758 422 c 3
1482 588 m 259
 1397 588 1266 465 1266 268 c 3
 1266 145 1333 88 1394 88 c 259
 1479 88 1610 211 1610 408 c 3
 1610 531 1543 588 1482 588 c 259
946 1188 m 3
 946 925 747 718 558 718 c 259x1fe0
 409 718 306 845 306 1020 c 3
 306 1283 505 1490 694 1490 c 259
 843 1490 946 1363 946 1188 c 3
670 1354 m 259
 585 1354 454 1231 454 1034 c 3
 454 911 521 854 582 854 c 259
 667 854 798 977 798 1174 c 3
 798 1297 731 1354 670 1354 c 259
1500 1490 m 1
 1646 1490 l 1
 622 -9 l 1
 476 -9 l 1x4fe0
 1500 1490 l 1
EndSplineSet
EndChar

StartChar: minute
Encoding: 8242 8242 231
Width: 600
VWidth: 2045
Flags: W
HStem: 870 619
VStem: 290 543
LayerCount: 2
Fore
SplineSet
833 1489 m 1
 426 870 l 1
 290 870 l 1
 594 1489 l 1
 833 1489 l 1
EndSplineSet
EndChar

StartChar: second
Encoding: 8243 8243 232
Width: 969
VWidth: 2045
Flags: W
HStem: 870 619
LayerCount: 2
Fore
SplineSet
830 1489 m 1
 421 870 l 1
 290 870 l 1
 594 1489 l 1
 830 1489 l 1
1223 1489 m 1
 815 870 l 1
 684 870 l 1
 987 1489 l 1
 1223 1489 l 1
EndSplineSet
EndChar

StartChar: guilsinglleft
Encoding: 8249 8249 233
Width: 782
VWidth: 2045
Flags: W
VStem: 229 603
DStem2: 417 652 229 607 0.706293 -0.70792<0 397.392> 245 698 417 652 0.804746 0.59362<111.11 584.525>
LayerCount: 2
Fore
SplineSet
663 172 m 1
 229 607 l 1
 245 698 l 1
 832 1131 l 1
 798 933 l 1
 417 652 l 1
 699 372 l 1
 663 172 l 1
EndSplineSet
EndChar

StartChar: guilsinglright
Encoding: 8250 8250 234
Width: 782
VWidth: 2045
Flags: W
VStem: 181 602
DStem2: 217 372 181 172 0.80295 0.596046<0 472.014> 350 1131 316 933 0.707107 -0.707107<115.966 513.359>
LayerCount: 2
Fore
SplineSet
767 607 m 1
 181 172 l 1
 217 372 l 1
 597 652 l 1
 316 933 l 1
 350 1131 l 1
 783 698 l 1
 767 607 l 1
EndSplineSet
EndChar

StartChar: uni203E
Encoding: 8254 8254 236
Width: 1115
VWidth: 2045
Flags: W
HStem: 1658 130<266 1408>
LayerCount: 2
Fore
SplineSet
1408 1658 m 1
 243 1658 l 1
 266 1788 l 1
 1431 1788 l 1
 1408 1658 l 1
EndSplineSet
EndChar

StartChar: fraction
Encoding: 8260 8260 237
Width: 884
VWidth: 2045
Flags: W
HStem: 0 21G<-29 149.996>
DStem2: -29 0 136 0 0.573352 0.819309<94.603 1817.38>
LayerCount: 2
Fore
SplineSet
1178 1489 m 1
 136 0 l 1
 -29 0 l 1
 1013 1489 l 1
 1178 1489 l 1
EndSplineSet
EndChar

StartChar: uni207F
Encoding: 8319 8319 238
Width: 1007
VWidth: 2045
Flags: W
HStem: 1395 124<636.61 944.141>
VStem: 976 130<976.812 1362.64>
DStem2: 225 565 352 565 0.173648 0.984808<22.0533 791.069 856.744 937.109> 862 565 989 565 0.173648 0.984808<22.0533 696.567>
LayerCount: 2
Fore
SplineSet
853 1519 m 3
 983 1519 1106 1490 1106 1288 c 3
 1106 1252 1102 1211 1094 1163 c 2
 989 565 l 1
 862 565 l 1
 959 1115 l 2
 969 1169 976 1216 976 1254 c 3
 976 1348 934 1395 786 1395 c 3
 693 1395 624 1381 478 1281 c 1
 352 565 l 1
 225 565 l 1
 387 1488 l 1
 514 1488 l 1
 497 1387 l 1
 665 1514 751 1519 853 1519 c 3
EndSplineSet
EndChar

StartChar: dottedcircle
Encoding: 9676 9676 239
Width: 1253
VWidth: 2045
Flags: W
HStem: 6 121<567.185 677.812> 68 121<872.854 982.617> 98 121<319.725 430.392> 234 121<1066.34 1178.62> 249 121<202.75 313.576> 444 121<115.451 227 1182.16 1291.57> 680 121<172.741 285.284 1205.48 1317.76> 867 121<311.756 420.94> 891 121<1136.89 1248.93> 1010 121<526.172 636.982> 1033 121<973.786 1083.54> 1078 121<763.891 873.811>
VStem: 109 124<450.592 558.422> 166 124<685.801 794.234> 197 122<254.695 364.359> 314 122<103.858 213.871 877.462 985.768> 520 123<1016.1 1125.11> 561 123<12.3698 121.974> 758 122<1084.34 1193.38> 867 121<73.5667 184.135> 968 122<1039.31 1148.39> 1060 124<240.149 349.043> 1131 124<897.422 1006.23> 1173 122<444.168 553.479> 1199 124<685.186 793.77>
LayerCount: 2
Fore
SplineSet
428 942 m 0x07
 428 903 396 867 356 867 c 0
 327 867 306 887 306 916 c 0
 306 937 320 988 377 988 c 0
 409 988 428 969 428 942 c 0x07
643 1082 m 0x064080
 643 1044 610 1010 570 1010 c 0
 539 1010 520 1028 520 1057 c 0
 520 1102 556 1131 591 1131 c 0
 621 1131 643 1111 643 1082 c 0x064080
880 1151 m 0x061020
 880 1115 850 1078 807 1078 c 0
 782 1078 758 1096 758 1127 c 0
 758 1167 792 1199 829 1199 c 0
 857 1199 880 1182 880 1151 c 0x061020
233 516 m 0x0608
 233 473 193 444 159 444 c 0
 128 444 109 469 109 495 c 0
 109 526 140 565 182 565 c 0
 209 565 233 548 233 516 c 0x0608
319 320 m 0x0e02
 319 281 285 249 247 249 c 0
 215 249 197 270 197 297 c 0
 197 338 230 370 268 370 c 0
 297 370 319 350 319 320 c 0x0e02
436 169 m 0x2601
 436 127 399 98 363 98 c 0
 335 98 314 113 314 144 c 0
 314 186 342 219 385 219 c 0
 418 219 436 199 436 169 c 0x2601
684 78 m 0x860040
 684 38 648 6 612 6 c 0
 584 6 561 25 561 54 c 0
 561 89 588 127 632 127 c 0
 663 127 684 107 684 78 c 0x860040
988 139 m 0x460010
 988 99 954 68 916 68 c 0
 886 68 867 86 867 115 c 0
 867 153 895 189 937 189 c 0
 969 189 988 167 988 139 c 0x460010
1184 305 m 0x160004
 1184 265 1149 234 1111 234 c 0
 1076 234 1060 259 1060 284 c 0
 1060 316 1089 355 1133 355 c 0
 1165 355 1184 333 1184 305 c 0x160004
1295 510 m 0x060001
 1295 469 1261 438 1222 438 c 0
 1193 438 1173 454 1173 483 c 0
 1173 523 1201 559 1244 559 c 0
 1273 559 1295 541 1295 510 c 0x060001
1323 750 m 0x06000080
 1323 718 1298 680 1251 680 c 0
 1217 680 1199 701 1199 729 c 0
 1199 768 1237 801 1272 801 c 0
 1304 801 1323 777 1323 750 c 0x06000080
1255 960 m 0x068002
 1255 929 1225 891 1180 891 c 0
 1150 891 1131 910 1131 940 c 0
 1131 979 1165 1012 1202 1012 c 0
 1238 1012 1255 985 1255 960 c 0x068002
1090 1104 m 0x062008
 1090 1070 1057 1033 1019 1033 c 0
 989 1033 968 1052 968 1081 c 0
 968 1117 995 1154 1040 1154 c 0
 1073 1154 1090 1130 1090 1104 c 0x062008
290 749 m 0x0604
 290 709 257 680 216 680 c 0
 181 680 166 703 166 728 c 0
 166 761 196 801 239 801 c 0
 269 801 290 778 290 749 c 0x0604
EndSplineSet
EndChar

StartChar: uni0E10.descless
Encoding: 63232 63232 240
Width: 1192
VWidth: 2045
Flags: W
HStem: 0 21G<705.225 820.888> 296 112<494.707 645.224> 574 112<509.709 657.925> 764 112<401 940.198> 1142 112<626.711 983.466>
VStem: 377 114<412.13 556.84> 953 116<539.734 751.055>
DStem2: 805 266 813 0 0.366887 0.930266<0 428.199>
LayerCount: 2
Fore
SplineSet
377 457 m 0
 377 574 485 686 612 686 c 0
 686 686 767 646 778 529 c 1
 805 266 l 17
 946 631 l 18
 948 634 953 646 953 669 c 0
 953 723 919 764 859 764 c 2
 252 764 l 1
 297 1019 546 1254 832 1254 c 256
 1031 1254 1162 1143 1217 1006 c 9
 1111 949 l 17
 1042 1122 882 1142 812 1142 c 256
 628 1142 469 1015 401 876 c 1
 878 876 l 2
 986 876 1069 802 1069 693 c 0
 1069 667 1064 638 1052 606 c 10
 813 0 l 1
 707 0 l 1
 677 338 l 17
 645 310 600 296 543 296 c 0
 444 296 377 367 377 457 c 0
561 408 m 0
 611 408 663 450 663 505 c 0
 663 547 630 574 590 574 c 0
 536 574 491 528 491 474 c 0
 491 435 520 408 561 408 c 0
EndSplineSet
EndChar

StartChar: uni0E34.left
Encoding: 63233 63233 241
Width: 0
VWidth: 2045
Flags: W
HStem: 1767 112<-782.606 -422.343>
DStem2: -919 1621 -1112 1527 0.995353 -0.0962907<0 629.768>
LayerCount: 2
Back
SplineSet
-516.979 1486 m 21
 -519.254 1492 -521.196 1498 -522.805 1504 c 4
 -546.696 1561.33 -584.976 1607 -637.647 1641 c 132
 -690.318 1675 -751.321 1692 -820.654 1692 c 260
 -889.987 1692 -956.709 1674.67 -1020.82 1640 c 20
 -1066.39 1616 -1107.85 1585 -1145.22 1547 c 5
 -516.979 1486 l 21
-386.372 1359 m 13
 -1336.97 1452 l 5
 -1319.18 1488.67 -1297.22 1524.33 -1271.11 1559 c 12
 -1213.16 1634.33 -1142.66 1693.83 -1059.63 1737.5 c 132
 -976.598 1781.17 -890.357 1803.33 -800.906 1804 c 260
 -711.573 1804 -632.619 1782 -564.044 1738 c 132
 -495.469 1694 -446.157 1634.33 -416.106 1559 c 4
 -389.587 1497.67 -379.676 1431 -386.372 1359 c 13
EndSplineSet
Fore
Refer: 175 3636 N 1 0 0 1 -245 0 2
EndChar

StartChar: uni0E35.left
Encoding: 63234 63234 242
Width: 0
VWidth: 2045
Flags: W
HStem: 1764 112<-782.996 -424.639>
DStem2: -920 1618 -1112 1524 0.995353 -0.0962907<0 630.763> -274.432 1432 -161.692 1432 0.173648 0.984808<273.15 510.714>
LayerCount: 2
Back
SplineSet
-386.019 1361 m 13
 -1336.8 1453 l 5
 -1318.77 1491 -1296.69 1527.33 -1270.58 1562 c 12
 -1212.75 1636.67 -1142.31 1695.83 -1059.28 1739.5 c 132
 -976.246 1783.17 -890.062 1805 -800.729 1805 c 260
 -711.396 1805 -632.55 1783.33 -564.191 1740 c 4
 -518.148 1710 -480.613 1673.33 -451.587 1630 c 13
 -410.326 1864 l 5
 -297.326 1864 l 13
 -386.019 1361 l 13
-516.625 1488 m 21
 -519.136 1492.67 -521.196 1498 -522.805 1504 c 4
 -546.46 1562.67 -584.652 1608.83 -637.383 1642.5 c 132
 -690.114 1676.17 -751.146 1693 -820.479 1693 c 260
 -889.812 1693 -956.416 1676.33 -1020.29 1643 c 20
 -1065.98 1618.33 -1107.62 1586.33 -1145.22 1547 c 5
 -516.625 1488 l 21
EndSplineSet
Fore
Refer: 176 3637 N 1 0 0 1 -245 0 2
EndChar

StartChar: uni0E36.left
Encoding: 63235 63235 243
Width: 0
VWidth: 2045
Flags: W
HStem: 1762 112<-768.403 -466.541> 1966 112<-336.637 -189.996>
VStem: -470 114<1866 1944.42> -184 115<1817.07 1961.46>
DStem2: -905 1616 -1098 1522 0.995353 -0.0962907<0 630.763>
LayerCount: 2
Back
SplineSet
-455.882 1634 m 1
 -439.094 1612 -425.659 1588 -415.577 1562 c 0
 -389.96 1499.33 -380.441 1432.33 -387.019 1361 c 9
 -1336.8 1453 l 1
 -1318.77 1491 -1296.69 1527.33 -1270.58 1562 c 8
 -1212.75 1636.67 -1142.31 1695.83 -1059.28 1739.5 c 128
 -976.246 1783.17 -890.062 1805 -800.729 1805 c 256
 -768.062 1805 -737.533 1802.33 -709.141 1797 c 1
 -709.768 1801 -709.553 1806 -708.495 1812 c 0
 -698.856 1866.67 -671.324 1913.17 -625.897 1951.5 c 128
 -580.472 1989.83 -530.259 2009 -475.259 2009 c 128
 -420.259 2009 -376.805 1989.83 -344.897 1951.5 c 128
 -312.99 1913.17 -301.827 1866.83 -311.407 1812.5 c 128
 -320.988 1758.17 -348.462 1712 -393.829 1674 c 0
 -414.1 1657.33 -434.785 1644 -455.882 1634 c 1
-595.407 1812.5 m 128
 -599.462 1789.5 -594.459 1769.67 -580.398 1753 c 128
 -566.337 1736.33 -547.64 1728 -524.307 1728 c 128
 -500.974 1728 -479.504 1736.33 -459.898 1753 c 128
 -440.293 1769.67 -428.462 1789.5 -424.407 1812.5 c 128
 -420.352 1835.5 -425.188 1855.33 -438.916 1872 c 128
 -452.644 1888.67 -471.175 1897 -494.508 1897 c 128
 -517.841 1897 -539.477 1888.67 -559.416 1872 c 128
 -579.355 1855.33 -591.352 1835.5 -595.407 1812.5 c 128
-516.625 1488 m 17
 -519.136 1492.67 -521.196 1498 -522.805 1504 c 0
 -546.46 1562.67 -584.652 1608.83 -637.383 1642.5 c 128
 -690.114 1676.17 -751.146 1693 -820.479 1693 c 256
 -889.812 1693 -956.416 1676.33 -1020.29 1643 c 16
 -1065.98 1618.33 -1107.62 1586.33 -1145.22 1547 c 1
 -516.625 1488 l 17
EndSplineSet
Fore
Refer: 177 3638 N 1 0 0 1 -230 0 2
EndChar

StartChar: uni0E37.left
Encoding: 63236 63236 244
Width: 0
VWidth: 2045
Flags: W
HStem: 1764 112<-766.996 -409.696>
DStem2: -904 1618 -1096 1524 0.995353 -0.0962907<0 630.763> -258.432 1432 -145.692 1432 0.173648 0.984808<273.15 510.714>
LayerCount: 2
Back
SplineSet
-547.307 1728 m 17
 -508.126 1700.67 -476.22 1668 -451.587 1630 c 9
 -410.326 1864 l 1
 -297.326 1864 l 9
 -386.019 1361 l 9
 -1336.8 1453 l 1
 -1318.77 1491 -1296.69 1527.33 -1270.58 1562 c 8
 -1212.75 1636.67 -1142.31 1695.83 -1059.28 1739.5 c 128
 -976.246 1783.17 -890.062 1805 -800.729 1805 c 256
 -746.729 1805 -696.807 1797 -650.962 1781 c 9
 -636.326 1864 l 1
 -523.326 1864 l 1
 -547.307 1728 l 17
-516.625 1488 m 17
 -519.136 1492.67 -521.196 1498 -522.805 1504 c 0
 -546.46 1562.67 -584.652 1608.83 -637.383 1642.5 c 128
 -690.114 1676.17 -751.146 1693 -820.479 1693 c 256
 -889.812 1693 -956.416 1676.33 -1020.29 1643 c 16
 -1065.98 1618.33 -1107.62 1586.33 -1145.22 1547 c 1
 -516.625 1488 l 17
EndSplineSet
Fore
Refer: 178 3639 N 1 0 0 1 -229 0 2
EndChar

StartChar: uni0E48.low_left
Encoding: 63237 63237 245
Width: 0
VWidth: 2045
Flags: W
HStem: 1444 448<-181 -149>
VStem: -260 190
DStem2: -260 1444 -149 1444 0.173648 0.984808<19.2749 454.912>
LayerCount: 2
Back
SplineSet
-327.52 1568 m 1
 -205.52 1568 l 1
 -254.009 1293 l 1
 -376.009 1293 l 1
 -327.52 1568 l 1
EndSplineSet
Fore
Refer: 250 63242 N 1 0 0 1 -198 0 2
EndChar

StartChar: uni0E48.low
Encoding: 63242 63242 250
Width: 0
VWidth: 2045
Flags: W
HStem: 1444 448<17 49>
VStem: -62 190
DStem2: -62 1444 49 1444 0.173648 0.984808<19.2749 454.912>
AnchorPoint: "AboveMark" 98 2040 basemark 0
AnchorPoint: "AboveBase" 36 1370 mark 0
LayerCount: 2
Back
SplineSet
-14 1719 m 25
 97 1719 l 1
 49 1444 l 1
 -62 1444 l 1
 -14 1719 l 25
EndSplineSet
Fore
SplineSet
17 1892 m 25
 128 1892 l 1
 49 1444 l 1
 -62 1444 l 1
 17 1892 l 25
EndSplineSet
EndChar

StartChar: uni0E49.low
Encoding: 63243 63243 251
Width: 0
VWidth: 2045
Flags: W
HStem: 1421 112<-257 -75.9531> 1604 72<-319.389 -302> 1788 83<-315.336 -206.682>
VStem: -406 85<1676.98 1781.49> -206 87<1680.27 1786.73> 191 114<1788.75 1911>
AnchorPoint: "AboveMark" -110 2040 basemark 0
AnchorPoint: "AboveBase" 119 1370 mark 0
LayerCount: 2
Fore
SplineSet
-406 1708 m 0
 -406 1795 -325 1871 -238 1871 c 0
 -169 1871 -119 1825 -119 1759 c 0
 -119 1731 -130 1683 -157 1649 c 1
 -257 1533 l 1
 -40 1537 155 1706 191 1911 c 265
 305 1911 l 273
 257 1641 -1 1421 -276 1421 c 10
 -389 1421 l 1
 -370 1533 l 1
 -302 1604 l 17
 -347 1604 -406 1637 -406 1708 c 0
-272 1676 m 0
 -234 1676 -206 1708 -206 1743 c 0
 -206 1768 -223 1788 -253 1788 c 0
 -287 1788 -321 1758 -321 1722 c 0
 -321 1694 -299 1676 -272 1676 c 0
EndSplineSet
EndChar

StartChar: uni0E4A.low
Encoding: 63244 63244 252
Width: 0
VWidth: 2045
Flags: W
HStem: 1418 112<-72 23.4023> 1418 83<-419.257 -312.619> 1613 88<-416.827 -307.143> 1754 112<-407.188 -225.655 -130.507 48.0983>
VStem: -558 137<1501.64 1671.44> -306 84<1508.4 1611.13> 63 114<1601.78 1740.39> 376 112<1786.08 1908>
AnchorPoint: "AboveMark" -119 2040 basemark 0
AnchorPoint: "AboveBase" 111 1370 mark 0
LayerCount: 2
Fore
SplineSet
-72 1530 m 1,0,-1
-558 1583 m 0,1,-1
 -558 1761 -414 1865 -287 1866 c 16,4,-1
 -235 1866 -192 1851 -158 1820 c 1,7,-1
 -114 1850 -66 1865 -13 1866 c 1,10,-1
 101 1866 177 1785 177 1680 c 0,13,-1
 177 1649 171 1623 162 1601 c 1,16,-1
 266 1665 353 1774 376 1908 c 265,19,-1
 488 1908 l 273,20,-1
 441 1639 186 1418 -92 1418 c 9,23,-1
 -72 1530 l 17,24,-1
 51 1552 63 1629 63 1661 c 0,27,-1
 63 1716 21 1754 -33 1754 c 8,30,-1
 -93 1754 -131 1710 -143 1695 c 1,33,-1
 -218 1695 l 1,34,-1
 -224 1709 -247 1754 -310 1754 c 24,37,-1
 -383 1754 -441 1686 -448 1643 c 1,40,-1
 -422 1682 -384 1701 -331 1701 c 1,43,-1
 -268 1698 -222 1652 -222 1586 c 0,46,-1
 -222 1493 -304 1418 -390 1418 c 0,49,-1
 -475 1418 -558 1462 -558 1583 c 0,1,-1
-375 1501 m 0,52,-1
 -334 1501 -306 1539 -306 1567 c 0,55,-1
 -306 1593 -326 1613 -356 1613 c 0,58,-1
 -390 1613 -421 1584 -421 1547 c 0,61,-1
 -421 1522 -404 1501 -375 1501 c 0,52,-1
EndSplineSet
EndChar

StartChar: uni0E4B.low
Encoding: 63245 63245 253
Width: 0
VWidth: 2045
Flags: W
HStem: 1599 112<-216 -87 46 175>
VStem: -236 431
DStem2: -117 1430 -4 1430 0.173648 0.984808<19.6222 171.642 305.036 454.912>
AnchorPoint: "AboveMark" 48 2040 basemark 0
AnchorPoint: "AboveBase" 140 1370 mark 0
LayerCount: 2
Back
SplineSet
172 1581 m 1
 23 1581 l 1
 -4 1430 l 1
 -117 1430 l 1
 -90 1581 l 1
 -239 1581 l 1
 -219 1693 l 1
 -70 1693 l 1
 -44 1842 l 1
 69 1842 l 1
 43 1693 l 1
 192 1693 l 1
 172 1581 l 1
EndSplineSet
Fore
SplineSet
175 1599 m 1
 26 1599 l 1
 -4 1430 l 1
 -117 1430 l 1
 -87 1599 l 1
 -236 1599 l 1
 -216 1711 l 1
 -67 1711 l 1
 -38 1878 l 1
 75 1878 l 1
 46 1711 l 1
 195 1711 l 1
 175 1599 l 1
EndSplineSet
EndChar

StartChar: uni0E4C.low
Encoding: 63246 63246 254
Width: 0
VWidth: 2045
Flags: W
HStem: 1420 112<-326.101 -179.764> 1701 112<-313.089 -163.321 -52 272.1>
VStem: -447 115<1536.96 1681.23> -159 115<1550.87 1696.62>
AnchorPoint: "AboveMark" -7 2040 basemark 0
AnchorPoint: "AboveBase" -125 1370 mark 0
LayerCount: 2
Fore
SplineSet
-447 1582 m 0
 -447 1707 -331 1813 -211 1813 c 10
 140 1813 l 2
 195 1813 244 1832 290 1870 c 9
 356 1792 l 17
 284 1731 205 1701 120 1701 c 2
 -52 1701 l 17
 -47 1685 -44 1667 -44 1649 c 0
 -44 1526 -159 1420 -280 1420 c 0
 -381 1420 -447 1491 -447 1582 c 0
-260 1532 m 0
 -210 1532 -159 1577 -159 1632 c 0
 -159 1670 -186 1701 -230 1701 c 0
 -286 1701 -332 1652 -332 1602 c 0
 -332 1563 -304 1532 -260 1532 c 0
EndSplineSet
EndChar

StartChar: uni0E0D.descless
Encoding: 63247 63247 255
Width: 1864
VWidth: 2045
Flags: W
HStem: 0 112<402.35 549.889 1118 1585> 279 112<430.954 563.498> 764 112<499 611> 1142 112<622.488 974.375>
VStem: 283 114<116.708 259.505> 569 116<130.833 274.475> 1126 115<688.008 991.988>
DStem2: 251.44 0 364.23 0 0.173648 0.984808<398.34 775.759> 985 0 1098.25 0 0.173648 0.984808<133.394 839.92> 1565.25 0 1678 0 0.173648 0.984808<113.728 1273.28>
LayerCount: 2
Fore
SplineSet
685 229 m 0
 685 108 573 0 448 0 c 0
 347 0 283 71 283 161 c 0
 283 172 284 184 286 196 c 2
 386 764 l 1
 245 764 l 1
 292 1034 553 1254 825 1254 c 256
 1066 1254 1241 1082 1241 849 c 0
 1241 822 1238 793 1233 764 c 2
 1118 112 l 1
 1585 112 l 1
 1786 1254 l 1
 1899 1254 l 1
 1678 0 l 17
 985 0 l 1
 1120 764 l 2
 1124 786 1126 808 1126 829 c 0
 1126 1007 993 1142 805 1142 c 256
 687 1142 508 1087 394 876 c 1
 630 876 l 1
 611 764 l 1
 499 764 l 1
 430 373 l 1
 459 385 488 391 518 391 c 0
 618 391 685 321 685 229 c 0
469 112 m 0
 523 112 569 159 569 210 c 0
 569 252 537 279 498 279 c 0
 448 279 397 235 397 181 c 0
 397 139 428 112 469 112 c 0
EndSplineSet
EndChar

StartChar: uni0E4D.left
Encoding: 63249 63249 257
Width: 0
VWidth: 2045
Flags: W
HStem: 1401 112<-402.066 -253.589> 1681 112<-386.715 -240.412>
VStem: -522 114<1519.64 1661.28> -235 116<1531.05 1675.71>
LayerCount: 2
Back
SplineSet
-655.812 1555 m 132
 -646.29 1609 -618.816 1655.17 -573.391 1693.5 c 132
 -527.965 1731.83 -477.752 1751 -422.752 1751 c 132
 -367.752 1751 -324.465 1731.83 -292.891 1693.5 c 132
 -261.316 1655.17 -250.123 1609 -259.312 1555 c 132
 -268.5 1501 -295.807 1454.83 -341.232 1416.5 c 132
 -386.659 1378.17 -436.872 1359 -491.872 1359 c 132
 -546.872 1359 -590.325 1378.17 -622.232 1416.5 c 132
 -654.14 1454.83 -665.333 1501 -655.812 1555 c 132
-542.988 1554 m 132
 -547.102 1530.67 -542.237 1511 -528.392 1495 c 132
 -514.546 1479 -495.956 1471 -472.623 1471 c 132
 -449.29 1471 -427.713 1479 -407.892 1495 c 132
 -388.07 1511 -376.102 1530.67 -371.988 1554 c 132
 -367.873 1577.33 -372.847 1597.33 -386.908 1614 c 132
 -400.969 1630.67 -419.667 1639 -443 1639 c 132
 -466.333 1639 -487.803 1630.67 -507.408 1614 c 132
 -527.013 1597.33 -538.873 1577.33 -542.988 1554 c 132
EndSplineSet
Fore
Refer: 196 3661 N 1 0 0 1 -209 0 2
EndChar

StartChar: uni0E48.left
Encoding: 63251 63251 259
Width: 0
VWidth: 2045
Flags: W
HStem: 2117 305<-100 -41>
VStem: -154 167
DStem2: -154 2117 -41 2117 0.173648 0.984808<19.6222 309.743>
LayerCount: 2
Back
SplineSet
-169.747 1924 m 1
 -47.7471 1924 l 1
 -96.2363 1649 l 1
 -218.236 1649 l 1
 -169.747 1924 l 1
EndSplineSet
Fore
Refer: 191 3656 N 1 0 0 1 -245 0 2
EndChar

StartChar: uni0E38.low
Encoding: 63256 63256 264
Width: 0
VWidth: 2045
Flags: W
HStem: -1011 112<-654.584 -522.431> -733 112<-641.9 -495.266>
VStem: -775 115<-894.929 -750.838> -489 115<-968.219 -737.607>
DStem2: -559 -1208 -446 -1208 0.173648 0.984808<19.6222 218.332>
LayerCount: 2
Back
SplineSet
-478 -625 m 0
 -596 -625 -712 -731 -712 -858 c 0
 -712 -952 -642 -1018 -547 -1018 c 0
 -517 -1018 -487 -1012 -460 -1000 c 1
 -498 -1213 l 1
 -385 -1213 l 1
 -316 -822 l 2
 -314 -810 -313 -799 -313 -787 c 0
 -313 -694 -381 -625 -478 -625 c 0
-428 -807 m 0
 -428 -854 -471 -906 -527 -906 c 0
 -566 -906 -597 -878 -597 -838 c 0
 -597 -785 -551 -737 -497 -737 c 0
 -454 -737 -428 -768 -428 -807 c 0
EndSplineSet
Fore
Refer: 179 3640 N 1 0 0 1 -165 -537 2
EndChar

StartChar: uni0E39.low
Encoding: 63257 63257 265
Width: 0
VWidth: 2045
Flags: W
HStem: -1014 112<-982.617 -849.256> -736 112<-968.56 -821.058>
VStem: -1103 115<-898.036 -755.177> -816 115<-884.351 -742.574>
DStem2: -603.749 -1209 -491 -1209 0.173648 0.984808<113.728 593.955>
LayerCount: 2
Back
SplineSet
-765 -631 m 0
 -884 -631 -1000 -737 -1000 -860 c 0
 -1000 -952 -931 -1021 -834 -1021 c 0
 -803 -1021 -774 -1015 -747 -1003 c 1
 -784 -1216 l 1
 -388 -1216 l 17
 -285 -631 l 1
 -398 -631 l 1
 -482 -1104 l 25
 -652 -1104 l 1
 -603 -826 l 2
 -601 -814 -600 -802 -600 -791 c 0
 -600 -699 -669 -631 -765 -631 c 0
-715 -811 m 0
 -715 -855 -752 -909 -814 -909 c 0
 -858 -909 -885 -880 -885 -841 c 0
 -885 -796 -846 -743 -785 -743 c 0
 -742 -743 -715 -772 -715 -811 c 0
EndSplineSet
Fore
Refer: 180 3641 N 1 0 0 1 -212 -540 2
EndChar

StartChar: uniF71C
Encoding: 63260 63260 266
Width: 698
VWidth: 2045
Flags: W
HStem: -423 269
VStem: 32 426
LayerCount: 2
Fore
SplineSet
32 -423 m 1
 217 -154 l 1
 458 -154 l 1
 169 -423 l 1
 32 -423 l 1
EndSplineSet
EndChar

StartChar: uniF71D
Encoding: 63261 63261 267
Width: 798
VWidth: 2045
Flags: W
HStem: -236 211<179 223 509 574> -127 102<243 509>
VStem: 141 471
DStem2: 141 -236 223 -236 0.173648 0.984808<14.2392 125.056>
LayerCount: 2
Fore
SplineSet
574 -236 m 1xa0
 489 -236 l 1xa0
 509 -127 l 1
 243 -127 l 1x60
 223 -236 l 1
 141 -236 l 1
 179 -25 l 1xa0
 612 -25 l 1x60
 574 -236 l 1xa0
EndSplineSet
EndChar

StartChar: zerowidthnonjoiner
Encoding: 8204 8204 268
Width: 0
VWidth: 2045
Flags: W
LayerCount: 2
Back
SplineSet
264.109 1288 m 1
 -11.4902 -275 l 1
 -85.4902 -275 l 1
 190.109 1288 l 1
 264.109 1288 l 1
EndSplineSet
EndChar

StartChar: uni0E3A.low
Encoding: 63258 63258 271
Width: 0
VWidth: 2045
Flags: W
HStem: -898 277<-582.417 -411.037>
VStem: -640 284<-842.207 -677.581>
LayerCount: 2
Back
SplineSet
-559 -758 m 0
 -559 -673 -483 -599 -400 -599 c 0
 -329 -599 -287 -655 -287 -714 c 0
 -287 -804 -380 -868 -447 -868 c 0
 -509 -868 -559 -824 -559 -758 c 0
EndSplineSet
Fore
Refer: 181 3642 N 1 0 0 1 -139 -539 2
EndChar

StartChar: uniF71B
Encoding: 63259 63259 272
Width: 998
VWidth: 2045
Flags: W
HStem: 1064 20G<402.484 1020>
DStem2: 226 60 840 60 0.173648 0.984808<106.62 1039.7>
LayerCount: 2
Fore
SplineSet
1020 1084 m 1
 840 60 l 1
 226 60 l 1
 406 1084 l 1
 1020 1084 l 1
EndSplineSet
EndChar

StartChar: uni0E47.high
Encoding: 63263 63263 274
Width: 0
VWidth: 2045
Flags: W
HStem: 2061 92<-184.571 -66.9645> 2141 110<-371.191 -258.813> 2213 89<-126.51 -66.2844> 2339 104<-426.045 -5.38547>
VStem: -565 113<2175.33 2310.41> -66 92<2154.34 2212.32>
AnchorPoint: "AboveMark" -216 2512 basemark 0
AnchorPoint: "AboveMark" -299 2040 mark 0
LayerCount: 2
Fore
SplineSet
-331 2141 m 0x5c
 -364 2141 -374 2102 -377 2060 c 1
 -462 2063 -565 2085 -565 2202 c 0
 -565 2319 -480 2443 -258 2443 c 0
 -240 2443 -208 2441 -175 2441 c 0
 -66 2441 -25 2454 47 2539 c 1
 111 2464 l 1
 9 2356 -69 2338 -182 2338 c 0
 -212 2338 -226 2339 -254 2339 c 0
 -375 2339 -452 2319 -452 2218 c 0
 -452 2196 -446 2182 -435 2174 c 1
 -422 2209 -387 2251 -335 2251 c 0x5c
 -273 2251 -245 2192 -218 2177 c 1
 -206 2246 -147 2302 -75 2302 c 0
 -14 2302 26 2259 26 2204 c 0
 26 2135 -32 2061 -130 2061 c 0xbc
 -272 2061 -279 2141 -331 2141 c 0x5c
-91 2213 m 0xbc
 -111 2213 -127 2198 -127 2177 c 0
 -127 2163 -118 2153 -101 2153 c 0
 -82 2153 -66 2168 -66 2189 c 0
 -66 2203 -75 2213 -91 2213 c 0xbc
EndSplineSet
EndChar

StartChar: ff
Encoding: 64256 64256 276
Width: 1136
VWidth: 2045
Flags: W
HStem: 0 21G<177 307.526 745 875.526> 936 124<205 342 491 910 1059 1268> 1391 124<619.728 1009.89 1179.59 1452.19>
DStem2: 177 0 304 0 0.173648 0.984808<22.0533 950.432 1098.42 1359.67> 745 0 872 0 0.173648 0.984808<22.0533 950.432 1098.42 1368.8>
LayerCount: 2
Fore
SplineSet
1313 1391 m 3
 1264 1391 1112 1366 1078 1170 c 2
 1059 1060 l 1
 1290 1060 l 1
 1268 936 l 1
 1037 936 l 1
 872 0 l 1
 745 0 l 1
 910 936 l 1
 469 936 l 1
 304 0 l 1
 177 0 l 1
 342 936 l 1
 183 936 l 1
 205 1060 l 1
 364 1060 l 1
 384 1175 l 2
 432 1447 620 1515 833 1515 c 3
 995 1515 1045 1459 1087 1433 c 1
 1161 1495 1249 1515 1321 1515 c 3
 1372 1515 1422 1506 1470 1488 c 1
 1448 1363 l 1
 1398 1382 1354 1391 1313 1391 c 3
825 1391 m 3
 696 1391 544 1366 510 1170 c 2
 491 1060 l 1
 932 1060 l 1
 952 1175 l 2
 964 1244 986 1300 1013 1345 c 1
 976 1368 922 1391 825 1391 c 3
EndSplineSet
LCarets2: 1 0 
Ligature2: "'liga' Standard Ligatures lookup 0" f f
EndChar

StartChar: fi
Encoding: 64257 64257 277
Width: 1022
VWidth: 2045
Flags: W
HStem: 0 21G<177 307.526 727 857.528> 936 124<205 342 491 892> 1391 124<619.728 1009.84>
DStem2: 177 0 304 0 0.173648 0.984808<22.0533 950.432 1098.42 1359.67> 727 0 854 0 0.173648 0.984808<22.0533 950.432>
LayerCount: 2
Fore
SplineSet
825 1391 m 3
 696 1391 544 1366 510 1170 c 2
 491 1060 l 1
 1041 1060 l 1
 854 0 l 1
 727 0 l 1
 892 936 l 1
 469 936 l 1
 304 0 l 1
 177 0 l 1
 342 936 l 1
 183 936 l 1
 205 1060 l 1
 364 1060 l 1
 384 1175 l 2
 432 1447 620 1515 833 1515 c 3
 1018 1515 1057 1442 1105 1424 c 1
 1083 1299 l 1
 1033 1318 1000 1391 825 1391 c 3
EndSplineSet
LCarets2: 1 0 
Ligature2: "'liga' Standard Ligatures lookup 0" f i
EndChar

StartChar: fl
Encoding: 64258 64258 278
Width: 1022
VWidth: 2045
Flags: W
HStem: 0 21G<177 307.526 730 860.522> 936 124<205 342 491 700> 1391 124<619.728 970.661>
DStem2: 177 0 304 0 0.173648 0.984808<22.0533 950.432 1098.42 1359.67> 730 0 857 0 0.173648 0.984808<22.0533 1400.25>
LayerCount: 2
Fore
SplineSet
825 1391 m 3
 696 1391 544 1366 510 1170 c 2
 491 1060 l 1
 722 1060 l 1
 700 936 l 1
 469 936 l 1
 304 0 l 1
 177 0 l 1
 342 936 l 1
 183 936 l 1
 205 1060 l 1
 364 1060 l 1
 384 1175 l 2
 432 1447 620 1515 833 1515 c 3
 1018 1515 1064 1481 1112 1465 c 1
 1115 1465 l 1
 857 0 l 1
 730 0 l 1
 973 1379 l 1
 937 1386 891 1391 825 1391 c 3
EndSplineSet
LCarets2: 1 0 
Ligature2: "'liga' Standard Ligatures lookup 0" f l
EndChar

StartChar: ffi
Encoding: 64259 64259 279
Width: 1590
VWidth: 2045
Flags: W
HStem: 0 21G<177 307.526 745 875.526 1295 1425.53> 936 124<205 342 491 910 1059 1460> 1391 124<619.728 1012.15 1189.55 1577.84>
DStem2: 177 0 304 0 0.173648 0.984808<22.0533 950.432 1098.42 1359.67> 745 0 872 0 0.173648 0.984808<22.0533 950.432 1098.42 1366.64> 1295 0 1422 0 0.173648 0.984808<22.0533 950.432>
LayerCount: 2
Fore
SplineSet
1393 1391 m 3
 1264 1391 1112 1366 1078 1170 c 2
 1059 1060 l 1
 1609 1060 l 1
 1422 0 l 1
 1295 0 l 1
 1460 936 l 1
 1037 936 l 1
 872 0 l 1
 745 0 l 1
 910 936 l 1
 469 936 l 1
 304 0 l 1
 177 0 l 1
 342 936 l 1
 183 936 l 1
 205 1060 l 1
 364 1060 l 1
 384 1175 l 2
 432 1447 620 1515 833 1515 c 3
 1000 1515 1048 1456 1091 1431 c 1
 1174 1495 1284 1515 1401 1515 c 3
 1586 1515 1625 1442 1673 1424 c 1
 1651 1299 l 1
 1601 1318 1568 1391 1393 1391 c 3
825 1391 m 3
 696 1391 544 1366 510 1170 c 2
 491 1060 l 1
 932 1060 l 1
 952 1175 l 2
 964 1244 986 1300 1014 1345 c 1
 977 1368 923 1391 825 1391 c 3
EndSplineSet
LCarets2: 2 0 0 
Ligature2: "'liga' Standard Ligatures lookup 0" ff i
Ligature2: "'liga' Standard Ligatures lookup 0" f f i
EndChar

StartChar: ffl
Encoding: 64260 64260 280
Width: 1590
VWidth: 2045
Flags: W
HStem: 0 21G<177 307.526 745 875.526 1298 1428.52> 936 124<205 342 491 910 1059 1268> 1391 124<619.728 1012.15 1189.55 1538.66>
DStem2: 177 0 304 0 0.173648 0.984808<22.0533 950.432 1098.42 1359.67> 745 0 872 0 0.173648 0.984808<22.0533 950.432 1098.42 1366.64> 1298 0 1425 0 0.173648 0.984808<22.0533 1400.25>
LayerCount: 2
Fore
SplineSet
1393 1391 m 3
 1264 1391 1112 1366 1078 1170 c 2
 1059 1060 l 1
 1290 1060 l 1
 1268 936 l 1
 1037 936 l 1
 872 0 l 1
 745 0 l 1
 910 936 l 1
 469 936 l 1
 304 0 l 1
 177 0 l 1
 342 936 l 1
 183 936 l 1
 205 1060 l 1
 364 1060 l 1
 384 1175 l 2
 432 1447 620 1515 833 1515 c 3
 1000 1515 1048 1456 1091 1431 c 1
 1174 1495 1284 1515 1401 1515 c 3
 1586 1515 1632 1481 1680 1465 c 1
 1683 1465 l 1
 1425 0 l 1
 1298 0 l 1
 1541 1379 l 1
 1505 1386 1459 1391 1393 1391 c 3
825 1391 m 3
 696 1391 544 1366 510 1170 c 2
 491 1060 l 1
 932 1060 l 1
 952 1175 l 2
 964 1244 986 1300 1014 1345 c 1
 977 1368 923 1391 825 1391 c 3
EndSplineSet
LCarets2: 2 0 0 
Ligature2: "'liga' Standard Ligatures lookup 0" ff l
Ligature2: "'liga' Standard Ligatures lookup 0" f f l
EndChar

StartChar: dotlessi
Encoding: 305 305 281
Width: 454
VWidth: 2045
Flags: W
HStem: 0 21G<159 289.528> 1040 20G<342.472 473>
VStem: 159 314
DStem2: 159 0 286 0 0.173648 0.984808<22.0533 1076.37>
LayerCount: 2
Fore
SplineSet
159 0 m 1
 346 1060 l 1
 473 1060 l 1
 286 0 l 1
 159 0 l 1
EndSplineSet
EndChar

StartChar: dotlessj
Encoding: 567 567 282
Width: 454
VWidth: 2045
Flags: W
HStem: -429 124<-150.329 77.5933> 1040 20G<371.463 502>
VStem: -167 669
DStem2: 111.877 -429 239.406 -429 0.173648 0.984808<183.677 1512.07>
LayerCount: 2
Fore
SplineSet
305 -57 m 2
 271 -250 184 -429 -36 -429 c 0
 -77 -429 -121 -423 -167 -411 c 1
 -147 -296 l 1
 -91 -305 -71 -305 -51 -305 c 0
 5 -305 135 -298 178 -54 c 2
 375 1060 l 1
 502 1060 l 1
 305 -57 l 2
EndSplineSet
EndChar

StartChar: AE
Encoding: 198 198 283
Width: 1844
Flags: W
HStem: 0 136<1043 1764> 500 136<586 974> 670 136<1185 1730> 1314 136<1034 1147 1293 2043>
DStem2: -2 0 166 0 0.549638 0.835403<92.3391 690.322 854.503 1667.98> 868 0 1043 136 0.207698 0.978193<169.381 511.112 650.17 715.206 854.264 1343.29>
LayerCount: 2
Fore
SplineSet
952 1450 m 1
 2072 1450 l 1
 2043 1314 l 1
 1293 1314 l 1
 1185 806 l 1
 1759 806 l 1
 1730 670 l 1
 1156 670 l 1
 1043 136 l 1
 1793 136 l 1
 1764 0 l 1
 868 0 l 1
 974 500 l 1
 494 500 l 1
 166 0 l 1
 -2 0 l 1
 952 1450 l 1
1147 1314 m 1
 1034 1315 l 1
 586 636 l 1
 1003 636 l 1
 1147 1314 l 1
EndSplineSet
EndChar

